GentiumPlus-R.ufo
<glyph name="LtnCapO" format="1">
  <advance width="1229"/>
  <unicode hex="004F"/>
  <outline>
    <contour>
      <point x="1140" y="647" type="curve"/>
      <point x="1140" y="973"/>
      <point x="965" y="1290"/>
      <point x="635" y="1290" type="curve" smooth="yes"/>
      <point x="321" y="1290"/>
      <point x="72" y="975"/>
      <point x="72" y="612" type="curve" smooth="yes"/>
      <point x="72" y="276"/>
      <point x="256" y="-30"/>
      <point x="577" y="-30" type="curve" smooth="yes"/>
      <point x="881" y="-30"/>
      <point x="1140" y="285"/>
    </contour>
    <contour>
      <point x="985" y="629" type="curve"/>
      <point x="985" y="276"/>
      <point x="827" y="90"/>
      <point x="606" y="90" type="curve" smooth="yes"/>
      <point x="401" y="90"/>
      <point x="227" y="342"/>
      <point x="227" y="641" type="curve" smooth="yes"/>
      <point x="227" y="967"/>
      <point x="369" y="1175"/>
      <point x="606" y="1175" type="curve" smooth="yes"/>
      <point x="833" y="1175"/>
      <point x="985" y="905"/>
    </contour>
    <contour>
      <point x="617" y="1370" type="move" name="U"/>
    </contour>
    <contour>
      <point x="617" y="-100" type="move" name="L"/>
    </contour>
    <contour>
      <point x="1258" y="1100" type="move" name="R"/>
    </contour>
    <contour>
      <point x="678" y="0" type="move" name="O"/>
    </contour>
    <contour>
      <point x="587" y="0" type="move" name="H"/>
    </contour>
  </outline>
</glyph>
<glyph name="CircumAccent" format="1">
  <advance width="1008"/>
  <unicode hex="005E"/>
  <outline>
    <contour>
      <point x="907" y="635" type="curve"/>
      <point x="555" y="1550" type="line"/>
      <point x="518" y="1532"/>
      <point x="455" y="1493"/>
      <point x="422" y="1462" type="curve"/>
      <point x="100" y="592" type="line"/>
      <point x="123" y="565" type="line"/>
      <point x="150" y="578"/>
      <point x="203" y="608"/>
      <point x="231" y="635" type="curve"/>
      <point x="481" y="1315" type="line"/>
      <point x="764" y="592" type="line"/>
      <point x="801" y="565" type="line"/>
      <point x="846" y="586"/>
      <point x="874" y="604"/>
    </contour>
    <contour>
      <point x="504" y="1690" type="move" name="U"/>
    </contour>
  </outline>
</glyph>
<glyph name="GraveAccent" format="1">
  <advance width="653"/>
  <unicode hex="0060"/>
  <outline>
    <contour>
      <point x="438" y="1078" type="curve"/>
      <point x="198" y="1489" type="line"/>
      <point x="165" y="1486"/>
      <point x="78" y="1471"/>
      <point x="52" y="1465" type="curve"/>
      <point x="30" y="1424" type="line"/>
      <point x="382" y="1047" type="line"/>
      <point x="405" y="1054"/>
      <point x="426" y="1068"/>
    </contour>
    <contour>
      <point x="327" y="1410" type="move" name="U"/>
    </contour>
  </outline>
</glyph>
<glyph name="VertLine" format="1">
  <advance width="500"/>
  <unicode hex="007C"/>
  <outline>
    <contour>
      <point x="320" y="-448" type="curve"/>
      <point x="320" y="1648" type="line"/>
      <point x="284" y="1670" type="line"/>
      <point x="245" y="1660"/>
      <point x="217" y="1643"/>
      <point x="180" y="1621" type="curve"/>
      <point x="180" y="-477" type="line"/>
      <point x="215" y="-500" type="line"/>
      <point x="248" y="-489"/>
      <point x="296" y="-469"/>
    </contour>
  </outline>
</glyph>
<glyph name="LtnCapADiaer" format="1">
  <advance width="1219"/>
  <unicode hex="00C4"/>
  <outline>
    <component base="LtnCapA"/>
    <component base="CombDiaer.LP" xOffset="1114" yOffset="320"/>
    <contour>
      <point x="599" y="0" type="move" name="H"/>
    </contour>
    <contour>
      <point x="599" y="1690" type="move" name="U"/>
    </contour>
    <contour>
      <point x="599" y="-100" type="move" name="L"/>
    </contour>
    <contour>
      <point x="960" y="0" type="move" name="O"/>
    </contour>
  </outline>
</glyph>
<glyph name="LtnCapNTilde" format="1">
  <advance width="1329"/>
  <unicode hex="00D1"/>
  <outline>
    <component base="LtnCapN"/>
    <component base="CombTilde.LP" xOffset="1180" yOffset="320"/>
    <contour>
      <point x="1047" y="0" type="move" name="H"/>
    </contour>
    <contour>
      <point x="665" y="1690" type="move" name="U"/>
    </contour>
    <contour>
      <point x="665" y="-100" type="move" name="L"/>
    </contour>
  </outline>
</glyph>
<glyph name="LtnCapUAcute" format="1">
  <advance width="1339"/>
  <unicode hex="00DA"/>
  <outline>
    <component base="LtnCapU"/>
    <component base="CombAcute.LP" xOffset="1220" yOffset="320"/>
    <contour>
      <point x="677" y="0" type="move" name="H"/>
    </contour>
    <contour>
      <point x="1330" y="1100" type="move" name="R"/>
    </contour>
    <contour>
      <point x="677" y="1690" type="move" name="U"/>
    </contour>
    <contour>
      <point x="677" y="-100" type="move" name="L"/>
    </contour>
    <contour>
      <point x="760" y="0" type="move" name="O"/>
    </contour>
  </outline>
</glyph>
<glyph name="LtnCapUDiaer" format="1">
  <advance width="1339"/>
  <unicode hex="00DC"/>
  <outline>
    <component base="LtnCapU"/>
    <component base="CombDiaer.LP" xOffset="1192" yOffset="320"/>
    <contour>
      <point x="677" y="0" type="move" name="H"/>
    </contour>
    <contour>
      <point x="1330" y="1100" type="move" name="R"/>
    </contour>
    <contour>
      <point x="677" y="1690" type="move" name="U"/>
    </contour>
    <contour>
      <point x="677" y="-100" type="move" name="L"/>
    </contour>
    <contour>
      <point x="760" y="0" type="move" name="O"/>
    </contour>
  </outline>
</glyph>
<glyph name="LtnCapYAcute" format="1">
  <advance width="1217"/>
  <unicode hex="00DD"/>
  <outline>
    <component base="LtnCapY"/>
    <component base="CombAcute.LP" xOffset="1147" yOffset="320"/>
    <contour>
      <point x="604" y="1690" type="move" name="U"/>
    </contour>
    <contour>
      <point x="604" y="-100" type="move" name="L"/>
    </contour>
  </outline>
</glyph>
<glyph name="LtnSmICircum" format="1">
  <advance width="555"/>
  <unicode hex="00EE"/>
  <outline>
    <component base="LtnSmDotlessI"/>
    <component base="CombCircum" xOffset="799"/>
    <contour>
      <point x="285" y="0" type="move" name="H"/>
    </contour>
    <contour>
      <point x="555" y="900" type="move" name="R"/>
    </contour>
    <contour>
      <point x="285" y="1500" type="move" name="U"/>
    </contour>
    <contour>
      <point x="285" y="-100" type="move" name="L"/>
    </contour>
    <contour>
      <point x="335" y="0" type="move" name="O"/>
    </contour>
  </outline>
</glyph>
<glyph name="LtnSmODiaer" format="1">
  <advance width="1030"/>
  <unicode hex="00F6"/>
  <outline>
    <component base="LtnSmO"/>
    <component base="CombDiaer" xOffset="1050"/>
    <contour>
      <point x="535" y="0" type="move" name="H"/>
    </contour>
    <contour>
      <point x="1044" y="900" type="move" name="R"/>
    </contour>
    <contour>
      <point x="535" y="1410" type="move" name="U"/>
    </contour>
    <contour>
      <point x="535" y="-100" type="move" name="L"/>
    </contour>
    <contour>
      <point x="575" y="0" type="move" name="O"/>
    </contour>
  </outline>
</glyph>
<glyph name="LtnSmUGrave" format="1">
  <advance width="1085"/>
  <unicode hex="00F9"/>
  <outline>
    <component base="LtnSmU"/>
    <component base="CombGrave" xOffset="978"/>
    <contour>
      <point x="546" y="0" type="move" name="H"/>
    </contour>
    <contour>
      <point x="1084" y="900" type="move" name="R"/>
    </contour>
    <contour>
      <point x="545" y="1410" type="move" name="U"/>
    </contour>
    <contour>
      <point x="545" y="-100" type="move" name="L"/>
    </contour>
    <contour>
      <point x="860" y="0" type="move" name="O"/>
    </contour>
  </outline>
</glyph>
<glyph name="LtnSmYAcute" format="1">
  <advance width="1010"/>
  <unicode hex="00FD"/>
  <outline>
    <component base="LtnSmY"/>
    <component base="CombAcute" xOffset="1073"/>
    <contour>
      <point x="1044" y="900" type="move" name="R"/>
    </contour>
    <contour>
      <point x="530" y="1410" type="move" name="U"/>
    </contour>
    <contour>
      <point x="770" y="-100" type="move" name="L"/>
    </contour>
  </outline>
</glyph>
<glyph name="LtnSmCAcute" format="1">
  <advance width="895"/>
  <unicode hex="0107"/>
  <outline>
    <component base="LtnSmC"/>
    <component base="CombAcute" xOffset="1033"/>
    <contour>
      <point x="490" y="0" type="move" name="H"/>
    </contour>
    <contour>
      <point x="948" y="900" type="move" name="R"/>
    </contour>
    <contour>
      <point x="490" y="1410" type="move" name="U"/>
    </contour>
    <contour>
      <point x="490" y="-100" type="move" name="L"/>
    </contour>
  </outline>
</glyph>
<glyph name="LtnCapCCircum" format="1">
  <advance width="1098"/>
  <unicode hex="0108"/>
  <outline>
    <component base="LtnCapC"/>
    <component base="CombCircum.LP" xOffset="1128" yOffset="320"/>
    <contour>
      <point x="584" y="0" type="move" name="H"/>
    </contour>
    <contour>
      <point x="614" y="1770" type="move" name="U"/>
    </contour>
    <contour>
      <point x="614" y="-100" type="move" name="L"/>
    </contour>
  </outline>
</glyph>
<glyph name="LtnCapCDotAbv" format="1">
  <advance width="1098"/>
  <unicode hex="010A"/>
  <outline>
    <component base="LtnCapC"/>
    <component base="CombDotAbv.LP" xOffset="1129" yOffset="320"/>
    <contour>
      <point x="584" y="0" type="move" name="H"/>
    </contour>
    <contour>
      <point x="614" y="1690" type="move" name="U"/>
    </contour>
    <contour>
      <point x="614" y="-100" type="move" name="L"/>
    </contour>
  </outline>
</glyph>
<glyph name="LtnCapDCaron" format="1">
  <advance width="1214"/>
  <unicode hex="010E"/>
  <outline>
    <component base="LtnCapD"/>
    <component base="CombCaron.LP" xOffset="1064" yOffset="320"/>
    <contour>
      <point x="550" y="1690" type="move" name="U"/>
    </contour>
    <contour>
      <point x="550" y="-100" type="move" name="L"/>
    </contour>
  </outline>
</glyph>
<glyph name="LtnSmEMacron" format="1">
  <advance width="946"/>
  <unicode hex="0113"/>
  <outline>
    <component base="LtnSmE"/>
    <component base="CombMacron" xOffset="1035"/>
    <contour>
      <point x="500" y="0" type="move" name="H"/>
    </contour>
    <contour>
      <point x="1020" y="900" type="move" name="R"/>
    </contour>
    <contour>
      <point x="510" y="1410" type="move" name="U"/>
    </contour>
    <contour>
      <point x="500" y="-100" type="move" name="L"/>
    </contour>
    <contour>
      <point x="558" y="0" type="move" name="O"/>
    </contour>
  </outline>
</glyph>
<glyph name="LtnCapGCircum" format="1">
  <advance width="1194"/>
  <unicode hex="011C"/>
  <outline>
    <component base="LtnCapG"/>
    <component base="CombCircum.LP" xOffset="1154" yOffset="320"/>
    <contour>
      <point x="620" y="0" type="move" name="H"/>
    </contour>
    <contour>
      <point x="640" y="1770" type="move" name="U"/>
    </contour>
    <contour>
      <point x="640" y="-100" type="move" name="L"/>
    </contour>
  </outline>
</glyph>
<glyph name="LtnCapGCedilla" format="1">
  <advance width="1194"/>
  <unicode hex="0122"/>
  <outline>
    <component base="LtnCapG"/>
    <component base="CombCommaBlw" xOffset="1160"/>
    <contour>
      <point x="620" y="0" type="move" name="H"/>
    </contour>
    <contour>
      <point x="640" y="1370" type="move" name="U"/>
    </contour>
    <contour>
      <point x="640" y="-600" type="move" name="L"/>
    </contour>
  </outline>
</glyph>
<glyph name="LtnSmGCedilla" format="1">
  <advance width="999"/>
  <unicode hex="0123"/>
  <outline>
    <component base="LtnSmG"/>
    <component base="CombTrndCommaAbv" xOffset="991"/>
    <contour>
      <point x="500" y="-470" type="move" name="H"/>
    </contour>
    <contour>
      <point x="999" y="900" type="move" name="R"/>
    </contour>
    <contour>
      <point x="500" y="1370" type="move" name="U"/>
    </contour>
    <contour>
      <point x="500" y="-600" type="move" name="L"/>
    </contour>
  </outline>
</glyph>
<glyph name="LtnSmDotlessI" format="1">
  <advance width="555"/>
  <unicode hex="0131"/>
  <outline>
    <contour>
      <point x="500" y="0" type="line"/>
      <point x="500" y="43" type="line"/>
      <point x="403" y="61"/>
      <point x="360" y="88"/>
      <point x="360" y="104" type="curve" smooth="yes"/>
      <point x="360" y="960" type="line"/>
      <point x="326" y="960" type="line"/>
      <point x="258" y="927"/>
      <point x="154" y="896"/>
      <point x="70" y="880" type="curve"/>
      <point x="70" y="840" type="line"/>
      <point x="211" y="827"/>
      <point x="210" y="807"/>
      <point x="210" y="670" type="curve" smooth="yes"/>
      <point x="210" y="104" type="line" smooth="yes"/>
      <point x="210" y="86"/>
      <point x="160" y="61"/>
      <point x="70" y="43" type="curve"/>
      <point x="70" y="0" type="line"/>
    </contour>
    <contour>
      <point x="285" y="1050" type="move" name="U"/>
    </contour>
    <contour>
      <point x="285" y="-100" type="move" name="L"/>
    </contour>
    <contour>
      <point x="555" y="900" type="move" name="R"/>
    </contour>
    <contour>
      <point x="335" y="0" type="move" name="O"/>
    </contour>
    <contour>
      <point x="285" y="0" type="move" name="H"/>
    </contour>
  </outline>
</glyph>
<glyph name="LtnCapJCircum" format="1">
  <advance width="625"/>
  <unicode hex="0134"/>
  <outline>
    <component base="LtnCapJ"/>
    <component base="CombCircum.LP" xOffset="844" yOffset="320"/>
    <contour>
      <point x="330" y="1770" type="move" name="U"/>
    </contour>
    <contour>
      <point x="330" y="-600" type="move" name="L"/>
    </contour>
  </outline>
</glyph>
<glyph name="LtnSmJCircum" format="1">
  <advance width="530"/>
  <unicode hex="0135"/>
  <outline>
    <component base="LtnSmJ.Dotless"/>
    <component base="CombCircum" xOffset="795"/>
    <contour>
      <point x="281" y="1500" type="move" name="U"/>
    </contour>
    <contour>
      <point x="280" y="-600" type="move" name="L"/>
    </contour>
  </outline>
</glyph>
<glyph name="LtnSmKCedilla" format="1">
  <advance width="999"/>
  <unicode hex="0137"/>
  <outline>
    <component base="LtnSmK"/>
    <component base="CombCommaBlw" xOffset="1034"/>
    <contour>
      <point x="250" y="0" type="move" name="H"/>
    </contour>
    <contour>
      <point x="999" y="900" type="move" name="R"/>
    </contour>
    <contour>
      <point x="514" y="1620" type="move" name="U"/>
    </contour>
    <contour>
      <point x="514" y="-600" type="move" name="L"/>
    </contour>
  </outline>
</glyph>
<glyph name="LtnSmLCaron" format="1">
  <advance width="752"/>
  <unicode hex="013E"/>
  <outline>
    <component base="LtnSmL"/>
    <component base="CombCommaAbvRt" xOffset="535"/>
    <contour>
      <point x="285" y="1690" type="move" name="U"/>
    </contour>
    <contour>
      <point x="285" y="-100" type="move" name="L"/>
    </contour>
    <contour>
      <point x="285" y="0" type="move" name="H"/>
    </contour>
  </outline>
</glyph>
<glyph name="LtnCapLMiddleDot" format="1">
  <advance width="975"/>
  <unicode hex="013F"/>
  <outline>
    <component base="LtnCapL"/>
    <component base="MiddleDot" xOffset="600"/>
    <contour>
      <point x="497" y="-100" type="move" name="L"/>
    </contour>
    <contour>
      <point x="467" y="1370" type="move" name="U"/>
    </contour>
    <contour>
      <point x="496" y="0" type="move" name="H"/>
    </contour>
  </outline>
</glyph>
<glyph name="LtnCapNCedilla" format="1">
  <advance width="1329"/>
  <unicode hex="0145"/>
  <outline>
    <component base="LtnCapN"/>
    <component base="CombCommaBlw" xOffset="1185"/>
    <contour>
      <point x="1047" y="0" type="move" name="H"/>
    </contour>
    <contour>
      <point x="665" y="1370" type="move" name="U"/>
    </contour>
    <contour>
      <point x="665" y="-600" type="move" name="L"/>
    </contour>
  </outline>
</glyph>
<glyph name="LtnSmNCaron" format="1">
  <advance width="1130"/>
  <unicode hex="0148"/>
  <outline>
    <component base="LtnSmN"/>
    <component base="CombCaron" xOffset="1091"/>
    <contour>
      <point x="885" y="0" type="move" name="H"/>
    </contour>
    <contour>
      <point x="577" y="1450" type="move" name="U"/>
    </contour>
    <contour>
      <point x="577" y="-100" type="move" name="L"/>
    </contour>
  </outline>
</glyph>
<glyph name="LtnSmOMacron" format="1">
  <advance width="1030"/>
  <unicode hex="014D"/>
  <outline>
    <component base="LtnSmO"/>
    <component base="CombMacron" xOffset="1060"/>
    <contour>
      <point x="535" y="0" type="move" name="H"/>
    </contour>
    <contour>
      <point x="1044" y="900" type="move" name="R"/>
    </contour>
    <contour>
      <point x="535" y="1410" type="move" name="U"/>
    </contour>
    <contour>
      <point x="535" y="-100" type="move" name="L"/>
    </contour>
    <contour>
      <point x="575" y="0" type="move" name="O"/>
    </contour>
  </outline>
</glyph>
<glyph name="LtnCapRCedilla" format="1">
  <advance width="1149"/>
  <unicode hex="0156"/>
  <outline>
    <component base="LtnCapR"/>
    <component base="CombCommaBlw" xOffset="1040"/>
    <contour>
      <point x="275" y="0" type="move" name="H"/>
    </contour>
    <contour>
      <point x="520" y="1370" type="move" name="U"/>
    </contour>
    <contour>
      <point x="520" y="-600" type="move" name="L"/>
    </contour>
  </outline>
</glyph>
<glyph name="LtnSmRCaron" format="1">
  <advance width="811"/>
  <unicode hex="0159"/>
  <outline>
    <component base="LtnSmR"/>
    <component base="CombCaron" xOffset="964"/>
    <contour>
      <point x="270" y="0" type="move" name="H"/>
    </contour>
    <contour>
      <point x="450" y="1450" type="move" name="U"/>
    </contour>
    <contour>
      <point x="270" y="-100" type="move" name="L"/>
    </contour>
  </outline>
</glyph>
<glyph name="LtnCapSCircum" format="1">
  <advance width="975"/>
  <unicode hex="015C"/>
  <outline>
    <component base="LtnCapS"/>
    <component base="CombCircum.LP" xOffset="1014" yOffset="320"/>
    <contour>
      <point x="480" y="0" type="move" name="H"/>
    </contour>
    <contour>
      <point x="500" y="1770" type="move" name="U"/>
    </contour>
    <contour>
      <point x="500" y="-100" type="move" name="L"/>
    </contour>
  </outline>
</glyph>
<glyph name="LtnCapTCaron" format="1">
  <advance width="1128"/>
  <unicode hex="0164"/>
  <outline>
    <component base="LtnCapT"/>
    <component base="CombCaron.LP" xOffset="1060" yOffset="320"/>
    <contour>
      <point x="551" y="0" type="move" name="H"/>
    </contour>
    <contour>
      <point x="546" y="1690" type="move" name="U"/>
    </contour>
    <contour>
      <point x="546" y="-100" type="move" name="L"/>
    </contour>
  </outline>
</glyph>
<glyph name="LtnCapUMacron" format="1">
  <advance width="1339"/>
  <unicode hex="016A"/>
  <outline>
    <component base="LtnCapU"/>
    <component base="CombMacron.LP" xOffset="1202" yOffset="320"/>
    <contour>
      <point x="677" y="0" type="move" name="H"/>
    </contour>
    <contour>
      <point x="1330" y="1100" type="move" name="R"/>
    </contour>
    <contour>
      <point x="677" y="1690" type="move" name="U"/>
    </contour>
    <contour>
      <point x="677" y="-100" type="move" name="L"/>
    </contour>
    <contour>
      <point x="760" y="0" type="move" name="O"/>
    </contour>
  </outline>
</glyph>
<glyph name="LtnSmUMacron" format="1">
  <advance width="1085"/>
  <unicode hex="016B"/>
  <outline>
    <component base="LtnSmU"/>
    <component base="CombMacron" xOffset="1070"/>
    <contour>
      <point x="546" y="0" type="move" name="H"/>
    </contour>
    <contour>
      <point x="1084" y="900" type="move" name="R"/>
    </contour>
    <contour>
      <point x="545" y="1410" type="move" name="U"/>
    </contour>
    <contour>
      <point x="545" y="-100" type="move" name="L"/>
    </contour>
    <contour>
      <point x="860" y="0" type="move" name="O"/>
    </contour>
  </outline>
</glyph>
<glyph name="LtnCapUOgonek" format="1">
  <advance width="1339"/>
  <unicode hex="0172"/>
  <outline>
    <component base="LtnCapU"/>
    <component base="CombOgonek" xOffset="1224"/>
    <contour>
      <point x="710" y="-600" type="move" name="L"/>
    </contour>
    <contour>
      <point x="677" y="1370" type="move" name="U"/>
    </contour>
    <contour>
      <point x="677" y="0" type="move" name="H"/>
    </contour>
    <contour>
      <point x="1330" y="1250" type="move" name="R"/>
    </contour>
  </outline>
</glyph>
<glyph name="LtnSmZAcute" format="1">
  <advance width="869"/>
  <unicode hex="017A"/>
  <outline>
    <component base="LtnSmZ"/>
    <component base="CombAcute" xOffset="1023"/>
    <contour>
      <point x="452" y="0" type="move" name="H"/>
    </contour>
    <contour>
      <point x="480" y="1410" type="move" name="U"/>
    </contour>
    <contour>
      <point x="452" y="-100" type="move" name="L"/>
    </contour>
  </outline>
</glyph>
<glyph name="LtnCapZDotAbv" format="1">
  <advance width="1071"/>
  <unicode hex="017B"/>
  <outline>
    <component base="LtnCapZ"/>
    <component base="CombDotAbv.LP" xOffset="1070" yOffset="320"/>
    <contour>
      <point x="555" y="1690" type="move" name="U"/>
    </contour>
    <contour>
      <point x="535" y="-100" type="move" name="L"/>
    </contour>
  </outline>
</glyph>
<glyph name="LtnSmZDotAbv" format="1">
  <advance width="869"/>
  <unicode hex="017C"/>
  <outline>
    <component base="LtnSmZ"/>
    <component base="CombDotAbv" xOffset="995"/>
    <contour>
      <point x="452" y="0" type="move" name="H"/>
    </contour>
    <contour>
      <point x="480" y="1410" type="move" name="U"/>
    </contour>
    <contour>
      <point x="452" y="-100" type="move" name="L"/>
    </contour>
  </outline>
</glyph>
<glyph name="LtnCapOHorn" format="1">
  <advance width="1229"/>
  <unicode hex="01A0"/>
  <outline>
    <component base="LtnCapO" xOffset="-2"/>
    <component base="CombHorn" xOffset="1150" yOffset="350"/>
    <contour>
      <point x="615" y="-100" type="move" name="L"/>
    </contour>
    <contour>
      <point x="615" y="1370" type="move" name="U"/>
    </contour>
  </outline>
</glyph>
<glyph name="LtnCapUHorn" format="1">
  <advance width="1400"/>
  <unicode hex="01AF"/>
  <outline>
    <component base="LtnCapU"/>
    <component base="CombHorn" xOffset="1330" yOffset="350"/>
    <contour>
      <point x="677" y="-100" type="move" name="L"/>
    </contour>
    <contour>
      <point x="677" y="1370" type="move" name="U"/>
    </contour>
  </outline>
</glyph>
<glyph name="LtnSmUHorn" format="1">
  <advance width="1255"/>
  <unicode hex="01B0"/>
  <outline>
    <component base="LtnSmU"/>
    <component base="CombHorn" xOffset="1185"/>
    <contour>
      <point x="545" y="1050" type="move" name="U"/>
    </contour>
    <contour>
      <point x="545" y="-100" type="move" name="L"/>
    </contour>
  </outline>
</glyph>
<glyph name="LtnCapLSmJ" format="1">
  <advance width="1505"/>
  <unicode hex="01C8"/>
  <outline>
    <component base="LtnCapL"/>
    <component base="LtnSmJ" xOffset="975"/>
    <contour>
      <point x="1256" y="1049" type="move" name="U"/>
    </contour>
    <contour>
      <point x="1255" y="-600" type="move" name="L"/>
    </contour>
    <contour>
      <point x="496" y="0" type="move" name="H"/>
    </contour>
  </outline>
</glyph>
<glyph name="LtnCapICaron" format="1">
  <advance width="610"/>
  <unicode hex="01CF"/>
  <outline>
    <component base="LtnCapI"/>
    <component base="CombCaron.LP" xOffset="809" yOffset="320"/>
    <contour>
      <point x="295" y="0" type="move" name="H"/>
    </contour>
    <contour>
      <point x="580" y="1100" type="move" name="R"/>
    </contour>
    <contour>
      <point x="295" y="1690" type="move" name="U"/>
    </contour>
    <contour>
      <point x="295" y="-100" type="move" name="L"/>
    </contour>
    <contour>
      <point x="345" y="0" type="move" name="O"/>
    </contour>
  </outline>
</glyph>
<glyph name="LtnSmOCaron" format="1">
  <advance width="1030"/>
  <unicode hex="01D2"/>
  <outline>
    <component base="LtnSmO"/>
    <component base="CombCaron" xOffset="1049"/>
    <contour>
      <point x="535" y="0" type="move" name="H"/>
    </contour>
    <contour>
      <point x="1044" y="900" type="move" name="R"/>
    </contour>
    <contour>
      <point x="535" y="1450" type="move" name="U"/>
    </contour>
    <contour>
      <point x="535" y="-100" type="move" name="L"/>
    </contour>
    <contour>
      <point x="575" y="0" type="move" name="O"/>
    </contour>
  </outline>
</glyph>
<glyph name="LtnCapUCaron" format="1">
  <advance width="1339"/>
  <unicode hex="01D3"/>
  <outline>
    <component base="LtnCapU"/>
    <component base="CombCaron.LP" xOffset="1191" yOffset="320"/>
    <contour>
      <point x="677" y="0" type="move" name="H"/>
    </contour>
    <contour>
      <point x="1330" y="1100" type="move" name="R"/>
    </contour>
    <contour>
      <point x="677" y="1690" type="move" name="U"/>
    </contour>
    <contour>
      <point x="677" y="-100" type="move" name="L"/>
    </contour>
    <contour>
      <point x="760" y="0" type="move" name="O"/>
    </contour>
  </outline>
</glyph>
<glyph name="LtnSmUCaron" format="1">
  <advance width="1085"/>
  <unicode hex="01D4"/>
  <outline>
    <component base="LtnSmU"/>
    <component base="CombCaron" xOffset="1059"/>
    <contour>
      <point x="546" y="0" type="move" name="H"/>
    </contour>
    <contour>
      <point x="1084" y="900" type="move" name="R"/>
    </contour>
    <contour>
      <point x="545" y="1450" type="move" name="U"/>
    </contour>
    <contour>
      <point x="545" y="-100" type="move" name="L"/>
    </contour>
    <contour>
      <point x="860" y="0" type="move" name="O"/>
    </contour>
  </outline>
</glyph>
<glyph name="LtnSmUDiaerCaron" format="1">
  <advance width="1085"/>
  <unicode hex="01DA"/>
  <outline>
    <component base="LtnSmU"/>
    <component base="CombDiaer" xOffset="1060"/>
    <component base="CombCaron" xOffset="1059" yOffset="360"/>
    <contour>
      <point x="546" y="0" type="move" name="H"/>
    </contour>
    <contour>
      <point x="1084" y="900" type="move" name="R"/>
    </contour>
    <contour>
      <point x="545" y="1810" type="move" name="U"/>
    </contour>
    <contour>
      <point x="545" y="-100" type="move" name="L"/>
    </contour>
    <contour>
      <point x="860" y="0" type="move" name="O"/>
    </contour>
  </outline>
</glyph>
<glyph name="LtnCapAeMacron" format="1">
  <advance width="1595"/>
  <unicode hex="01E2"/>
  <outline>
    <component base="LtnCapAe"/>
    <component base="CombMacron.LP" xOffset="1449" yOffset="320"/>
    <contour>
      <point x="924" y="1690" type="move" name="U"/>
    </contour>
    <contour>
      <point x="854" y="-100" type="move" name="L"/>
    </contour>
  </outline>
</glyph>
<glyph name="LtnSmGCaron" format="1">
  <advance width="999"/>
  <unicode hex="01E7"/>
  <outline>
    <component base="LtnSmG"/>
    <component base="CombCaron" xOffset="1014"/>
    <contour>
      <point x="500" y="-470" type="move" name="H"/>
    </contour>
    <contour>
      <point x="999" y="900" type="move" name="R"/>
    </contour>
    <contour>
      <point x="500" y="1450" type="move" name="U"/>
    </contour>
    <contour>
      <point x="500" y="-600" type="move" name="L"/>
    </contour>
  </outline>
</glyph>
<glyph name="LtnCapKCaron" format="1">
  <advance width="1184"/>
  <unicode hex="01E8"/>
  <outline>
    <component base="LtnCapK"/>
    <component base="CombCaron.LP" xOffset="1104" yOffset="320"/>
    <contour>
      <point x="275" y="0" type="move" name="H"/>
    </contour>
    <contour>
      <point x="590" y="1690" type="move" name="U"/>
    </contour>
    <contour>
      <point x="612" y="-100" type="move" name="L"/>
    </contour>
  </outline>
</glyph>
<glyph name="LtnSmKCaron" format="1">
  <advance width="999"/>
  <unicode hex="01E9"/>
  <outline>
    <component base="LtnSmK"/>
    <component base="CombCaron.LP" xOffset="1028" yOffset="570"/>
    <contour>
      <point x="250" y="0" type="move" name="H"/>
    </contour>
    <contour>
      <point x="999" y="900" type="move" name="R"/>
    </contour>
    <contour>
      <point x="514" y="1940" type="move" name="U"/>
    </contour>
    <contour>
      <point x="514" y="-100" type="move" name="L"/>
    </contour>
  </outline>
</glyph>
<glyph name="LtnCapDz" format="1">
  <advance width="2285"/>
  <unicode hex="01F1"/>
  <outline>
    <component base="LtnCapD"/>
    <component base="LtnCapZ" xOffset="1214"/>
    <contour>
      <point x="1769" y="1370" type="move" name="U"/>
    </contour>
    <contour>
      <point x="1749" y="-100" type="move" name="L"/>
    </contour>
  </outline>
</glyph>
<glyph name="LtnCapDSmZ" format="1">
  <advance width="2083"/>
  <unicode hex="01F2"/>
  <outline>
    <component base="LtnCapD"/>
    <component base="LtnSmZ" xOffset="1214"/>
    <contour>
      <point x="1666" y="0" type="move" name="H"/>
    </contour>
    <contour>
      <point x="1694" y="1050" type="move" name="U"/>
    </contour>
    <contour>
      <point x="1666" y="-100" type="move" name="L"/>
    </contour>
  </outline>
</glyph>
<glyph name="LtnCapGAcute" format="1">
  <advance width="1194"/>
  <unicode hex="01F4"/>
  <outline>
    <component base="LtnCapG"/>
    <component base="CombAcute.LP" xOffset="1183" yOffset="320"/>
    <contour>
      <point x="620" y="0" type="move" name="H"/>
    </contour>
    <contour>
      <point x="640" y="1690" type="move" name="U"/>
    </contour>
    <contour>
      <point x="640" y="-100" type="move" name="L"/>
    </contour>
  </outline>
</glyph>
<glyph name="LtnSmOStrkAcute" format="1">
  <advance width="1030"/>
  <unicode hex="01FF"/>
  <outline>
    <component base="LtnSmOStrk"/>
    <component base="CombAcute" xOffset="1068"/>
    <contour>
      <point x="535" y="0" type="move" name="H"/>
    </contour>
    <contour>
      <point x="1060" y="900" type="move" name="R"/>
    </contour>
    <contour>
      <point x="525" y="1410" type="move" name="U"/>
    </contour>
    <contour>
      <point x="525" y="-100" type="move" name="L"/>
    </contour>
    <contour>
      <point x="575" y="0" type="move" name="O"/>
    </contour>
  </outline>
</glyph>
<glyph name="LtnCapADblGrave" format="1">
  <advance width="1219"/>
  <unicode hex="0200"/>
  <outline>
    <component base="LtnCapA"/>
    <component base="CombDblGrave" xOffset="1139" yOffset="320"/>
    <contour>
      <point x="599" y="0" type="move" name="H"/>
    </contour>
    <contour>
      <point x="599" y="1853" type="move" name="U"/>
    </contour>
    <contour>
      <point x="599" y="-100" type="move" name="L"/>
    </contour>
    <contour>
      <point x="960" y="0" type="move" name="O"/>
    </contour>
  </outline>
</glyph>
<glyph name="LtnCapEDblGrave" format="1">
  <advance width="1016"/>
  <unicode hex="0204"/>
  <outline>
    <component base="LtnCapE"/>
    <component base="CombDblGrave" xOffset="1042" yOffset="320"/>
    <contour>
      <point x="502" y="0" type="move" name="H"/>
    </contour>
    <contour>
      <point x="1016" y="1100" type="move" name="R"/>
    </contour>
    <contour>
      <point x="502" y="1853" type="move" name="U"/>
    </contour>
    <contour>
      <point x="502" y="-100" type="move" name="L"/>
    </contour>
    <contour>
      <point x="750" y="0" type="move" name="O"/>
    </contour>
  </outline>
</glyph>
<glyph name="LtnSmEDblGrave" format="1">
  <advance width="946"/>
  <unicode hex="0205"/>
  <outline>
    <component base="LtnSmE"/>
    <component base="CombDblGrave" xOffset="1050"/>
    <contour>
      <point x="500" y="0" type="move" name="H"/>
    </contour>
    <contour>
      <point x="1020" y="900" type="move" name="R"/>
    </contour>
    <contour>
      <point x="510" y="1533" type="move" name="U"/>
    </contour>
    <contour>
      <point x="500" y="-100" type="move" name="L"/>
    </contour>
    <contour>
      <point x="558" y="0" type="move" name="O"/>
    </contour>
  </outline>
</glyph>
<glyph name="LtnCapIDblGrave" format="1">
  <advance width="610"/>
  <unicode hex="0208"/>
  <outline>
    <component base="LtnCapI"/>
    <component base="CombDblGrave" xOffset="835" yOffset="320"/>
    <contour>
      <point x="295" y="0" type="move" name="H"/>
    </contour>
    <contour>
      <point x="580" y="1100" type="move" name="R"/>
    </contour>
    <contour>
      <point x="295" y="1853" type="move" name="U"/>
    </contour>
    <contour>
      <point x="295" y="-100" type="move" name="L"/>
    </contour>
    <contour>
      <point x="345" y="0" type="move" name="O"/>
    </contour>
  </outline>
</glyph>
<glyph name="LtnSmIInvBreve" format="1">
  <advance width="555"/>
  <unicode hex="020B"/>
  <outline>
    <component base="LtnSmDotlessI"/>
    <component base="CombInvBreve" xOffset="800"/>
    <contour>
      <point x="285" y="0" type="move" name="H"/>
    </contour>
    <contour>
      <point x="555" y="900" type="move" name="R"/>
    </contour>
    <contour>
      <point x="285" y="1370" type="move" name="U"/>
    </contour>
    <contour>
      <point x="285" y="-100" type="move" name="L"/>
    </contour>
    <contour>
      <point x="335" y="0" type="move" name="O"/>
    </contour>
  </outline>
</glyph>
<glyph name="LtnCapOInvBreve" format="1">
  <advance width="1229"/>
  <unicode hex="020E"/>
  <outline>
    <component base="LtnCapO"/>
    <component base="CombInvBreve" xOffset="1132" yOffset="320"/>
    <contour>
      <point x="587" y="0" type="move" name="H"/>
    </contour>
    <contour>
      <point x="1258" y="1100" type="move" name="R"/>
    </contour>
    <contour>
      <point x="617" y="1690" type="move" name="U"/>
    </contour>
    <contour>
      <point x="617" y="-100" type="move" name="L"/>
    </contour>
    <contour>
      <point x="678" y="0" type="move" name="O"/>
    </contour>
  </outline>
</glyph>
<glyph name="LtnSmRDblGrave" format="1">
  <advance width="811"/>
  <unicode hex="0211"/>
  <outline>
    <component base="LtnSmR"/>
    <component base="CombDblGrave" xOffset="990"/>
    <contour>
      <point x="270" y="0" type="move" name="H"/>
    </contour>
    <contour>
      <point x="450" y="1533" type="move" name="U"/>
    </contour>
    <contour>
      <point x="270" y="-100" type="move" name="L"/>
    </contour>
  </outline>
</glyph>
<glyph name="LtnCapRInvBreve" format="1">
  <advance width="1149"/>
  <unicode hex="0212"/>
  <outline>
    <component base="LtnCapR"/>
    <component base="CombInvBreve" xOffset="1035" yOffset="320"/>
    <contour>
      <point x="275" y="0" type="move" name="H"/>
    </contour>
    <contour>
      <point x="520" y="1690" type="move" name="U"/>
    </contour>
    <contour>
      <point x="520" y="-100" type="move" name="L"/>
    </contour>
  </outline>
</glyph>
<glyph name="LtnSmRInvBreve" format="1">
  <advance width="811"/>
  <unicode hex="0213"/>
  <outline>
    <component base="LtnSmR"/>
    <component base="CombInvBreve" xOffset="965"/>
    <contour>
      <point x="270" y="0" type="move" name="H"/>
    </contour>
    <contour>
      <point x="450" y="1370" type="move" name="U"/>
    </contour>
    <contour>
      <point x="270" y="-100" type="move" name="L"/>
    </contour>
  </outline>
</glyph>
<glyph name="LtnCapSCommaBlw" format="1">
  <advance width="975"/>
  <unicode hex="0218"/>
  <outline>
    <component base="LtnCapS"/>
    <component base="CombCommaBlw" xOffset="1020"/>
    <contour>
      <point x="480" y="0" type="move" name="H"/>
    </contour>
    <contour>
      <point x="500" y="1370" type="move" name="U"/>
    </contour>
    <contour>
      <point x="500" y="-600" type="move" name="L"/>
    </contour>
  </outline>
</glyph>
<glyph name="LtnSmTCommaBlw" format="1">
  <advance width="705"/>
  <unicode hex="021B"/>
  <outline>
    <component base="LtnSmT"/>
    <component base="CombCommaBlw" xOffset="868"/>
    <contour>
      <point x="348" y="0" type="move" name="H"/>
    </contour>
    <contour>
      <point x="500" y="900" type="move" name="R"/>
    </contour>
    <contour>
      <point x="348" y="1320" type="move" name="U"/>
    </contour>
    <contour>
      <point x="348" y="-600" type="move" name="L"/>
    </contour>
  </outline>
</glyph>
<glyph name="LtnSmECedilla" format="1">
  <advance width="946"/>
  <unicode hex="0229"/>
  <outline>
    <component base="LtnSmE"/>
    <component base="CombCedilla" xOffset="1013"/>
    <contour>
      <point x="1020" y="900" type="move" name="R"/>
    </contour>
    <contour>
      <point x="510" y="1050" type="move" name="U"/>
    </contour>
    <contour>
      <point x="500" y="-600" type="move" name="L"/>
    </contour>
    <contour>
      <point x="558" y="0" type="move" name="O"/>
    </contour>
  </outline>
</glyph>
<glyph name="LtnSmYMacron" format="1">
  <advance width="1010"/>
  <unicode hex="0233"/>
  <outline>
    <component base="LtnSmY"/>
    <component base="CombMacron" xOffset="1055"/>
    <contour>
      <point x="1044" y="900" type="move" name="R"/>
    </contour>
    <contour>
      <point x="530" y="1410" type="move" name="U"/>
    </contour>
    <contour>
      <point x="770" y="-100" type="move" name="L"/>
    </contour>
  </outline>
</glyph>
<glyph name="LtnSmDotlessJ" format="1">
  <advance width="530"/>
  <unicode hex="0237"/>
  <outline>
    <component base="LtnSmJ.Dotless"/>
    <contour>
      <point x="281" y="1050" type="move" name="U"/>
    </contour>
    <contour>
      <point x="280" y="-600" type="move" name="L"/>
    </contour>
  </outline>
</glyph>
<glyph name="LtnSmOpnO" format="1">
  <advance width="925"/>
  <unicode hex="0254"/>
  <outline>
    <contour>
      <point x="845" y="485" type="curve" smooth="yes"/>
      <point x="845" y="782"/>
      <point x="659" y="960"/>
      <point x="465" y="960" type="curve" smooth="yes"/>
      <point x="342" y="960"/>
      <point x="236" y="926"/>
      <point x="74" y="754" type="curve"/>
      <point x="80" y="743"/>
      <point x="96" y="719"/>
      <point x="113" y="711" type="curve"/>
      <point x="250" y="809"/>
      <point x="317" y="825"/>
      <point x="393" y="825" type="curve" smooth="yes"/>
      <point x="553" y="825"/>
      <point x="695" y="682"/>
      <point x="695" y="455" type="curve" smooth="yes"/>
      <point x="695" y="205"/>
      <point x="590" y="75"/>
      <point x="440" y="75" type="curve" smooth="yes"/>
      <point x="336" y="75"/>
      <point x="236" y="170"/>
      <point x="236" y="262" type="curve" smooth="yes"/>
      <point x="236" y="319"/>
      <point x="252" y="344"/>
      <point x="289" y="379" type="curve"/>
      <point x="268" y="426" type="line"/>
      <point x="217" y="416"/>
      <point x="156" y="395"/>
      <point x="106" y="379" type="curve"/>
      <point x="78" y="350"/>
      <point x="66" y="311"/>
      <point x="66" y="268" type="curve" smooth="yes"/>
      <point x="66" y="94"/>
      <point x="209" y="-30"/>
      <point x="399" y="-30" type="curve" smooth="yes"/>
      <point x="647" y="-30"/>
      <point x="845" y="199"/>
    </contour>
    <contour>
      <point x="455" y="1050" type="move" name="U"/>
    </contour>
    <contour>
      <point x="432" y="-100" type="move" name="L"/>
    </contour>
    <contour>
      <point x="942" y="900" type="move" name="R"/>
    </contour>
    <contour>
      <point x="470" y="0" type="move" name="O"/>
    </contour>
    <contour>
      <point x="420" y="0" type="move" name="H"/>
    </contour>
  </outline>
</glyph>
<glyph name="LtnSmCapI" format="1">
  <advance width="570"/>
  <unicode hex="026A"/>
  <outline>
    <contour>
      <point x="500" y="0" type="line"/>
      <point x="500" y="43" type="line"/>
      <point x="403" y="61"/>
      <point x="360" y="88"/>
      <point x="360" y="104" type="curve" smooth="yes"/>
      <point x="360" y="826" type="line" smooth="yes"/>
      <point x="360" y="844"/>
      <point x="410" y="869"/>
      <point x="500" y="887" type="curve"/>
      <point x="500" y="930" type="line"/>
      <point x="70" y="930" type="line"/>
      <point x="70" y="887" type="line"/>
      <point x="167" y="869"/>
      <point x="210" y="842"/>
      <point x="210" y="826" type="curve" smooth="yes"/>
      <point x="210" y="104" type="line" smooth="yes"/>
      <point x="210" y="86"/>
      <point x="160" y="61"/>
      <point x="70" y="43" type="curve"/>
      <point x="70" y="0" type="line"/>
    </contour>
    <contour>
      <point x="285" y="1050" type="move" name="U"/>
    </contour>
    <contour>
      <point x="285" y="-100" type="move" name="L"/>
    </contour>
    <contour>
      <point x="570" y="900" type="move" name="R"/>
    </contour>
    <contour>
      <point x="335" y="0" type="move" name="O"/>
    </contour>
    <contour>
      <point x="285" y="0" type="move" name="H"/>
    </contour>
  </outline>
</glyph>
<glyph name="LtnSmLRetrHook" format="1">
  <advance width="556"/>
  <unicode hex="026D"/>
  <outline>
    <contour>
      <point x="758" y="-235" type="curve"/>
      <point x="739" y="-196" type="line"/>
      <point x="698" y="-190"/>
      <point x="565" y="-252"/>
      <point x="573" y="-264" type="curve" smooth="yes"/>
      <point x="608" y="-321"/>
      <point x="555" y="-405"/>
      <point x="477" y="-405" type="curve" smooth="yes"/>
      <point x="381" y="-405"/>
      <point x="350" y="-319"/>
      <point x="350" y="-166" type="curve" smooth="yes"/>
      <point x="350" y="1519" type="line"/>
      <point x="318" y="1550" type="line"/>
      <point x="249" y="1516"/>
      <point x="160" y="1486"/>
      <point x="60" y="1470" type="curve"/>
      <point x="60" y="1430" type="line"/>
      <point x="193" y="1420"/>
      <point x="200" y="1404"/>
      <point x="200" y="1258" type="curve" smooth="yes"/>
      <point x="200" y="-227" type="line" smooth="yes"/>
      <point x="200" y="-371"/>
      <point x="241" y="-500"/>
      <point x="403" y="-500" type="curve" smooth="yes"/>
      <point x="598" y="-500"/>
      <point x="766" y="-336"/>
    </contour>
    <contour>
      <point x="344" y="1690" type="move" name="U"/>
    </contour>
    <contour>
      <point x="409" y="-600" type="move" name="L"/>
    </contour>
  </outline>
</glyph>
<glyph name="ModUpTack" format="1">
  <advance width="560"/>
  <unicode hex="02D4"/>
  <outline>
    <contour>
      <point x="490" y="-117" type="curve"/>
      <point x="465" y="-90" type="line"/>
      <point x="99" y="-90" type="line"/>
      <point x="85" y="-117"/>
      <point x="78" y="-129"/>
      <point x="70" y="-156" type="curve"/>
      <point x="93" y="-180" type="line"/>
      <point x="463" y="-180" type="line"/>
      <point x="475" y="-158"/>
      <point x="483" y="-143"/>
    </contour>
    <contour>
      <point x="325" y="-129" type="curve"/>
      <point x="325" y="146" type="line"/>
      <point x="298" y="170" type="line"/>
      <point x="272" y="162"/>
      <point x="258" y="153"/>
      <point x="235" y="140" type="curve"/>
      <point x="235" y="-138" type="line"/>
      <point x="260" y="-160" type="line"/>
      <point x="286" y="-152"/>
      <point x="298" y="-145"/>
    </contour>
  </outline>
</glyph>
<glyph name="ModMinusSgn" format="1">
  <advance width="690"/>
  <unicode hex="02D7"/>
  <outline>
    <component base="HyphenMinus"/>
    <contour>
      <point x="345" y="1050" type="move" name="U"/>
    </contour>
  </outline>
</glyph>
<glyph name="ModVoicing" format="1">
  <advance width="633"/>
  <unicode hex="02EC"/>
  <outline>
    <contour>
      <point x="633" y="-173" type="line"/>
      <point x="617" y="-146"/>
      <point x="613" y="-138"/>
      <point x="590" y="-126" type="curve"/>
      <point x="320" y="-337" type="line"/>
      <point x="45" y="-126" type="line"/>
      <point x="23" y="-138"/>
      <point x="19" y="-146"/>
      <point x="0" y="-173" type="curve"/>
      <point x="264" y="-480" type="line"/>
      <point x="371" y="-480" type="line"/>
    </contour>
    <contour>
      <point x="320" y="-600" type="move" name="L"/>
    </contour>
  </outline>
</glyph>
<glyph name="ModLowUpArrwhd" format="1">
  <advance width="466"/>
  <unicode hex="02F0"/>
  <outline>
    <contour>
      <point x="255" y="-186" type="line"/>
      <point x="241" y="-192"/>
      <point x="219" y="-206"/>
      <point x="207" y="-217" type="curve"/>
      <point x="60" y="-529" type="line"/>
      <point x="68" y="-538" type="line"/>
      <point x="78" y="-534"/>
      <point x="107" y="-523"/>
      <point x="117" y="-514" type="curve"/>
      <point x="228" y="-274" type="line"/>
      <point x="358" y="-530" type="line"/>
      <point x="371" y="-539" type="line"/>
      <point x="387" y="-533"/>
      <point x="405" y="-523"/>
      <point x="416" y="-515" type="curve"/>
    </contour>
  </outline>
</glyph>
<glyph name="ModLowLftArrwhd" format="1">
  <advance width="518"/>
  <unicode hex="02F1"/>
  <outline>
    <contour>
      <point x="453" y="-211" type="curve"/>
      <point x="442" y="-200" type="line"/>
      <point x="68" y="-340" type="line"/>
      <point x="63" y="-352"/>
      <point x="57" y="-372"/>
      <point x="55" y="-384" type="curve"/>
      <point x="66" y="-394" type="line"/>
      <point x="441" y="-255" type="line"/>
      <point x="444" y="-244"/>
      <point x="451" y="-224"/>
    </contour>
    <contour>
      <point x="453" y="-496" type="curve"/>
      <point x="446" y="-480" type="line"/>
      <point x="68" y="-340" type="line"/>
      <point x="63" y="-352"/>
      <point x="57" y="-372"/>
      <point x="55" y="-384" type="curve"/>
      <point x="66" y="-394" type="line"/>
      <point x="416" y="-525" type="line"/>
      <point x="435" y="-514"/>
      <point x="441" y="-508"/>
    </contour>
  </outline>
</glyph>
<glyph name="ModLowRtArrwhd" format="1">
  <advance width="518"/>
  <unicode hex="02F2"/>
  <outline>
    <contour>
      <point x="468" y="-342" type="curve"/>
      <point x="458" y="-331" type="line"/>
      <point x="107" y="-200" type="line"/>
      <point x="96" y="-209"/>
      <point x="83" y="-218"/>
      <point x="70" y="-228" type="curve"/>
      <point x="77" y="-246" type="line"/>
      <point x="455" y="-386" type="line"/>
      <point x="460" y="-374"/>
      <point x="466" y="-355"/>
      <point x="468" y="-342" type="curve"/>
      <point x="458" y="-331" type="line"/>
      <point x="83" y="-471" type="line"/>
      <point x="79" y="-481"/>
      <point x="74" y="-503"/>
      <point x="70" y="-514" type="curve"/>
      <point x="81" y="-525" type="line"/>
      <point x="455" y="-386" type="line"/>
      <point x="460" y="-374"/>
      <point x="466" y="-355"/>
    </contour>
  </outline>
</glyph>
<glyph name="ModLowRing" format="1">
  <advance width="372"/>
  <unicode hex="02F3"/>
  <outline>
    <contour>
      <point x="372" y="-266" type="curve" smooth="yes"/>
      <point x="372" y="-182"/>
      <point x="303" y="-110"/>
      <point x="217" y="-110" type="curve" smooth="yes"/>
      <point x="114" y="-110"/>
      <point x="0" y="-209"/>
      <point x="0" y="-346" type="curve" smooth="yes"/>
      <point x="0" y="-430"/>
      <point x="65" y="-500"/>
      <point x="155" y="-500" type="curve" smooth="yes"/>
      <point x="256" y="-500"/>
      <point x="372" y="-401"/>
    </contour>
    <contour>
      <point x="282" y="-307" type="curve" smooth="yes"/>
      <point x="282" y="-383"/>
      <point x="229" y="-424"/>
      <point x="176" y="-424" type="curve" smooth="yes"/>
      <point x="123" y="-424"/>
      <point x="90" y="-366"/>
      <point x="90" y="-305" type="curve" smooth="yes"/>
      <point x="90" y="-233"/>
      <point x="141" y="-186"/>
      <point x="196" y="-186" type="curve" smooth="yes"/>
      <point x="249" y="-186"/>
      <point x="282" y="-243"/>
    </contour>
  </outline>
</glyph>
<glyph name="ModLowRing" format="1">
  <advance width="372"/>
  <unicode hex="02F3"/>
  <outline>
    <contour>
      <point x="372" y="-266" type="curve" smooth="yes"/>
      <point x="372" y="-182"/>
      <point x="303" y="-110"/>
      <point x="217" y="-110" type="curve" smooth="yes"/>
      <point x="114" y="-110"/>
      <point x="0" y="-209"/>
      <point x="0" y="-346" type="curve" smooth="yes"/>
      <point x="0" y="-430"/>
      <point x="65" y="-500"/>
      <point x="155" y="-500" type="curve" smooth="yes"/>
      <point x="256" y="-500"/>
      <point x="372" y="-401"/>
    </contour>
    <contour>
      <point x="282" y="-307" type="curve" smooth="yes"/>
      <point x="282" y="-383"/>
      <point x="229" y="-424"/>
      <point x="176" y="-424" type="curve" smooth="yes"/>
      <point x="123" y="-424"/>
      <point x="90" y="-366"/>
      <point x="90" y="-305" type="curve" smooth="yes"/>
      <point x="90" y="-233"/>
      <point x="141" y="-186"/>
      <point x="196" y="-186" type="curve" smooth="yes"/>
      <point x="249" y="-186"/>
      <point x="282" y="-243"/>
    </contour>
  </outline>
</glyph>
<glyph name="ModOpnShelf" format="1">
  <advance width="1164"/>
  <unicode hex="02FE"/>
  <outline>
    <contour>
      <point x="1115" y="-269" type="curve"/>
      <point x="1090" y="-247" type="line"/>
      <point x="170" y="-247" type="line"/>
      <point x="170" y="-59" type="line"/>
      <point x="144" y="-34" type="line"/>
      <point x="117" y="-40"/>
      <point x="72" y="-55"/>
      <point x="50" y="-65" type="curve"/>
      <point x="50" y="-336" type="line"/>
      <point x="75" y="-358" type="line"/>
      <point x="1084" y="-358" type="line"/>
      <point x="1094" y="-338"/>
      <point x="1107" y="-298"/>
    </contour>
  </outline>
</glyph>
<glyph name="CombGrave" format="1">
  <advance width="0"/>
  <unicode hex="0300"/>
  <outline>
    <contour>
      <point x="-319" y="1078" type="curve"/>
      <point x="-559" y="1489" type="line"/>
      <point x="-592" y="1487"/>
      <point x="-679" y="1472"/>
      <point x="-705" y="1465" type="curve"/>
      <point x="-727" y="1424" type="line"/>
      <point x="-375" y="1047" type="line"/>
      <point x="-352" y="1054"/>
      <point x="-336" y="1062"/>
    </contour>
    <contour>
      <point x="-433" y="1410" type="move" name="U"/>
    </contour>
    <contour>
      <point x="-433" y="1050" type="move" name="_U"/>
    </contour>
  </outline>
</glyph>
<glyph name="CombCircum" format="1">
  <advance width="0"/>
  <unicode hex="0302"/>
  <outline>
    <contour>
      <point x="-198" y="1092" type="curve"/>
      <point x="-460" y="1471" type="line"/>
      <point x="-567" y="1471" type="line"/>
      <point x="-831" y="1092" type="line"/>
      <point x="-812" y="1067"/>
      <point x="-808" y="1057"/>
      <point x="-786" y="1047" type="curve"/>
      <point x="-515" y="1315" type="line"/>
      <point x="-241" y="1047" type="line"/>
      <point x="-218" y="1057"/>
      <point x="-214" y="1067"/>
    </contour>
    <contour>
      <point x="-514" y="1500" type="move" name="U"/>
    </contour>
    <contour>
      <point x="-514" y="1050" type="move" name="_U"/>
    </contour>
  </outline>
</glyph>
<glyph name="CombTilde" format="1">
  <advance width="0"/>
  <unicode hex="0303"/>
  <outline>
    <contour>
      <point x="-174" y="1346" type="curve"/>
      <point x="-228" y="1369" type="line"/>
      <point x="-273" y="1291"/>
      <point x="-322" y="1246"/>
      <point x="-373" y="1246" type="curve" smooth="yes"/>
      <point x="-437" y="1246"/>
      <point x="-516" y="1359"/>
      <point x="-617" y="1359" type="curve" smooth="yes"/>
      <point x="-721" y="1359"/>
      <point x="-809" y="1242"/>
      <point x="-856" y="1133" type="curve"/>
      <point x="-803" y="1113" type="line"/>
      <point x="-754" y="1187"/>
      <point x="-713" y="1234"/>
      <point x="-660" y="1234" type="curve" smooth="yes"/>
      <point x="-582" y="1234"/>
      <point x="-506" y="1121"/>
      <point x="-414" y="1121" type="curve" smooth="yes"/>
      <point x="-310" y="1121"/>
      <point x="-221" y="1238"/>
    </contour>
    <contour>
      <point x="-515" y="1410" type="move" name="U"/>
    </contour>
    <contour>
      <point x="-515" y="1050" type="move" name="_U"/>
    </contour>
  </outline>
</glyph>
<glyph name="CombOverline" format="1">
  <advance width="0"/>
  <unicode hex="0305"/>
  <outline>
    <contour>
      <point x="64" y="1281" type="curve"/>
      <point x="42" y="1305" type="line"/>
      <point x="-987" y="1305" type="line"/>
      <point x="-1000" y="1279"/>
      <point x="-1022" y="1229"/>
      <point x="-1028" y="1200" type="curve"/>
      <point x="-1006" y="1175" type="line"/>
      <point x="25" y="1175" type="line"/>
      <point x="35" y="1200"/>
      <point x="58" y="1252"/>
    </contour>
    <contour>
      <point x="-482" y="1410" type="move" name="U"/>
    </contour>
    <contour>
      <point x="-482" y="1050" type="move" name="_U"/>
    </contour>
  </outline>
</glyph>
<glyph name="CombCaron" format="1">
  <advance width="0"/>
  <unicode hex="030C"/>
  <outline>
    <contour>
      <point x="-198" y="1428" type="line"/>
      <point x="-214" y="1455"/>
      <point x="-218" y="1463"/>
      <point x="-241" y="1475" type="curve"/>
      <point x="-511" y="1224" type="line"/>
      <point x="-786" y="1475" type="line"/>
      <point x="-808" y="1463"/>
      <point x="-812" y="1455"/>
      <point x="-831" y="1428" type="curve"/>
      <point x="-567" y="1071" type="line"/>
      <point x="-460" y="1071" type="line"/>
    </contour>
    <contour>
      <point x="-514" y="1450" type="move" name="U"/>
    </contour>
    <contour>
      <point x="-514" y="1050" type="move" name="_U"/>
    </contour>
  </outline>
</glyph>
<glyph name="CombDblVertLineAbv" format="1">
  <advance width="0"/>
  <unicode hex="030E"/>
  <outline>
    <contour>
      <point x="-600" y="1091" type="curve"/>
      <point x="-600" y="1456" type="line"/>
      <point x="-627" y="1480" type="line"/>
      <point x="-653" y="1474"/>
      <point x="-687" y="1460"/>
      <point x="-710" y="1450" type="curve"/>
      <point x="-710" y="1082" type="line"/>
      <point x="-685" y="1060" type="line"/>
      <point x="-659" y="1066"/>
      <point x="-627" y="1078"/>
    </contour>
    <contour>
      <point x="-340" y="1091" type="curve"/>
      <point x="-340" y="1456" type="line"/>
      <point x="-367" y="1480" type="line"/>
      <point x="-393" y="1474"/>
      <point x="-427" y="1460"/>
      <point x="-450" y="1450" type="curve"/>
      <point x="-450" y="1082" type="line"/>
      <point x="-425" y="1060" type="line"/>
      <point x="-399" y="1066"/>
      <point x="-367" y="1078"/>
    </contour>
    <contour>
      <point x="-525" y="1370" type="move" name="U"/>
    </contour>
    <contour>
      <point x="-525" y="1050" type="move" name="_U"/>
    </contour>
  </outline>
</glyph>
<glyph name="CombRtTackBlw" format="1">
  <advance width="0"/>
  <unicode hex="0319"/>
  <outline>
    <contour>
      <point x="-344" y="-282" type="curve"/>
      <point x="-369" y="-255" type="line"/>
      <point x="-620" y="-255" type="line"/>
      <point x="-634" y="-282"/>
      <point x="-641" y="-294"/>
      <point x="-649" y="-321" type="curve"/>
      <point x="-626" y="-345" type="line"/>
      <point x="-371" y="-345" type="line"/>
      <point x="-359" y="-323"/>
      <point x="-351" y="-308"/>
    </contour>
    <contour>
      <point x="-595" y="-469" type="curve"/>
      <point x="-595" y="-124" type="line"/>
      <point x="-622" y="-100" type="line"/>
      <point x="-648" y="-108"/>
      <point x="-662" y="-117"/>
      <point x="-685" y="-130" type="curve"/>
      <point x="-685" y="-478" type="line"/>
      <point x="-660" y="-500" type="line"/>
      <point x="-634" y="-492"/>
      <point x="-622" y="-485"/>
    </contour>
    <contour>
      <point x="-514" y="-600" type="move" name="L"/>
    </contour>
    <contour>
      <point x="-514" y="-100" type="move" name="_L"/>
    </contour>
  </outline>
</glyph>
<glyph name="CombLftHalfRingBlw" format="1">
  <advance width="0"/>
  <unicode hex="031C"/>
  <outline>
    <contour>
      <point x="-423" y="-418" type="line"/>
      <point x="-519" y="-424"/>
      <point x="-568" y="-377"/>
      <point x="-568" y="-305" type="curve" smooth="yes"/>
      <point x="-568" y="-234"/>
      <point x="-516" y="-185"/>
      <point x="-429" y="-192" type="curve"/>
      <point x="-423" y="-108" type="line"/>
      <point x="-549" y="-97"/>
      <point x="-650" y="-187"/>
      <point x="-650" y="-305" type="curve" smooth="yes"/>
      <point x="-650" y="-421"/>
      <point x="-554" y="-513"/>
      <point x="-427" y="-498" type="curve"/>
    </contour>
    <contour>
      <point x="-515" y="-600" type="move" name="L"/>
    </contour>
    <contour>
      <point x="-515" y="-100" type="move" name="_L"/>
    </contour>
  </outline>
</glyph>
<glyph name="CombMinusSgnBlw" format="1">
  <advance width="0"/>
  <unicode hex="0320"/>
  <outline>
    <contour>
      <point x="-285" y="-282" type="curve"/>
      <point x="-310" y="-255" type="line"/>
      <point x="-716" y="-255" type="line"/>
      <point x="-730" y="-282"/>
      <point x="-737" y="-294"/>
      <point x="-745" y="-321" type="curve"/>
      <point x="-722" y="-345" type="line"/>
      <point x="-312" y="-345" type="line"/>
      <point x="-300" y="-323"/>
      <point x="-292" y="-308"/>
    </contour>
    <contour>
      <point x="-515" y="-600" type="move" name="L"/>
    </contour>
    <contour>
      <point x="-515" y="-100" type="move" name="_L"/>
    </contour>
  </outline>
</glyph>
<glyph name="CombDotBlw" format="1">
  <advance width="0"/>
  <unicode hex="0323"/>
  <outline>
    <contour>
      <point x="-415" y="-279" type="curve"/>
      <point x="-415" y="-217"/>
      <point x="-443" y="-184"/>
      <point x="-500" y="-184" type="curve" smooth="yes"/>
      <point x="-563" y="-184"/>
      <point x="-615" y="-244"/>
      <point x="-615" y="-320" type="curve" smooth="yes"/>
      <point x="-615" y="-381"/>
      <point x="-590" y="-416"/>
      <point x="-531" y="-416" type="curve" smooth="yes"/>
      <point x="-465" y="-416"/>
      <point x="-415" y="-354"/>
    </contour>
    <contour>
      <point x="-515" y="-600" type="move" name="L"/>
    </contour>
    <contour>
      <point x="-515" y="-100" type="move" name="_L"/>
    </contour>
  </outline>
</glyph>
<glyph name="CombOgonek" format="1">
  <advance width="0"/>
  <unicode hex="0328"/>
  <outline>
    <contour>
      <point x="-325" y="-299" type="curve"/>
      <point x="-349" y="-262" type="line"/>
      <point x="-405" y="-313"/>
      <point x="-456" y="-336"/>
      <point x="-489" y="-336" type="curve" smooth="yes"/>
      <point x="-540" y="-336"/>
      <point x="-575" y="-313"/>
      <point x="-575" y="-264" type="curve" smooth="yes"/>
      <point x="-575" y="-201"/>
      <point x="-543" y="-94"/>
      <point x="-351" y="24" type="curve"/>
      <point x="-396" y="43" type="line"/>
      <point x="-596" y="-65"/>
      <point x="-704" y="-180"/>
      <point x="-704" y="-299" type="curve" smooth="yes"/>
      <point x="-704" y="-418"/>
      <point x="-626" y="-444"/>
      <point x="-548" y="-444" type="curve" smooth="yes"/>
      <point x="-482" y="-444"/>
      <point x="-382" y="-371"/>
    </contour>
    <contour>
      <point x="-514" y="-600" type="move" name="L"/>
    </contour>
    <contour>
      <point x="-464" y="0" type="move" name="_O"/>
    </contour>
  </outline>
</glyph>
<glyph name="CombCaronBlw" format="1">
  <advance width="0"/>
  <unicode hex="032C"/>
  <outline>
    <contour>
      <point x="-198" y="-173" type="line"/>
      <point x="-214" y="-146"/>
      <point x="-218" y="-138"/>
      <point x="-241" y="-126" type="curve"/>
      <point x="-511" y="-337" type="line"/>
      <point x="-786" y="-126" type="line"/>
      <point x="-808" y="-138"/>
      <point x="-812" y="-146"/>
      <point x="-831" y="-173" type="curve"/>
      <point x="-567" y="-480" type="line"/>
      <point x="-460" y="-480" type="line"/>
    </contour>
    <contour>
      <point x="-514" y="-600" type="move" name="L"/>
    </contour>
    <contour>
      <point x="-514" y="-100" type="move" name="_L"/>
    </contour>
  </outline>
</glyph>
<glyph name="CombMacronBlw" format="1">
  <advance width="0"/>
  <unicode hex="0331"/>
  <outline>
    <contour>
      <point x="-177" y="-229" type="curve"/>
      <point x="-199" y="-205" type="line"/>
      <point x="-812" y="-205" type="line"/>
      <point x="-825" y="-231"/>
      <point x="-847" y="-281"/>
      <point x="-853" y="-310" type="curve"/>
      <point x="-831" y="-335" type="line"/>
      <point x="-216" y="-335" type="line"/>
      <point x="-206" y="-310"/>
      <point x="-183" y="-258"/>
    </contour>
    <contour>
      <point x="-515" y="-600" type="move" name="L"/>
    </contour>
    <contour>
      <point x="-515" y="-100" type="move" name="_L"/>
    </contour>
  </outline>
</glyph>
<glyph name="CombDblVertLineBlw" format="1">
  <advance width="0"/>
  <unicode hex="0348"/>
  <outline>
    <contour>
      <point x="-600" y="-469" type="curve"/>
      <point x="-600" y="-134" type="line"/>
      <point x="-627" y="-110" type="line"/>
      <point x="-653" y="-116"/>
      <point x="-687" y="-130"/>
      <point x="-710" y="-140" type="curve"/>
      <point x="-710" y="-478" type="line"/>
      <point x="-685" y="-500" type="line"/>
      <point x="-659" y="-494"/>
      <point x="-627" y="-482"/>
    </contour>
    <contour>
      <point x="-340" y="-469" type="curve"/>
      <point x="-340" y="-134" type="line"/>
      <point x="-367" y="-110" type="line"/>
      <point x="-393" y="-116"/>
      <point x="-427" y="-130"/>
      <point x="-450" y="-140" type="curve"/>
      <point x="-450" y="-478" type="line"/>
      <point x="-425" y="-500" type="line"/>
      <point x="-399" y="-494"/>
      <point x="-367" y="-482"/>
    </contour>
    <contour>
      <point x="-525" y="-600" type="move" name="L"/>
    </contour>
    <contour>
      <point x="-525" y="-100" type="move" name="_L"/>
    </contour>
  </outline>
</glyph>
<glyph name="CombLftAngBlw" format="1">
  <advance width="0"/>
  <unicode hex="0349"/>
  <outline>
    <contour>
      <point x="-362" y="-197" type="curve"/>
      <point x="-387" y="-170" type="line"/>
      <point x="-676" y="-170" type="line"/>
      <point x="-690" y="-197"/>
      <point x="-697" y="-209"/>
      <point x="-705" y="-236" type="curve"/>
      <point x="-682" y="-260" type="line"/>
      <point x="-389" y="-260" type="line"/>
      <point x="-377" y="-238"/>
      <point x="-369" y="-223"/>
    </contour>
    <contour>
      <point x="-360" y="-459" type="curve"/>
      <point x="-360" y="-194" type="line"/>
      <point x="-387" y="-170" type="line"/>
      <point x="-413" y="-178"/>
      <point x="-427" y="-187"/>
      <point x="-450" y="-200" type="curve"/>
      <point x="-450" y="-468" type="line"/>
      <point x="-425" y="-490" type="line"/>
      <point x="-399" y="-482"/>
      <point x="-387" y="-475"/>
    </contour>
    <contour>
      <point x="-532" y="-600" type="move" name="L"/>
    </contour>
    <contour>
      <point x="-532" y="-100" type="move" name="_L"/>
    </contour>
  </outline>
</glyph>
<glyph name="CombRtArrwhdAbv" format="1">
  <advance width="0"/>
  <unicode hex="0350"/>
  <outline>
    <contour>
      <point x="-208" y="1309" type="curve"/>
      <point x="-226" y="1329" type="line"/>
      <point x="-762" y="1529" type="line"/>
      <point x="-781" y="1513"/>
      <point x="-805" y="1496"/>
      <point x="-829" y="1477" type="curve"/>
      <point x="-816" y="1445" type="line"/>
      <point x="-233" y="1229" type="line"/>
      <point x="-223" y="1250"/>
      <point x="-213" y="1286"/>
    </contour>
    <contour>
      <point x="-208" y="1309" type="curve"/>
      <point x="-226" y="1329" type="line"/>
      <point x="-805" y="1113" type="line"/>
      <point x="-813" y="1094"/>
      <point x="-822" y="1055"/>
      <point x="-829" y="1034" type="curve"/>
      <point x="-809" y="1014" type="line"/>
      <point x="-233" y="1229" type="line"/>
      <point x="-223" y="1250"/>
      <point x="-213" y="1286"/>
    </contour>
    <contour>
      <point x="-518" y="1450" type="move" name="U"/>
    </contour>
    <contour>
      <point x="-518" y="1050" type="move" name="_U"/>
    </contour>
  </outline>
</glyph>
<glyph name="CombLftArrwhdBlw" format="1">
  <advance width="0"/>
  <unicode hex="0354"/>
  <outline>
    <contour>
      <point x="-223" y="-141" type="curve"/>
      <point x="-243" y="-121" type="line"/>
      <point x="-820" y="-337" type="line"/>
      <point x="-829" y="-359"/>
      <point x="-839" y="-395"/>
      <point x="-844" y="-417" type="curve"/>
      <point x="-824" y="-436" type="line"/>
      <point x="-246" y="-221" type="line"/>
      <point x="-240" y="-201"/>
      <point x="-228" y="-164"/>
    </contour>
    <contour>
      <point x="-223" y="-583" type="curve"/>
      <point x="-236" y="-554" type="line"/>
      <point x="-820" y="-337" type="line"/>
      <point x="-829" y="-359"/>
      <point x="-839" y="-395"/>
      <point x="-844" y="-417" type="curve"/>
      <point x="-824" y="-436" type="line"/>
      <point x="-290" y="-636" type="line"/>
      <point x="-257" y="-616"/>
      <point x="-246" y="-605"/>
    </contour>
    <contour>
      <point x="-524" y="-600" type="move" name="L"/>
    </contour>
    <contour>
      <point x="-524" y="-100" type="move" name="_L"/>
    </contour>
  </outline>
</glyph>
<glyph name="CombRtHalfRingAbv" format="1">
  <advance width="0"/>
  <unicode hex="0357"/>
  <outline>
    <contour>
      <point x="-579" y="1367" type="line"/>
      <point x="-483" y="1373"/>
      <point x="-434" y="1326"/>
      <point x="-434" y="1254" type="curve" smooth="yes"/>
      <point x="-434" y="1183"/>
      <point x="-486" y="1134"/>
      <point x="-573" y="1141" type="curve"/>
      <point x="-579" y="1057" type="line"/>
      <point x="-453" y="1046"/>
      <point x="-352" y="1136"/>
      <point x="-352" y="1254" type="curve" smooth="yes"/>
      <point x="-352" y="1370"/>
      <point x="-448" y="1462"/>
      <point x="-575" y="1447" type="curve"/>
    </contour>
    <contour>
      <point x="-515" y="1490" type="move" name="U"/>
    </contour>
    <contour>
      <point x="-515" y="1050" type="move" name="_U"/>
    </contour>
  </outline>
</glyph>
<glyph name="CombRtDotAbv" format="1">
  <advance width="200"/>
  <unicode hex="0358"/>
  <outline>
    <contour>
      <point x="200" y="1261" type="curve" smooth="yes"/>
      <point x="200" y="1323"/>
      <point x="172" y="1356"/>
      <point x="115" y="1356" type="curve" smooth="yes"/>
      <point x="52" y="1356"/>
      <point x="0" y="1296"/>
      <point x="0" y="1220" type="curve" smooth="yes"/>
      <point x="0" y="1159"/>
      <point x="25" y="1124"/>
      <point x="84" y="1124" type="curve" smooth="yes"/>
      <point x="150" y="1124"/>
      <point x="200" y="1186"/>
    </contour>
    <contour>
      <point x="102" y="1370" type="move" name="U"/>
    </contour>
    <contour>
      <point x="0" y="900" type="move" name="_R"/>
    </contour>
  </outline>
</glyph>
<glyph name="CombZigZagAbv" format="1">
  <advance width="0"/>
  <unicode hex="035B"/>
  <outline>
    <contour>
      <point x="-642" y="1329" type="line"/>
      <point x="-670" y="1230" type="line"/>
      <point x="-390" y="1230" type="line"/>
      <point x="-362" y="1329" type="line"/>
    </contour>
    <contour>
      <point x="-526" y="1512" type="line"/>
      <point x="-545" y="1512"/>
      <point x="-591" y="1505"/>
      <point x="-610" y="1501" type="curve"/>
      <point x="-684" y="1245" type="line"/>
      <point x="-670" y="1230" type="line"/>
      <point x="-651" y="1229"/>
      <point x="-607" y="1232"/>
      <point x="-588" y="1234" type="curve"/>
      <point x="-515" y="1495" type="line"/>
    </contour>
    <contour>
      <point x="-518" y="1064" type="line"/>
      <point x="-503" y="1047" type="line"/>
      <point x="-486" y="1047"/>
      <point x="-440" y="1055"/>
      <point x="-421" y="1058" type="curve"/>
      <point x="-349" y="1314" type="line"/>
      <point x="-362" y="1329" type="line"/>
      <point x="-444" y="1325" type="line"/>
    </contour>
    <contour>
      <point x="-512" y="1556" type="move" name="U"/>
    </contour>
    <contour>
      <point x="-515" y="1050" type="move" name="_U"/>
    </contour>
  </outline>
</glyph>
<glyph name="CombLtnSmI" format="1">
  <advance width="0"/>
  <unicode hex="0365"/>
  <outline>
    <contour>
      <point x="-429" y="1620" type="curve" smooth="yes"/>
      <point x="-429" y="1651"/>
      <point x="-445" y="1676"/>
      <point x="-481" y="1676" type="curve" smooth="yes"/>
      <point x="-520" y="1676"/>
      <point x="-551" y="1642"/>
      <point x="-551" y="1603" type="curve" smooth="yes"/>
      <point x="-551" y="1573"/>
      <point x="-533" y="1552"/>
      <point x="-496" y="1552" type="curve" smooth="yes"/>
      <point x="-458" y="1552"/>
      <point x="-429" y="1585"/>
    </contour>
    <contour>
      <point x="-378" y="1069" type="line"/>
      <point x="-378" y="1101" type="line"/>
      <point x="-424" y="1106"/>
      <point x="-444" y="1118"/>
      <point x="-444" y="1123" type="curve" smooth="yes"/>
      <point x="-444" y="1500" type="line"/>
      <point x="-482" y="1500" type="line"/>
      <point x="-516" y="1485"/>
      <point x="-570" y="1470"/>
      <point x="-614" y="1462" type="curve"/>
      <point x="-614" y="1431" type="line"/>
      <point x="-548" y="1426"/>
      <point x="-548" y="1418"/>
      <point x="-548" y="1366" type="curve" smooth="yes"/>
      <point x="-548" y="1123" type="line" smooth="yes"/>
      <point x="-548" y="1118"/>
      <point x="-572" y="1107"/>
      <point x="-614" y="1101" type="curve"/>
      <point x="-614" y="1069" type="line"/>
    </contour>
    <contour>
      <point x="-495" y="1750" type="move" name="U"/>
    </contour>
    <contour>
      <point x="-495" y="1050" type="move" name="_U"/>
    </contour>
  </outline>
</glyph>
<glyph name="GrTonos" format="1">
  <advance width="461"/>
  <unicode hex="0384"/>
  <outline>
    <contour>
      <point x="421" y="1506" type="line"/>
      <point x="390" y="1541" type="line"/>
      <point x="339" y="1529"/>
      <point x="259" y="1508"/>
      <point x="216" y="1492" type="curve"/>
      <point x="40" y="1117" type="line"/>
      <point x="63" y="1097"/>
      <point x="71" y="1089"/>
      <point x="93" y="1084" type="curve"/>
    </contour>
    <contour>
      <point x="130" y="1050" type="move" name="_U"/>
    </contour>
  </outline>
</glyph>
<glyph name="GrArchaicKoppa" format="1">
  <advance width="1100"/>
  <unicode hex="03D8"/>
  <outline>
    <contour>
      <point x="767" y="0" type="line"/>
      <point x="767" y="43" type="line"/>
      <point x="671" y="61"/>
      <point x="622" y="88"/>
      <point x="622" y="104" type="curve" smooth="yes"/>
      <point x="622" y="355" type="line" smooth="yes"/>
      <point x="622" y="433"/>
      <point x="462" y="434"/>
      <point x="462" y="355" type="curve" smooth="yes"/>
      <point x="462" y="104" type="line" smooth="yes"/>
      <point x="462" y="86"/>
      <point x="407" y="61"/>
      <point x="317" y="43" type="curve"/>
      <point x="317" y="0" type="line"/>
    </contour>
    <contour>
      <point x="1010" y="825" type="curve" smooth="yes"/>
      <point x="1010" y="1098"/>
      <point x="804" y="1290"/>
      <point x="560" y="1290" type="curve" smooth="yes"/>
      <point x="297" y="1290"/>
      <point x="70" y="1049"/>
      <point x="70" y="784" type="curve" smooth="yes"/>
      <point x="70" y="512"/>
      <point x="280" y="320"/>
      <point x="521" y="320" type="curve" smooth="yes"/>
      <point x="777" y="320"/>
      <point x="1010" y="559"/>
    </contour>
    <contour>
      <point x="855" y="795" type="curve" smooth="yes"/>
      <point x="855" y="567"/>
      <point x="728" y="430"/>
      <point x="549" y="430" type="curve" smooth="yes"/>
      <point x="370" y="430"/>
      <point x="225" y="602"/>
      <point x="225" y="813" type="curve" smooth="yes"/>
      <point x="225" y="1026"/>
      <point x="337" y="1180"/>
      <point x="541" y="1180" type="curve" smooth="yes"/>
      <point x="718" y="1180"/>
      <point x="855" y="1006"/>
    </contour>
    <contour>
      <point x="542" y="1370" type="move" name="U"/>
    </contour>
    <contour>
      <point x="542" y="-100" type="move" name="L"/>
    </contour>
    <contour>
      <point x="1077" y="1250" type="move" name="R"/>
    </contour>
    <contour>
      <point x="603" y="0" type="move" name="O"/>
    </contour>
  </outline>
</glyph>
<glyph name="CyCapGje" format="1">
  <advance width="973"/>
  <unicode hex="0403"/>
  <outline>
    <component base="CyCapGhe"/>
    <component base="CombAcute.LP" xOffset="1031" yOffset="320"/>
    <contour>
      <point x="488" y="1690" type="move" name="U"/>
    </contour>
    <contour>
      <point x="488" y="-100" type="move" name="L"/>
    </contour>
  </outline>
</glyph>
<glyph name="CyCapZhe" format="1">
  <advance width="1760"/>
  <unicode hex="0416"/>
  <outline>
    <contour>
      <point x="1083" y="0" type="line"/>
      <point x="1083" y="43" type="line"/>
      <point x="986" y="61"/>
      <point x="943" y="88"/>
      <point x="943" y="104" type="curve" smooth="yes"/>
      <point x="943" y="1155" type="line" smooth="yes"/>
      <point x="943" y="1174"/>
      <point x="993" y="1198"/>
      <point x="1083" y="1217" type="curve"/>
      <point x="1083" y="1260" type="line"/>
      <point x="653" y="1260" type="line"/>
      <point x="653" y="1217" type="line"/>
      <point x="749" y="1198"/>
      <point x="793" y="1171"/>
      <point x="793" y="1155" type="curve" smooth="yes"/>
      <point x="793" y="104" type="line" smooth="yes"/>
      <point x="793" y="86"/>
      <point x="743" y="61"/>
      <point x="653" y="43" type="curve"/>
      <point x="653" y="0" type="line"/>
    </contour>
    <contour>
      <point x="1620" y="955" type="line"/>
      <point x="1665" y="1098"/>
      <point x="1698" y="1235"/>
      <point x="1673" y="1245" type="curve" smooth="yes"/>
      <point x="1630" y="1262"/>
      <point x="1565" y="1276"/>
      <point x="1526" y="1276" type="curve" smooth="yes"/>
      <point x="1394" y="1276"/>
      <point x="1329" y="1241"/>
      <point x="1238" y="953" type="curve" smooth="yes"/>
      <point x="1160" y="708"/>
      <point x="1134" y="704"/>
      <point x="1076" y="704" type="curve" smooth="yes"/>
      <point x="1027" y="704"/>
      <point x="889" y="705"/>
      <point x="889" y="705" type="curve"/>
      <point x="885" y="615" type="line"/>
      <point x="885" y="615"/>
      <point x="1025" y="614"/>
      <point x="1093" y="615" type="curve" smooth="yes"/>
      <point x="1219" y="617"/>
      <point x="1269" y="688"/>
      <point x="1329" y="895" type="curve" smooth="yes"/>
      <point x="1385" y="1089"/>
      <point x="1429" y="1127"/>
      <point x="1474" y="1127" type="curve" smooth="yes"/>
      <point x="1515" y="1127"/>
      <point x="1539" y="1098"/>
      <point x="1565" y="955" type="curve"/>
    </contour>
    <contour>
      <point x="173" y="955" type="line"/>
      <point x="199" y="1098"/>
      <point x="223" y="1127"/>
      <point x="264" y="1127" type="curve" smooth="yes"/>
      <point x="309" y="1127"/>
      <point x="353" y="1089"/>
      <point x="409" y="895" type="curve" smooth="yes"/>
      <point x="469" y="688"/>
      <point x="519" y="617"/>
      <point x="645" y="615" type="curve" smooth="yes"/>
      <point x="713" y="614"/>
      <point x="853" y="615"/>
      <point x="853" y="615" type="curve"/>
      <point x="849" y="705" type="line"/>
      <point x="849" y="705"/>
      <point x="711" y="704"/>
      <point x="662" y="704" type="curve" smooth="yes"/>
      <point x="604" y="704"/>
      <point x="578" y="708"/>
      <point x="500" y="953" type="curve" smooth="yes"/>
      <point x="409" y="1241"/>
      <point x="344" y="1276"/>
      <point x="212" y="1276" type="curve" smooth="yes"/>
      <point x="173" y="1276"/>
      <point x="108" y="1262"/>
      <point x="65" y="1245" type="curve" smooth="yes"/>
      <point x="40" y="1235"/>
      <point x="73" y="1098"/>
      <point x="118" y="955" type="curve"/>
    </contour>
    <contour>
      <point x="1740" y="37" type="curve"/>
      <point x="1729" y="80" type="line"/>
      <point x="1639" y="72"/>
      <point x="1609" y="81"/>
      <point x="1569" y="139" type="curve"/>
      <point x="1207" y="725" type="line"/>
      <point x="1119" y="632" type="line"/>
      <point x="1418" y="41" type="line"/>
      <point x="1436" y="11"/>
      <point x="1478" y="-14"/>
      <point x="1516" y="-14" type="curve" smooth="yes"/>
      <point x="1568" y="-14"/>
      <point x="1652" y="8"/>
    </contour>
    <contour>
      <point x="0" y="37" type="line"/>
      <point x="88" y="8"/>
      <point x="172" y="-14"/>
      <point x="224" y="-14" type="curve" smooth="yes"/>
      <point x="262" y="-14"/>
      <point x="304" y="11"/>
      <point x="322" y="41" type="curve"/>
      <point x="621" y="632" type="line"/>
      <point x="533" y="725" type="line"/>
      <point x="171" y="139" type="line"/>
      <point x="131" y="81"/>
      <point x="101" y="72"/>
      <point x="11" y="80" type="curve"/>
    </contour>
    <contour>
      <point x="868" y="1370" type="move" name="U"/>
    </contour>
    <contour>
      <point x="868" y="-100" type="move" name="L"/>
    </contour>
  </outline>
</glyph>
<glyph name="CySmBe" format="1">
  <advance width="1027"/>
  <unicode hex="0431"/>
  <outline>
    <contour>
      <point x="639" y="1230" type="curve" smooth="yes"/>
      <point x="846" y="1245"/>
      <point x="866" y="1322"/>
      <point x="914" y="1495" type="curve"/>
      <point x="903" y="1502"/>
      <point x="888" y="1510"/>
      <point x="875" y="1515" type="curve"/>
      <point x="846" y="1461"/>
      <point x="810" y="1406"/>
      <point x="624" y="1388" type="curve" smooth="yes"/>
      <point x="323" y="1358"/>
      <point x="100" y="1061"/>
      <point x="100" y="577" type="curve" smooth="yes"/>
      <point x="100" y="231"/>
      <point x="241" y="-29"/>
      <point x="500" y="-30" type="curve" smooth="yes"/>
      <point x="763" y="-31"/>
      <point x="947" y="230"/>
      <point x="947" y="497" type="curve" smooth="yes"/>
      <point x="947" y="742"/>
      <point x="821" y="946"/>
      <point x="571" y="946" type="curve" smooth="yes"/>
      <point x="485" y="946"/>
      <point x="364" y="906"/>
      <point x="233" y="752" type="curve"/>
      <point x="248" y="1041"/>
      <point x="345" y="1209"/>
    </contour>
    <contour>
      <point x="551" y="836" type="curve" smooth="yes"/>
      <point x="690" y="836"/>
      <point x="791" y="646"/>
      <point x="792" y="435" type="curve" smooth="yes"/>
      <point x="793" y="232"/>
      <point x="709" y="80"/>
      <point x="540" y="80" type="curve" smooth="yes"/>
      <point x="411" y="80"/>
      <point x="260" y="251"/>
      <point x="260" y="501" type="curve" smooth="yes"/>
      <point x="260" y="673"/>
      <point x="384" y="836"/>
    </contour>
    <contour>
      <point x="530" y="1520" type="move" name="U"/>
    </contour>
    <contour>
      <point x="530" y="-100" type="move" name="L"/>
    </contour>
  </outline>
</glyph>
<glyph name="CySmGje" format="1">
  <advance width="848"/>
  <unicode hex="0453"/>
  <outline>
    <component base="CySmGhe"/>
    <component base="CombAcute" xOffset="984"/>
    <contour>
      <point x="441" y="1410" type="move" name="U"/>
    </contour>
    <contour>
      <point x="441" y="-100" type="move" name="L"/>
    </contour>
  </outline>
</glyph>
<glyph name="CySmShortU" format="1">
  <advance width="1030"/>
  <unicode hex="045E"/>
  <outline>
    <component base="CySmU"/>
    <component base="CombBreve.CyShortMrkAlt" xOffset="1147"/>
    <contour>
      <point x="550" y="1370" type="move" name="U"/>
    </contour>
    <contour>
      <point x="770" y="-100" type="move" name="L"/>
    </contour>
  </outline>
</glyph>
<glyph name="CySmEnHook" format="1">
  <advance width="1165"/>
  <unicode hex="04C8"/>
  <outline>
    <contour>
      <point x="872" y="430" type="line"/>
      <point x="872" y="520" type="line"/>
      <point x="269" y="520" type="line"/>
      <point x="269" y="430" type="line"/>
    </contour>
    <contour>
      <point x="485" y="0" type="line"/>
      <point x="485" y="43" type="line"/>
      <point x="388" y="61"/>
      <point x="345" y="88"/>
      <point x="345" y="104" type="curve" smooth="yes"/>
      <point x="345" y="826" type="line" smooth="yes"/>
      <point x="345" y="844"/>
      <point x="395" y="869"/>
      <point x="485" y="887" type="curve"/>
      <point x="485" y="930" type="line"/>
      <point x="55" y="930" type="line"/>
      <point x="55" y="887" type="line"/>
      <point x="152" y="869"/>
      <point x="195" y="842"/>
      <point x="195" y="826" type="curve" smooth="yes"/>
      <point x="195" y="104" type="line" smooth="yes"/>
      <point x="195" y="86"/>
      <point x="145" y="61"/>
      <point x="55" y="43" type="curve"/>
      <point x="55" y="0" type="line"/>
    </contour>
    <contour>
      <point x="1110" y="887" type="curve"/>
      <point x="1110" y="930" type="line"/>
      <point x="680" y="930" type="line"/>
      <point x="680" y="887" type="line"/>
      <point x="777" y="869"/>
      <point x="820" y="842"/>
      <point x="820" y="826" type="curve" smooth="yes"/>
      <point x="820" y="218" type="line"/>
      <point x="860" y="218"/>
      <point x="931" y="218"/>
      <point x="970" y="218" type="curve"/>
      <point x="970" y="826" type="line" smooth="yes"/>
      <point x="970" y="844"/>
      <point x="1020" y="869"/>
    </contour>
    <contour>
      <point x="970" y="326" type="line"/>
      <point x="820" y="326" type="line"/>
      <point x="820" y="115" type="line" smooth="yes"/>
      <point x="820" y="-135"/>
      <point x="821" y="-374"/>
      <point x="521" y="-445" type="curve"/>
      <point x="529" y="-470"/>
      <point x="532" y="-476"/>
      <point x="542" y="-500" type="curve"/>
      <point x="970" y="-414"/>
      <point x="970" y="-192"/>
      <point x="970" y="168" type="curve" smooth="yes"/>
    </contour>
    <contour>
      <point x="582" y="1050" type="move" name="U"/>
    </contour>
    <contour>
      <point x="582" y="-600" type="move" name="L"/>
    </contour>
  </outline>
</glyph>
<glyph name="CyCapEmTail" format="1">
  <advance width="1585"/>
  <unicode hex="04CD"/>
  <outline>
    <contour>
      <point x="1490" y="0" type="line"/>
      <point x="1490" y="43" type="line"/>
      <point x="1402" y="41"/>
      <point x="1345" y="48"/>
      <point x="1345" y="64" type="curve" smooth="yes"/>
      <point x="1345" y="1214" type="line"/>
      <point x="1190" y="1157" type="line"/>
      <point x="1190" y="104" type="line" smooth="yes"/>
      <point x="1190" y="86"/>
      <point x="1125" y="61"/>
      <point x="1035" y="43" type="curve"/>
      <point x="1035" y="0" type="line"/>
    </contour>
    <contour>
      <point x="1470" y="1217" type="curve"/>
      <point x="1470" y="1260" type="line"/>
      <point x="1184" y="1260" type="line" smooth="yes"/>
      <point x="1159" y="1260"/>
      <point x="1155" y="1255"/>
      <point x="1120" y="1176" type="curve" smooth="yes"/>
      <point x="773" y="262" type="line" smooth="yes"/>
      <point x="755" y="219"/>
      <point x="748" y="168"/>
      <point x="779" y="0" type="curve"/>
      <point x="783" y="0" type="line"/>
      <point x="1198" y="1087" type="line" smooth="yes"/>
      <point x="1217" y="1136"/>
      <point x="1380" y="1217"/>
    </contour>
    <contour>
      <point x="783" y="264" type="curve"/>
      <point x="420" y="1176" type="line" smooth="yes"/>
      <point x="387" y="1247"/>
      <point x="383" y="1260"/>
      <point x="356" y="1260" type="curve" smooth="yes"/>
      <point x="70" y="1260" type="line"/>
      <point x="70" y="1217" type="line"/>
      <point x="143" y="1217"/>
      <point x="266" y="1182"/>
      <point x="317" y="1061" type="curve" smooth="yes"/>
      <point x="734" y="0" type="line"/>
      <point x="779" y="0" type="line"/>
      <point x="812" y="168"/>
      <point x="802" y="223"/>
    </contour>
    <contour>
      <point x="465" y="0" type="line"/>
      <point x="465" y="43" type="line"/>
      <point x="369" y="61"/>
      <point x="320" y="88"/>
      <point x="320" y="104" type="curve" smooth="yes"/>
      <point x="320" y="1221" type="line"/>
      <point x="205" y="1196" type="line"/>
      <point x="205" y="104" type="line" smooth="yes"/>
      <point x="205" y="86"/>
      <point x="151" y="61"/>
      <point x="60" y="43" type="curve"/>
      <point x="60" y="0" type="line"/>
    </contour>
    <contour>
      <point x="1297" y="70" type="line"/>
      <point x="1376" y="0" type="line"/>
      <point x="1166" y="-323" type="line"/>
      <point x="1176" y="-335"/>
      <point x="1181" y="-341"/>
      <point x="1190" y="-350" type="curve"/>
      <point x="1224" y="-335"/>
      <point x="1288" y="-307"/>
      <point x="1320" y="-275" type="curve"/>
      <point x="1358" y="-220"/>
      <point x="1509" y="14"/>
      <point x="1527" y="43" type="curve"/>
      <point x="1501" y="70" type="line"/>
    </contour>
    <contour>
      <point x="775" y="1370" type="move" name="U"/>
    </contour>
    <contour>
      <point x="775" y="-400" type="move" name="L"/>
    </contour>
  </outline>
</glyph>
<glyph name="CyCapLigAIe" format="1">
  <advance width="1595"/>
  <unicode hex="04D4"/>
  <outline>
    <component base="LtnCapAe"/>
    <contour>
      <point x="924" y="1370" type="move" name="U"/>
    </contour>
    <contour>
      <point x="854" y="-100" type="move" name="L"/>
    </contour>
  </outline>
</glyph>
<glyph name="CySmIeBreve" format="1">
  <advance width="946"/>
  <unicode hex="04D7"/>
  <outline>
    <component base="CySmIe"/>
    <component base="CombBreve.CyShortMrkAlt" xOffset="1070"/>
    <contour>
      <point x="473" y="1370" type="move" name="U"/>
    </contour>
    <contour>
      <point x="473" y="-100" type="move" name="L"/>
    </contour>
  </outline>
</glyph>
<glyph name="CyCapSchwa" format="1">
  <advance width="1122"/>
  <unicode hex="04D8"/>
  <outline>
    <component base="LtnCapSchwa"/>
    <contour>
      <point x="561" y="1370" type="move" name="U"/>
    </contour>
    <contour>
      <point x="561" y="-100" type="move" name="L"/>
    </contour>
  </outline>
</glyph>
<glyph name="CyCapSchwaDiaer" format="1">
  <advance width="1122"/>
  <unicode hex="04DA"/>
  <outline>
    <component base="LtnCapSchwa"/>
    <component base="CombDiaer.LP" xOffset="1076" yOffset="320"/>
    <contour>
      <point x="561" y="1690" type="move" name="U"/>
    </contour>
    <contour>
      <point x="561" y="-100" type="move" name="L"/>
    </contour>
  </outline>
</glyph>
<glyph name="CySmSchwaDiaer" format="1">
  <advance width="930"/>
  <unicode hex="04DB"/>
  <outline>
    <component base="LtnSmSchwa"/>
    <component base="CombDiaer" xOffset="975"/>
    <contour>
      <point x="460" y="0" type="move" name="H"/>
    </contour>
    <contour>
      <point x="460" y="1410" type="move" name="U"/>
    </contour>
    <contour>
      <point x="460" y="-100" type="move" name="L"/>
    </contour>
    <contour>
      <point x="490" y="0" type="move" name="O"/>
    </contour>
  </outline>
</glyph>
<glyph name="CyCapZheDiaer" format="1">
  <advance width="1760"/>
  <unicode hex="04DC"/>
  <outline>
    <component base="CyCapZhe"/>
    <component base="CombDiaer.LP" xOffset="1383" yOffset="320"/>
    <contour>
      <point x="868" y="1690" type="move" name="U"/>
    </contour>
    <contour>
      <point x="868" y="-100" type="move" name="L"/>
    </contour>
  </outline>
</glyph>
<glyph name="CySmZeDiaer" format="1">
  <advance width="861"/>
  <unicode hex="04DF"/>
  <outline>
    <component base="CySmZe"/>
    <component base="CombDiaer" xOffset="933"/>
    <contour>
      <point x="418" y="1410" type="move" name="U"/>
    </contour>
    <contour>
      <point x="418" y="-100" type="move" name="L"/>
    </contour>
  </outline>
</glyph>
<glyph name="CySmIMacron" format="1">
  <advance width="1195"/>
  <unicode hex="04E3"/>
  <outline>
    <component base="CySmI"/>
    <component base="CombMacron" xOffset="1122"/>
    <contour>
      <point x="597" y="1410" type="move" name="U"/>
    </contour>
    <contour>
      <point x="597" y="-100" type="move" name="L"/>
    </contour>
  </outline>
</glyph>
<glyph name="CyCapODiaer" format="1">
  <advance width="1228"/>
  <unicode hex="04E6"/>
  <outline>
    <component base="CyCapO"/>
    <component base="CombDiaer.LP" xOffset="1119" yOffset="320"/>
    <contour>
      <point x="604" y="1690" type="move" name="U"/>
    </contour>
    <contour>
      <point x="604" y="-100" type="move" name="L"/>
    </contour>
  </outline>
</glyph>
<glyph name="CyCapBarredO" format="1">
  <advance width="1229"/>
  <unicode hex="04E8"/>
  <outline>
    <component base="LtnCapOMiddleTilde"/>
    <contour>
      <point x="604" y="1370" type="move" name="U"/>
    </contour>
    <contour>
      <point x="604" y="-100" type="move" name="L"/>
    </contour>
  </outline>
</glyph>
<glyph name="CySmBarredO" format="1">
  <advance width="1030"/>
  <unicode hex="04E9"/>
  <outline>
    <component base="LtnSmBarredO"/>
    <contour>
      <point x="1044" y="900" type="move" name="R"/>
    </contour>
    <contour>
      <point x="525" y="1050" type="move" name="U"/>
    </contour>
    <contour>
      <point x="525" y="-100" type="move" name="L"/>
    </contour>
  </outline>
</glyph>
<glyph name="CyCapBarredODiaer" format="1">
  <advance width="1229"/>
  <unicode hex="04EA"/>
  <outline>
    <component base="LtnCapOMiddleTilde"/>
    <component base="CombDiaer.LP" xOffset="1119" yOffset="320"/>
    <contour>
      <point x="604" y="1690" type="move" name="U"/>
    </contour>
    <contour>
      <point x="604" y="-100" type="move" name="L"/>
    </contour>
  </outline>
</glyph>
<glyph name="CySmBarredODiaer" format="1">
  <advance width="1030"/>
  <unicode hex="04EB"/>
  <outline>
    <component base="LtnSmBarredO"/>
    <component base="CombDiaer" xOffset="1040"/>
    <contour>
      <point x="1044" y="900" type="move" name="R"/>
    </contour>
    <contour>
      <point x="525" y="1410" type="move" name="U"/>
    </contour>
    <contour>
      <point x="525" y="-100" type="move" name="L"/>
    </contour>
  </outline>
</glyph>
<glyph name="CyCapEDiaer" format="1">
  <advance width="1145"/>
  <unicode hex="04EC"/>
  <outline>
    <component base="CyCapE"/>
    <component base="CombDiaer.LP" xOffset="1088" yOffset="320"/>
    <contour>
      <point x="573" y="1690" type="move" name="U"/>
    </contour>
    <contour>
      <point x="573" y="-100" type="move" name="L"/>
    </contour>
  </outline>
</glyph>
<glyph name="CyCapUMacron" format="1">
  <advance width="1240"/>
  <unicode hex="04EE"/>
  <outline>
    <component base="CyCapU"/>
    <component base="CombMacron.LP" xOffset="1175" yOffset="320"/>
    <contour>
      <point x="650" y="1690" type="move" name="U"/>
    </contour>
    <contour>
      <point x="650" y="-100" type="move" name="L"/>
    </contour>
  </outline>
</glyph>
<glyph name="CySmUMacron" format="1">
  <advance width="1030"/>
  <unicode hex="04EF"/>
  <outline>
    <component base="CySmU"/>
    <component base="CombMacron" xOffset="1075"/>
    <contour>
      <point x="550" y="1410" type="move" name="U"/>
    </contour>
    <contour>
      <point x="770" y="-100" type="move" name="L"/>
    </contour>
  </outline>
</glyph>
<glyph name="CySmUDiaer" format="1">
  <advance width="1030"/>
  <unicode hex="04F1"/>
  <outline>
    <component base="CySmU"/>
    <component base="CombDiaer" xOffset="1065"/>
    <contour>
      <point x="550" y="1410" type="move" name="U"/>
    </contour>
    <contour>
      <point x="770" y="-100" type="move" name="L"/>
    </contour>
  </outline>
</glyph>
<glyph name="CySmYeruDiaer" format="1">
  <advance width="1383"/>
  <unicode hex="04F9"/>
  <outline>
    <component base="CySmYeru"/>
    <component base="CombDiaer" xOffset="1216"/>
    <contour>
      <point x="701" y="1410" type="move" name="U"/>
    </contour>
    <contour>
      <point x="701" y="-100" type="move" name="L"/>
    </contour>
  </outline>
</glyph>
<glyph name="CySmKomiDe" format="1">
  <advance width="1065"/>
  <unicode hex="0501"/>
  <outline>
    <component base="LtnSmD"/>
    <contour>
      <point x="558" y="0" type="move" name="H"/>
    </contour>
    <contour>
      <point x="1065" y="900" type="move" name="R"/>
    </contour>
    <contour>
      <point x="335" y="1050" type="move" name="U"/>
    </contour>
    <contour>
      <point x="525" y="-100" type="move" name="L"/>
    </contour>
  </outline>
</glyph>
<glyph name="CyCapWe" format="1">
  <advance width="1741"/>
  <unicode hex="051C"/>
  <outline>
    <component base="LtnCapW"/>
    <contour>
      <point x="861" y="1370" type="move" name="U"/>
    </contour>
    <contour>
      <point x="861" y="-100" type="move" name="L"/>
    </contour>
  </outline>
</glyph>
<glyph name="CySmWe" format="1">
  <advance width="1446"/>
  <unicode hex="051D"/>
  <outline>
    <component base="LtnSmW"/>
    <contour>
      <point x="750" y="1050" type="move" name="U"/>
    </contour>
    <contour>
      <point x="730" y="-100" type="move" name="L"/>
    </contour>
  </outline>
</glyph>
<glyph name="CySmShhaDesc" format="1">
  <advance width="1170"/>
  <unicode hex="0527"/>
  <outline>
    <component base="LtnSmHDesc"/>
    <contour>
      <point x="577" y="-100" type="move" name="L"/>
    </contour>
    <contour>
      <point x="577" y="1620" type="move" name="U"/>
    </contour>
  </outline>
</glyph>
<glyph name="LtnSmBottomHalfO" format="1">
  <advance width="1031"/>
  <unicode hex="1D17"/>
  <outline>
    <contour>
      <point x="235" y="464" type="curve"/>
      <point x="80" y="464" type="line"/>
      <point x="73" y="173"/>
      <point x="245" y="-30"/>
      <point x="497" y="-30" type="curve" smooth="yes"/>
      <point x="740" y="-30"/>
      <point x="939" y="211"/>
      <point x="950" y="464" type="curve"/>
      <point x="800" y="464" type="line"/>
      <point x="802" y="225"/>
      <point x="714" y="80"/>
      <point x="525" y="80" type="curve" smooth="yes"/>
      <point x="402" y="80"/>
      <point x="241" y="256"/>
    </contour>
    <contour>
      <point x="520" y="1050" type="move" name="U"/>
    </contour>
    <contour>
      <point x="520" y="-100" type="move" name="L"/>
    </contour>
  </outline>
</glyph>
<glyph name="LtnSmCapV" format="1">
  <advance width="1099"/>
  <unicode hex="1D20"/>
  <outline>
    <contour>
      <point x="1079" y="887" type="curve"/>
      <point x="1079" y="930" type="line"/>
      <point x="732" y="930" type="line"/>
      <point x="732" y="887" type="line"/>
      <point x="823" y="878"/>
      <point x="842" y="854"/>
      <point x="830" y="825" type="curve" smooth="yes"/>
      <point x="564" y="164" type="line"/>
      <point x="287" y="825" type="line" smooth="yes"/>
      <point x="274" y="856"/>
      <point x="307" y="882"/>
      <point x="393" y="887" type="curve"/>
      <point x="393" y="930" type="line"/>
      <point x="21" y="930" type="line"/>
      <point x="21" y="887" type="line"/>
      <point x="91" y="879"/>
      <point x="124" y="851"/>
      <point x="135" y="825" type="curve" smooth="yes"/>
      <point x="495" y="-30" type="line"/>
      <point x="555" y="-21"/>
      <point x="616" y="2"/>
      <point x="630" y="36" type="curve" smooth="yes"/>
      <point x="949" y="825" type="line" smooth="yes"/>
      <point x="960" y="853"/>
      <point x="1004" y="875"/>
    </contour>
    <contour>
      <point x="560" y="1050" type="move" name="U"/>
    </contour>
    <contour>
      <point x="560" y="-120" type="move" name="L"/>
    </contour>
  </outline>
</glyph>
<glyph name="ModCapN" format="1">
  <advance width="930"/>
  <unicode hex="1D3A"/>
  <outline>
    <contour>
      <point x="896" y="1340" type="curve"/>
      <point x="896" y="1376" type="line"/>
      <point x="609" y="1376" type="line"/>
      <point x="609" y="1340" type="line"/>
      <point x="684" y="1331"/>
      <point x="700" y="1313"/>
      <point x="700" y="1303" type="curve" smooth="yes"/>
      <point x="700" y="663" type="line"/>
      <point x="804" y="639" type="line"/>
      <point x="804" y="1303" type="line" smooth="yes"/>
      <point x="804" y="1314"/>
      <point x="829" y="1332"/>
    </contour>
    <contour>
      <point x="804" y="602" type="curve"/>
      <point x="804" y="700" type="line"/>
      <point x="271" y="1329" type="line" smooth="yes"/>
      <point x="236" y="1371"/>
      <point x="221" y="1376"/>
      <point x="193" y="1376" type="curve" smooth="yes"/>
      <point x="35" y="1376" type="line"/>
      <point x="35" y="1340" type="line"/>
      <point x="84" y="1334"/>
      <point x="126" y="1316"/>
      <point x="165" y="1270" type="curve" smooth="yes"/>
      <point x="695" y="639" type="line" smooth="yes"/>
      <point x="711" y="620"/>
      <point x="755" y="607"/>
    </contour>
    <contour>
      <point x="322" y="620" type="line"/>
      <point x="322" y="656" type="line"/>
      <point x="250" y="664"/>
      <point x="230" y="683"/>
      <point x="230" y="692" type="curve" smooth="yes"/>
      <point x="230" y="1314" type="line"/>
      <point x="126" y="1338" type="line"/>
      <point x="126" y="692" type="line" smooth="yes"/>
      <point x="126" y="682"/>
      <point x="104" y="663"/>
      <point x="35" y="656" type="curve"/>
      <point x="35" y="620" type="line"/>
    </contour>
    <contour>
      <point x="461" y="1450" type="move" name="U"/>
    </contour>
    <contour>
      <point x="461" y="540" type="move" name="L"/>
    </contour>
  </outline>
</glyph>
<glyph name="LtnSmIRetrHook" format="1">
  <advance width="555"/>
  <unicode hex="1D96"/>
  <outline>
    <contour>
      <point x="390" y="1261" type="curve" smooth="yes"/>
      <point x="390" y="1323"/>
      <point x="362" y="1356"/>
      <point x="305" y="1356" type="curve" smooth="yes"/>
      <point x="242" y="1356"/>
      <point x="190" y="1296"/>
      <point x="190" y="1220" type="curve" smooth="yes"/>
      <point x="190" y="1159"/>
      <point x="215" y="1124"/>
      <point x="274" y="1124" type="curve" smooth="yes"/>
      <point x="340" y="1124"/>
      <point x="390" y="1186"/>
    </contour>
    <contour>
      <point x="500" y="0" type="line"/>
      <point x="500" y="43" type="line"/>
      <point x="403" y="61"/>
      <point x="360" y="88"/>
      <point x="360" y="104" type="curve" smooth="yes"/>
      <point x="360" y="960" type="line"/>
      <point x="326" y="960" type="line"/>
      <point x="258" y="927"/>
      <point x="154" y="896"/>
      <point x="70" y="880" type="curve"/>
      <point x="70" y="840" type="line"/>
      <point x="211" y="827"/>
      <point x="210" y="807"/>
      <point x="210" y="670" type="curve" smooth="yes"/>
      <point x="210" y="104" type="line" smooth="yes"/>
      <point x="210" y="86"/>
      <point x="160" y="61"/>
      <point x="70" y="43" type="curve"/>
      <point x="70" y="0" type="line"/>
    </contour>
    <contour>
      <point x="838" y="-235" type="curve"/>
      <point x="819" y="-196" type="line"/>
      <point x="778" y="-190"/>
      <point x="644" y="-253"/>
      <point x="653" y="-264" type="curve" smooth="yes"/>
      <point x="693" y="-312"/>
      <point x="675" y="-405"/>
      <point x="597" y="-405" type="curve" smooth="yes"/>
      <point x="531" y="-405"/>
      <point x="500" y="-359"/>
      <point x="500" y="-196" type="curve" smooth="yes"/>
      <point x="500" y="43" type="line"/>
      <point x="410" y="11" type="line"/>
      <point x="410" y="-247" type="line" smooth="yes"/>
      <point x="410" y="-422"/>
      <point x="481" y="-500"/>
      <point x="593" y="-500" type="curve" smooth="yes"/>
      <point x="748" y="-500"/>
      <point x="846" y="-336"/>
    </contour>
    <contour>
      <point x="466" y="1050" type="move" name="U"/>
    </contour>
    <contour>
      <point x="466" y="-600" type="move" name="L"/>
    </contour>
  </outline>
</glyph>
<glyph name="ModSmIota" format="1">
  <advance width="404"/>
  <unicode hex="1DA5"/>
  <outline>
    <contour>
      <point x="419" y="701" type="curve"/>
      <point x="403" y="739" type="line"/>
      <point x="343" y="702"/>
      <point x="300" y="694"/>
      <point x="290" y="694" type="curve" smooth="yes"/>
      <point x="258" y="694"/>
      <point x="248" y="710"/>
      <point x="248" y="812" type="curve" smooth="yes"/>
      <point x="248" y="1196" type="line"/>
      <point x="219" y="1196" type="line"/>
      <point x="174" y="1176"/>
      <point x="92" y="1158"/>
      <point x="33" y="1148" type="curve"/>
      <point x="33" y="1114" type="line"/>
      <point x="123" y="1109"/>
      <point x="123" y="1100"/>
      <point x="123" y="1012" type="curve" smooth="yes"/>
      <point x="123" y="742" type="line" smooth="yes"/>
      <point x="123" y="646"/>
      <point x="149" y="602"/>
      <point x="219" y="602" type="curve" smooth="yes"/>
      <point x="255" y="602"/>
      <point x="324" y="624"/>
    </contour>
    <contour>
      <point x="209" y="1286" type="move" name="U"/>
    </contour>
    <contour>
      <point x="189" y="540" type="move" name="L"/>
    </contour>
  </outline>
</glyph>
<glyph name="LtnSupSmCapI" format="1">
  <advance width="401"/>
  <unicode hex="1DA6"/>
  <outline>
    <contour>
      <point x="351" y="620" type="line"/>
      <point x="351" y="656" type="line"/>
      <point x="283" y="667"/>
      <point x="263" y="683"/>
      <point x="263" y="692" type="curve" smooth="yes"/>
      <point x="263" y="1106" type="line" smooth="yes"/>
      <point x="263" y="1116"/>
      <point x="288" y="1131"/>
      <point x="351" y="1142" type="curve"/>
      <point x="351" y="1178" type="line"/>
      <point x="50" y="1178" type="line"/>
      <point x="50" y="1142" type="line"/>
      <point x="118" y="1131"/>
      <point x="138" y="1115"/>
      <point x="138" y="1106" type="curve" smooth="yes"/>
      <point x="138" y="692" type="line" smooth="yes"/>
      <point x="138" y="682"/>
      <point x="113" y="667"/>
      <point x="50" y="656" type="curve"/>
      <point x="50" y="620" type="line"/>
    </contour>
    <contour>
      <point x="205" y="1286" type="move" name="U"/>
    </contour>
    <contour>
      <point x="205" y="549" type="move" name="L"/>
    </contour>
  </outline>
</glyph>
<glyph name="LtnSupSmTurnedMLngLeg" format="1">
  <advance width="1134"/>
  <unicode hex="1DAD"/>
  <outline>
    <contour>
      <point x="1113" y="402" type="line"/>
      <point x="1031" y="411"/>
      <point x="1024" y="415"/>
      <point x="1024" y="467" type="curve" smooth="yes"/>
      <point x="1024" y="1172" type="line"/>
      <point x="1003" y="1196" type="line"/>
      <point x="947" y="1179"/>
      <point x="875" y="1164"/>
      <point x="812" y="1156" type="curve"/>
      <point x="812" y="1122" type="line"/>
      <point x="881" y="1118"/>
      <point x="901" y="1116"/>
      <point x="901" y="1052" type="curve" smooth="yes"/>
      <point x="901" y="828" type="line"/>
      <point x="812" y="724"/>
      <point x="758" y="690"/>
      <point x="695" y="690" type="curve" smooth="yes"/>
      <point x="645" y="690"/>
      <point x="628" y="716"/>
      <point x="628" y="808" type="curve" smooth="yes"/>
      <point x="628" y="1173" type="line"/>
      <point x="609" y="1196" type="line"/>
      <point x="549" y="1176"/>
      <point x="491" y="1164"/>
      <point x="424" y="1156" type="curve"/>
      <point x="424" y="1122" type="line"/>
      <point x="505" y="1116"/>
      <point x="505" y="1110"/>
      <point x="505" y="1052" type="curve" smooth="yes"/>
      <point x="505" y="828" type="line"/>
      <point x="420" y="724"/>
      <point x="361" y="690"/>
      <point x="300" y="690" type="curve" smooth="yes"/>
      <point x="251" y="690"/>
      <point x="233" y="716"/>
      <point x="233" y="808" type="curve" smooth="yes"/>
      <point x="233" y="1173" type="line"/>
      <point x="213" y="1196" type="line"/>
      <point x="159" y="1177"/>
      <point x="92" y="1163"/>
      <point x="29" y="1156" type="curve"/>
      <point x="29" y="1122" type="line"/>
      <point x="104" y="1116"/>
      <point x="110" y="1115"/>
      <point x="110" y="1052" type="curve" smooth="yes"/>
      <point x="110" y="751" type="line" smooth="yes"/>
      <point x="110" y="649"/>
      <point x="178" y="602"/>
      <point x="267" y="602" type="curve" smooth="yes"/>
      <point x="336" y="602"/>
      <point x="422" y="647"/>
      <point x="507" y="744" type="curve"/>
      <point x="507" y="672"/>
      <point x="556" y="602"/>
      <point x="663" y="602" type="curve" smooth="yes"/>
      <point x="730" y="602"/>
      <point x="819" y="647"/>
      <point x="901" y="745" type="curve"/>
      <point x="901" y="340" type="line"/>
      <point x="927" y="320" type="line"/>
      <point x="984" y="345"/>
      <point x="1052" y="360"/>
      <point x="1113" y="368" type="curve"/>
    </contour>
    <contour>
      <point x="567" y="1286" type="move" name="U"/>
    </contour>
    <contour>
      <point x="567" y="258" type="move" name="L"/>
    </contour>
  </outline>
</glyph>
<glyph name="CombLftArrwhdAbv" format="1">
  <advance width="0"/>
  <unicode hex="1DFE"/>
  <outline>
    <contour>
      <point x="-223" y="1509" type="curve"/>
      <point x="-243" y="1529" type="line"/>
      <point x="-820" y="1313" type="line"/>
      <point x="-829" y="1291"/>
      <point x="-839" y="1255"/>
      <point x="-844" y="1233" type="curve"/>
      <point x="-824" y="1214" type="line"/>
      <point x="-246" y="1429" type="line"/>
      <point x="-240" y="1449"/>
      <point x="-228" y="1486"/>
    </contour>
    <contour>
      <point x="-223" y="1067" type="curve"/>
      <point x="-236" y="1096" type="line"/>
      <point x="-820" y="1313" type="line"/>
      <point x="-829" y="1291"/>
      <point x="-839" y="1255"/>
      <point x="-844" y="1233" type="curve"/>
      <point x="-824" y="1214" type="line"/>
      <point x="-290" y="1014" type="line"/>
      <point x="-257" y="1034"/>
      <point x="-246" y="1045"/>
    </contour>
    <contour>
      <point x="-518" y="1050" type="move" name="_U"/>
    </contour>
    <contour>
      <point x="-518" y="1451" type="move" name="U"/>
    </contour>
  </outline>
</glyph>
<glyph name="LtnSmBLineBlw" format="1">
  <advance width="1040"/>
  <unicode hex="1E07"/>
  <outline>
    <component base="LtnSmB"/>
    <component base="CombMacronBlw" xOffset="994"/>
    <contour>
      <point x="479" y="0" type="move" name="H"/>
    </contour>
    <contour>
      <point x="1068" y="900" type="move" name="R"/>
    </contour>
    <contour>
      <point x="520" y="1620" type="move" name="U"/>
    </contour>
    <contour>
      <point x="479" y="-600" type="move" name="L"/>
    </contour>
  </outline>
</glyph>
<glyph name="LtnCapDDotBlw" format="1">
  <advance width="1214"/>
  <unicode hex="1E0C"/>
  <outline>
    <component base="LtnCapD"/>
    <component base="CombDotBlw" xOffset="1065"/>
    <contour>
      <point x="550" y="1370" type="move" name="U"/>
    </contour>
    <contour>
      <point x="550" y="-600" type="move" name="L"/>
    </contour>
  </outline>
</glyph>
<glyph name="LtnCapDCircumBlw" format="1">
  <advance width="1214"/>
  <unicode hex="1E12"/>
  <outline>
    <component base="LtnCapD"/>
    <component base="CombCircumBlw" xOffset="1064"/>
    <contour>
      <point x="550" y="1370" type="move" name="U"/>
    </contour>
    <contour>
      <point x="550" y="-600" type="move" name="L"/>
    </contour>
  </outline>
</glyph>
<glyph name="LtnSmDCircumBlw" format="1">
  <advance width="1065"/>
  <unicode hex="1E13"/>
  <outline>
    <component base="LtnSmD"/>
    <component base="CombCircumBlw" xOffset="1039"/>
    <contour>
      <point x="558" y="0" type="move" name="H"/>
    </contour>
    <contour>
      <point x="1065" y="900" type="move" name="R"/>
    </contour>
    <contour>
      <point x="335" y="1050" type="move" name="U"/>
    </contour>
    <contour>
      <point x="525" y="-600" type="move" name="L"/>
    </contour>
  </outline>
</glyph>
<glyph name="LtnSmEMacronAcute" format="1">
  <advance width="946"/>
  <unicode hex="1E17"/>
  <outline>
    <component base="LtnSmE"/>
    <component base="CombMacron" xOffset="1035"/>
    <component base="CombAcute" xOffset="1053" yOffset="360"/>
    <contour>
      <point x="500" y="0" type="move" name="H"/>
    </contour>
    <contour>
      <point x="1020" y="900" type="move" name="R"/>
    </contour>
    <contour>
      <point x="510" y="1770" type="move" name="U"/>
    </contour>
    <contour>
      <point x="500" y="-100" type="move" name="L"/>
    </contour>
    <contour>
      <point x="558" y="0" type="move" name="O"/>
    </contour>
  </outline>
</glyph>
<glyph name="LtnSmECircumBlw" format="1">
  <advance width="946"/>
  <unicode hex="1E19"/>
  <outline>
    <component base="LtnSmE"/>
    <component base="CombCircumBlw" xOffset="1014"/>
    <contour>
      <point x="500" y="0" type="move" name="H"/>
    </contour>
    <contour>
      <point x="1020" y="900" type="move" name="R"/>
    </contour>
    <contour>
      <point x="510" y="1050" type="move" name="U"/>
    </contour>
    <contour>
      <point x="500" y="-600" type="move" name="L"/>
    </contour>
    <contour>
      <point x="558" y="0" type="move" name="O"/>
    </contour>
  </outline>
</glyph>
<glyph name="LtnCapFDotAbv" format="1">
  <advance width="979"/>
  <unicode hex="1E1E"/>
  <outline>
    <component base="LtnCapF"/>
    <component base="CombDotAbv.LP" xOffset="988" yOffset="320"/>
    <contour>
      <point x="473" y="1690" type="move" name="U"/>
    </contour>
    <contour>
      <point x="473" y="-100" type="move" name="L"/>
    </contour>
  </outline>
</glyph>
<glyph name="LtnCapGMacron" format="1">
  <advance width="1194"/>
  <unicode hex="1E20"/>
  <outline>
    <component base="LtnCapG"/>
    <component base="CombMacron.LP" xOffset="1165" yOffset="320"/>
    <contour>
      <point x="620" y="0" type="move" name="H"/>
    </contour>
    <contour>
      <point x="640" y="1690" type="move" name="U"/>
    </contour>
    <contour>
      <point x="640" y="-100" type="move" name="L"/>
    </contour>
  </outline>
</glyph>
<glyph name="LtnSmGMacron" format="1">
  <advance width="999"/>
  <unicode hex="1E21"/>
  <outline>
    <component base="LtnSmG"/>
    <component base="CombMacron" xOffset="1025"/>
    <contour>
      <point x="500" y="-470" type="move" name="H"/>
    </contour>
    <contour>
      <point x="999" y="900" type="move" name="R"/>
    </contour>
    <contour>
      <point x="500" y="1410" type="move" name="U"/>
    </contour>
    <contour>
      <point x="500" y="-600" type="move" name="L"/>
    </contour>
  </outline>
</glyph>
<glyph name="LtnSmHDotAbv" format="1">
  <advance width="1130"/>
  <unicode hex="1E23"/>
  <outline>
    <component base="LtnSmH"/>
    <component base="CombDotAbv.LP" xOffset="1092" yOffset="570"/>
    <contour>
      <point x="257" y="0" type="move" name="H"/>
    </contour>
    <contour>
      <point x="577" y="1940" type="move" name="U"/>
    </contour>
    <contour>
      <point x="577" y="-100" type="move" name="L"/>
    </contour>
  </outline>
</glyph>
<glyph name="LtnCapHDotBlw" format="1">
  <advance width="1339"/>
  <unicode hex="1E24"/>
  <outline>
    <component base="LtnCapH"/>
    <component base="CombDotBlw" xOffset="1175"/>
    <contour>
      <point x="270" y="0" type="move" name="H"/>
    </contour>
    <contour>
      <point x="660" y="1370" type="move" name="U"/>
    </contour>
    <contour>
      <point x="660" y="-600" type="move" name="L"/>
    </contour>
  </outline>
</glyph>
<glyph name="LtnCapHDiaer" format="1">
  <advance width="1339"/>
  <unicode hex="1E26"/>
  <outline>
    <component base="LtnCapH"/>
    <component base="CombDiaer.LP" xOffset="1175" yOffset="320"/>
    <contour>
      <point x="270" y="0" type="move" name="H"/>
    </contour>
    <contour>
      <point x="660" y="1690" type="move" name="U"/>
    </contour>
    <contour>
      <point x="660" y="-100" type="move" name="L"/>
    </contour>
  </outline>
</glyph>
<glyph name="LtnSmHCedilla" format="1">
  <advance width="1130"/>
  <unicode hex="1E29"/>
  <outline>
    <component base="LtnSmH"/>
    <component base="CombCedilla" xOffset="770"/>
    <contour>
      <point x="577" y="1620" type="move" name="U"/>
    </contour>
    <contour>
      <point x="257" y="-600" type="move" name="L"/>
    </contour>
  </outline>
</glyph>
<glyph name="LtnCapHBreveBlw" format="1">
  <advance width="1339"/>
  <unicode hex="1E2A"/>
  <outline>
    <component base="LtnCapH"/>
    <component base="CombBreveBlw" xOffset="1175"/>
    <contour>
      <point x="270" y="0" type="move" name="H"/>
    </contour>
    <contour>
      <point x="660" y="1370" type="move" name="U"/>
    </contour>
    <contour>
      <point x="660" y="-600" type="move" name="L"/>
    </contour>
  </outline>
</glyph>
<glyph name="LtnSmHBreveBlw" format="1">
  <advance width="1130"/>
  <unicode hex="1E2B"/>
  <outline>
    <component base="LtnSmH"/>
    <component base="CombBreveBlw" xOffset="1092"/>
    <contour>
      <point x="257" y="0" type="move" name="H"/>
    </contour>
    <contour>
      <point x="577" y="1620" type="move" name="U"/>
    </contour>
    <contour>
      <point x="577" y="-600" type="move" name="L"/>
    </contour>
  </outline>
</glyph>
<glyph name="LtnCapKDotBlw" format="1">
  <advance width="1184"/>
  <unicode hex="1E32"/>
  <outline>
    <component base="LtnCapK"/>
    <component base="CombDotBlw" xOffset="1127"/>
    <contour>
      <point x="275" y="0" type="move" name="H"/>
    </contour>
    <contour>
      <point x="590" y="1370" type="move" name="U"/>
    </contour>
    <contour>
      <point x="612" y="-600" type="move" name="L"/>
    </contour>
  </outline>
</glyph>
<glyph name="LtnSmLLineBlw" format="1">
  <advance width="555"/>
  <unicode hex="1E3B"/>
  <outline>
    <component base="LtnSmL"/>
    <component base="CombMacronBlw.Short" xOffset="560"/>
    <contour>
      <point x="285" y="0" type="move" name="H"/>
    </contour>
    <contour>
      <point x="535" y="900" type="move" name="R"/>
    </contour>
    <contour>
      <point x="285" y="1690" type="move" name="U"/>
    </contour>
    <contour>
      <point x="285" y="-600" type="move" name="L"/>
    </contour>
  </outline>
</glyph>
<glyph name="LtnCapLCircumBlw" format="1">
  <advance width="975"/>
  <unicode hex="1E3C"/>
  <outline>
    <component base="LtnCapL"/>
    <component base="CombCircumBlw" xOffset="1011"/>
    <contour>
      <point x="497" y="0" type="move" name="H"/>
    </contour>
    <contour>
      <point x="750" y="900" type="move" name="R"/>
    </contour>
    <contour>
      <point x="467" y="1370" type="move" name="U"/>
    </contour>
    <contour>
      <point x="497" y="-600" type="move" name="L"/>
    </contour>
  </outline>
</glyph>
<glyph name="LtnCapMAcute" format="1">
  <advance width="1651"/>
  <unicode hex="1E3E"/>
  <outline>
    <component base="LtnCapM"/>
    <component base="CombAcute.LP" xOffset="1358" yOffset="320"/>
    <contour>
      <point x="1350" y="0" type="move" name="H"/>
    </contour>
    <contour>
      <point x="815" y="1690" type="move" name="U"/>
    </contour>
    <contour>
      <point x="815" y="-100" type="move" name="L"/>
    </contour>
  </outline>
</glyph>
<glyph name="LtnSmMAcute" format="1">
  <advance width="1645"/>
  <unicode hex="1E3F"/>
  <outline>
    <component base="LtnSmM"/>
    <component base="CombAcute" xOffset="1378"/>
    <contour>
      <point x="1400" y="0" type="move" name="H"/>
    </contour>
    <contour>
      <point x="835" y="1410" type="move" name="U"/>
    </contour>
    <contour>
      <point x="835" y="-100" type="move" name="L"/>
    </contour>
  </outline>
</glyph>
<glyph name="LtnCapNDotAbv" format="1">
  <advance width="1329"/>
  <unicode hex="1E44"/>
  <outline>
    <component base="LtnCapN"/>
    <component base="CombDotAbv.LP" xOffset="1180" yOffset="320"/>
    <contour>
      <point x="1047" y="0" type="move" name="H"/>
    </contour>
    <contour>
      <point x="665" y="1690" type="move" name="U"/>
    </contour>
    <contour>
      <point x="665" y="-100" type="move" name="L"/>
    </contour>
  </outline>
</glyph>
<glyph name="LtnSmNDotAbv" format="1">
  <advance width="1130"/>
  <unicode hex="1E45"/>
  <outline>
    <component base="LtnSmN"/>
    <component base="CombDotAbv" xOffset="1092"/>
    <contour>
      <point x="885" y="0" type="move" name="H"/>
    </contour>
    <contour>
      <point x="577" y="1410" type="move" name="U"/>
    </contour>
    <contour>
      <point x="577" y="-100" type="move" name="L"/>
    </contour>
  </outline>
</glyph>
<glyph name="LtnCapNDotBlw" format="1">
  <advance width="1329"/>
  <unicode hex="1E46"/>
  <outline>
    <component base="LtnCapN"/>
    <component base="CombDotBlw" xOffset="1180"/>
    <contour>
      <point x="1047" y="0" type="move" name="H"/>
    </contour>
    <contour>
      <point x="665" y="1370" type="move" name="U"/>
    </contour>
    <contour>
      <point x="665" y="-600" type="move" name="L"/>
    </contour>
  </outline>
</glyph>
<glyph name="LtnCapNCircumBlw" format="1">
  <advance width="1329"/>
  <unicode hex="1E4A"/>
  <outline>
    <component base="LtnCapN"/>
    <component base="CombCircumBlw" xOffset="1179"/>
    <contour>
      <point x="1047" y="0" type="move" name="H"/>
    </contour>
    <contour>
      <point x="665" y="1370" type="move" name="U"/>
    </contour>
    <contour>
      <point x="665" y="-600" type="move" name="L"/>
    </contour>
  </outline>
</glyph>
<glyph name="LtnCapOTildeAcute" format="1">
  <advance width="1229"/>
  <unicode hex="1E4C"/>
  <outline>
    <component base="LtnCapO"/>
    <component base="CombTilde.LP" xOffset="1132" yOffset="320"/>
    <component base="CombAcute.LP" xOffset="1160" yOffset="640"/>
    <contour>
      <point x="587" y="0" type="move" name="H"/>
    </contour>
    <contour>
      <point x="1258" y="1100" type="move" name="R"/>
    </contour>
    <contour>
      <point x="617" y="2010" type="move" name="U"/>
    </contour>
    <contour>
      <point x="617" y="-100" type="move" name="L"/>
    </contour>
    <contour>
      <point x="678" y="0" type="move" name="O"/>
    </contour>
  </outline>
</glyph>
<glyph name="LtnSmOTildeDiaer" format="1">
  <advance width="1030"/>
  <unicode hex="1E4F"/>
  <outline>
    <component base="LtnSmO"/>
    <component base="CombTilde" xOffset="1050"/>
    <component base="CombDiaer" xOffset="1050" yOffset="360"/>
    <contour>
      <point x="535" y="0" type="move" name="H"/>
    </contour>
    <contour>
      <point x="1044" y="900" type="move" name="R"/>
    </contour>
    <contour>
      <point x="535" y="1770" type="move" name="U"/>
    </contour>
    <contour>
      <point x="535" y="-100" type="move" name="L"/>
    </contour>
    <contour>
      <point x="575" y="0" type="move" name="O"/>
    </contour>
  </outline>
</glyph>
<glyph name="LtnCapOMacronGrave" format="1">
  <advance width="1229"/>
  <unicode hex="1E50"/>
  <outline>
    <component base="LtnCapO"/>
    <component base="CombMacron.LP" xOffset="1142" yOffset="320"/>
    <component base="CombGrave.LP" xOffset="1050" yOffset="640"/>
    <contour>
      <point x="587" y="0" type="move" name="H"/>
    </contour>
    <contour>
      <point x="1258" y="1100" type="move" name="R"/>
    </contour>
    <contour>
      <point x="617" y="2010" type="move" name="U"/>
    </contour>
    <contour>
      <point x="617" y="-100" type="move" name="L"/>
    </contour>
    <contour>
      <point x="678" y="0" type="move" name="O"/>
    </contour>
  </outline>
</glyph>
<glyph name="LtnCapPDotAbv" format="1">
  <advance width="1071"/>
  <unicode hex="1E56"/>
  <outline>
    <component base="LtnCapP"/>
    <component base="CombDotAbv.LP" xOffset="1026" yOffset="320"/>
    <contour>
      <point x="511" y="1690" type="move" name="U"/>
    </contour>
    <contour>
      <point x="511" y="-100" type="move" name="L"/>
    </contour>
  </outline>
</glyph>
<glyph name="LtnCapRDotAbv" format="1">
  <advance width="1149"/>
  <unicode hex="1E58"/>
  <outline>
    <component base="LtnCapR"/>
    <component base="CombDotAbv.LP" xOffset="1035" yOffset="320"/>
    <contour>
      <point x="275" y="0" type="move" name="H"/>
    </contour>
    <contour>
      <point x="520" y="1690" type="move" name="U"/>
    </contour>
    <contour>
      <point x="520" y="-100" type="move" name="L"/>
    </contour>
  </outline>
</glyph>
<glyph name="LtnCapRDotBlw" format="1">
  <advance width="1149"/>
  <unicode hex="1E5A"/>
  <outline>
    <component base="LtnCapR"/>
    <component base="CombDotBlw" xOffset="1035"/>
    <contour>
      <point x="275" y="0" type="move" name="H"/>
    </contour>
    <contour>
      <point x="520" y="1370" type="move" name="U"/>
    </contour>
    <contour>
      <point x="520" y="-600" type="move" name="L"/>
    </contour>
  </outline>
</glyph>
<glyph name="LtnSmRDotBlwMacron" format="1">
  <advance width="811"/>
  <unicode hex="1E5D"/>
  <outline>
    <component base="LtnSmR"/>
    <component base="CombDotBlw" xOffset="785"/>
    <component base="CombMacron" xOffset="975"/>
    <contour>
      <point x="270" y="0" type="move" name="H"/>
    </contour>
    <contour>
      <point x="450" y="1410" type="move" name="U"/>
    </contour>
    <contour>
      <point x="270" y="-600" type="move" name="L"/>
    </contour>
  </outline>
</glyph>
<glyph name="LtnCapRLineBlw" format="1">
  <advance width="1149"/>
  <unicode hex="1E5E"/>
  <outline>
    <component base="LtnCapR"/>
    <component base="CombMacronBlw" xOffset="1035"/>
    <contour>
      <point x="275" y="0" type="move" name="H"/>
    </contour>
    <contour>
      <point x="520" y="1370" type="move" name="U"/>
    </contour>
    <contour>
      <point x="520" y="-600" type="move" name="L"/>
    </contour>
  </outline>
</glyph>
<glyph name="LtnCapSDotAbv" format="1">
  <advance width="975"/>
  <unicode hex="1E60"/>
  <outline>
    <component base="LtnCapS"/>
    <component base="CombDotAbv.LP" xOffset="1015" yOffset="320"/>
    <contour>
      <point x="480" y="0" type="move" name="H"/>
    </contour>
    <contour>
      <point x="500" y="1690" type="move" name="U"/>
    </contour>
    <contour>
      <point x="500" y="-100" type="move" name="L"/>
    </contour>
  </outline>
</glyph>
<glyph name="LtnSmSDotAbv" format="1">
  <advance width="791"/>
  <unicode hex="1E61"/>
  <outline>
    <component base="LtnSmS"/>
    <component base="CombDotAbv" xOffset="912"/>
    <contour>
      <point x="385" y="0" type="move" name="H"/>
    </contour>
    <contour>
      <point x="397" y="1410" type="move" name="U"/>
    </contour>
    <contour>
      <point x="397" y="-100" type="move" name="L"/>
    </contour>
  </outline>
</glyph>
<glyph name="LtnCapSDotBlw" format="1">
  <advance width="975"/>
  <unicode hex="1E62"/>
  <outline>
    <component base="LtnCapS"/>
    <component base="CombDotBlw" xOffset="1015"/>
    <contour>
      <point x="480" y="0" type="move" name="H"/>
    </contour>
    <contour>
      <point x="500" y="1370" type="move" name="U"/>
    </contour>
    <contour>
      <point x="500" y="-600" type="move" name="L"/>
    </contour>
  </outline>
</glyph>
<glyph name="LtnSmSAcuteDotAbv" format="1">
  <advance width="791"/>
  <unicode hex="1E65"/>
  <outline>
    <component base="LtnSmS"/>
    <component base="CombAcute" xOffset="940"/>
    <component base="CombDotAbv" xOffset="912" yOffset="360"/>
    <contour>
      <point x="385" y="0" type="move" name="H"/>
    </contour>
    <contour>
      <point x="397" y="1770" type="move" name="U"/>
    </contour>
    <contour>
      <point x="397" y="-100" type="move" name="L"/>
    </contour>
  </outline>
</glyph>
<glyph name="LtnSmSCaronDotAbv" format="1">
  <advance width="791"/>
  <unicode hex="1E67"/>
  <outline>
    <component base="LtnSmS"/>
    <component base="CombCaron" xOffset="911"/>
    <component base="CombDotAbv" xOffset="912" yOffset="400"/>
    <contour>
      <point x="385" y="0" type="move" name="H"/>
    </contour>
    <contour>
      <point x="397" y="1810" type="move" name="U"/>
    </contour>
    <contour>
      <point x="397" y="-100" type="move" name="L"/>
    </contour>
  </outline>
</glyph>
<glyph name="LtnSmUCircumBlw" format="1">
  <advance width="1085"/>
  <unicode hex="1E77"/>
  <outline>
    <component base="LtnSmU"/>
    <component base="CombCircumBlw" xOffset="1059"/>
    <contour>
      <point x="546" y="0" type="move" name="H"/>
    </contour>
    <contour>
      <point x="1084" y="900" type="move" name="R"/>
    </contour>
    <contour>
      <point x="545" y="1050" type="move" name="U"/>
    </contour>
    <contour>
      <point x="545" y="-600" type="move" name="L"/>
    </contour>
    <contour>
      <point x="860" y="0" type="move" name="O"/>
    </contour>
  </outline>
</glyph>
<glyph name="LtnSmWDiaer" format="1">
  <advance width="1446"/>
  <unicode hex="1E85"/>
  <outline>
    <component base="LtnSmW"/>
    <component base="CombDiaer" xOffset="1265"/>
    <contour>
      <point x="750" y="1410" type="move" name="U"/>
    </contour>
    <contour>
      <point x="730" y="-100" type="move" name="L"/>
    </contour>
  </outline>
</glyph>
<glyph name="LtnCapWDotBlw" format="1">
  <advance width="1741"/>
  <unicode hex="1E88"/>
  <outline>
    <component base="LtnCapW"/>
    <component base="CombDotBlw" xOffset="1376"/>
    <contour>
      <point x="861" y="1370" type="move" name="U"/>
    </contour>
    <contour>
      <point x="861" y="-600" type="move" name="L"/>
    </contour>
  </outline>
</glyph>
<glyph name="LtnCapXDotAbv" format="1">
  <advance width="1260"/>
  <unicode hex="1E8A"/>
  <outline>
    <component base="LtnCapX"/>
    <component base="CombDotAbv.LP" xOffset="1145" yOffset="320"/>
    <contour>
      <point x="630" y="1690" type="move" name="U"/>
    </contour>
    <contour>
      <point x="630" y="-100" type="move" name="L"/>
    </contour>
  </outline>
</glyph>
<glyph name="LtnSmXDotAbv" format="1">
  <advance width="1030"/>
  <unicode hex="1E8B"/>
  <outline>
    <component base="LtnSmX"/>
    <component base="CombDotAbv" xOffset="1033"/>
    <contour>
      <point x="800" y="0" type="move" name="H"/>
    </contour>
    <contour>
      <point x="518" y="1410" type="move" name="U"/>
    </contour>
    <contour>
      <point x="518" y="-100" type="move" name="L"/>
    </contour>
  </outline>
</glyph>
<glyph name="LtnCapYDotAbv" format="1">
  <advance width="1217"/>
  <unicode hex="1E8E"/>
  <outline>
    <component base="LtnCapY"/>
    <component base="CombDotAbv.LP" xOffset="1119" yOffset="320"/>
    <contour>
      <point x="604" y="1690" type="move" name="U"/>
    </contour>
    <contour>
      <point x="604" y="-100" type="move" name="L"/>
    </contour>
  </outline>
</glyph>
<glyph name="LtnSmZLineBlw" format="1">
  <advance width="869"/>
  <unicode hex="1E95"/>
  <outline>
    <component base="LtnSmZ"/>
    <component base="CombMacronBlw" xOffset="967"/>
    <contour>
      <point x="452" y="0" type="move" name="H"/>
    </contour>
    <contour>
      <point x="480" y="1050" type="move" name="U"/>
    </contour>
    <contour>
      <point x="452" y="-600" type="move" name="L"/>
    </contour>
  </outline>
</glyph>
<glyph name="LtnSmYRingAbv" format="1">
  <advance width="1010"/>
  <unicode hex="1E99"/>
  <outline>
    <component base="LtnSmY"/>
    <component base="CombRingAbv" xOffset="1045"/>
    <contour>
      <point x="1044" y="900" type="move" name="R"/>
    </contour>
    <contour>
      <point x="530" y="1490" type="move" name="U"/>
    </contour>
    <contour>
      <point x="770" y="-100" type="move" name="L"/>
    </contour>
  </outline>
</glyph>
<glyph name="LtnCapACircumHookAbv" format="1">
  <advance width="1219"/>
  <unicode hex="1EA8"/>
  <outline>
    <component base="LtnCapA"/>
    <component base="CombCircum.LP" xOffset="1113" yOffset="320"/>
    <component base="CombHookAbv" xOffset="1117" yOffset="720"/>
    <contour>
      <point x="599" y="0" type="move" name="H"/>
    </contour>
    <contour>
      <point x="599" y="2090" type="move" name="U"/>
    </contour>
    <contour>
      <point x="599" y="-100" type="move" name="L"/>
    </contour>
    <contour>
      <point x="960" y="0" type="move" name="O"/>
    </contour>
  </outline>
</glyph>
<glyph name="LtnSmACircumHookAbv" format="1">
  <advance width="940"/>
  <unicode hex="1EA9"/>
  <outline>
    <component base="LtnSmA"/>
    <component base="CombCircum" xOffset="994"/>
    <component base="CombHookAbv" xOffset="998" yOffset="450"/>
    <contour>
      <point x="446" y="0" type="move" name="H"/>
    </contour>
    <contour>
      <point x="940" y="900" type="move" name="R"/>
    </contour>
    <contour>
      <point x="480" y="1820" type="move" name="U"/>
    </contour>
    <contour>
      <point x="460" y="-100" type="move" name="L"/>
    </contour>
    <contour>
      <point x="715" y="0" type="move" name="O"/>
    </contour>
  </outline>
</glyph>
<glyph name="LtnSmEHookAbv" format="1">
  <advance width="946"/>
  <unicode hex="1EBB"/>
  <outline>
    <component base="LtnSmE"/>
    <component base="CombHookAbv" xOffset="1028"/>
    <contour>
      <point x="500" y="0" type="move" name="H"/>
    </contour>
    <contour>
      <point x="1020" y="900" type="move" name="R"/>
    </contour>
    <contour>
      <point x="510" y="1370" type="move" name="U"/>
    </contour>
    <contour>
      <point x="500" y="-100" type="move" name="L"/>
    </contour>
    <contour>
      <point x="558" y="0" type="move" name="O"/>
    </contour>
  </outline>
</glyph>
<glyph name="LtnCapECircumAcute" format="1">
  <advance width="1016"/>
  <unicode hex="1EBE"/>
  <outline>
    <component base="LtnCapE"/>
    <component base="CombCircum.LP" xOffset="1016" yOffset="320"/>
    <component base="CombAcute.LP" xOffset="1045" yOffset="720"/>
    <contour>
      <point x="502" y="0" type="move" name="H"/>
    </contour>
    <contour>
      <point x="1016" y="1100" type="move" name="R"/>
    </contour>
    <contour>
      <point x="502" y="2090" type="move" name="U"/>
    </contour>
    <contour>
      <point x="502" y="-100" type="move" name="L"/>
    </contour>
    <contour>
      <point x="750" y="0" type="move" name="O"/>
    </contour>
  </outline>
</glyph>
<glyph name="LtnCapIHookAbv" format="1">
  <advance width="610"/>
  <unicode hex="1EC8"/>
  <outline>
    <component base="LtnCapI"/>
    <component base="CombHookAbv" xOffset="813" yOffset="320"/>
    <contour>
      <point x="295" y="0" type="move" name="H"/>
    </contour>
    <contour>
      <point x="580" y="1100" type="move" name="R"/>
    </contour>
    <contour>
      <point x="295" y="1690" type="move" name="U"/>
    </contour>
    <contour>
      <point x="295" y="-100" type="move" name="L"/>
    </contour>
    <contour>
      <point x="345" y="0" type="move" name="O"/>
    </contour>
  </outline>
</glyph>
<glyph name="LtnCapOHornAcute" format="1">
  <advance width="1229"/>
  <unicode hex="1EDA"/>
  <outline>
    <component base="LtnCapO" xOffset="-2"/>
    <component base="CombHorn" xOffset="1150" yOffset="350"/>
    <component base="CombAcute.LP" xOffset="1158" yOffset="320"/>
    <contour>
      <point x="615" y="1690" type="move" name="U"/>
    </contour>
    <contour>
      <point x="615" y="-100" type="move" name="L"/>
    </contour>
  </outline>
</glyph>
<glyph name="LtnSmOHornAcute" format="1">
  <advance width="1100"/>
  <unicode hex="1EDB"/>
  <outline>
    <component base="LtnSmO"/>
    <component base="CombHorn" xOffset="1073"/>
    <component base="CombAcute" xOffset="1078"/>
    <contour>
      <point x="535" y="1410" type="move" name="U"/>
    </contour>
    <contour>
      <point x="535" y="-100" type="move" name="L"/>
    </contour>
  </outline>
</glyph>
<glyph name="LtnCapOHornHookAbv" format="1">
  <advance width="1229"/>
  <unicode hex="1EDE"/>
  <outline>
    <component base="LtnCapO" xOffset="-2"/>
    <component base="CombHorn" xOffset="1150" yOffset="350"/>
    <component base="CombHookAbv" xOffset="1133" yOffset="320"/>
    <contour>
      <point x="615" y="1690" type="move" name="U"/>
    </contour>
    <contour>
      <point x="615" y="-100" type="move" name="L"/>
    </contour>
  </outline>
</glyph>
<glyph name="LtnSmOHornHookAbv" format="1">
  <advance width="1100"/>
  <unicode hex="1EDF"/>
  <outline>
    <component base="LtnSmO"/>
    <component base="CombHorn" xOffset="1073"/>
    <component base="CombHookAbv" xOffset="1053"/>
    <contour>
      <point x="535" y="1370" type="move" name="U"/>
    </contour>
    <contour>
      <point x="535" y="-100" type="move" name="L"/>
    </contour>
  </outline>
</glyph>
<glyph name="LtnCapOHornDotBlw" format="1">
  <advance width="1229"/>
  <unicode hex="1EE2"/>
  <outline>
    <component base="LtnCapO" xOffset="-2"/>
    <component base="CombHorn" xOffset="1150" yOffset="350"/>
    <component base="CombDotBlw" xOffset="1130"/>
    <contour>
      <point x="615" y="1370" type="move" name="U"/>
    </contour>
    <contour>
      <point x="615" y="-600" type="move" name="L"/>
    </contour>
  </outline>
</glyph>
<glyph name="LtnSmOHornDotBlw" format="1">
  <advance width="1100"/>
  <unicode hex="1EE3"/>
  <outline>
    <component base="LtnSmO"/>
    <component base="CombHorn" xOffset="1073"/>
    <component base="CombDotBlw" xOffset="1050"/>
    <contour>
      <point x="535" y="1050" type="move" name="U"/>
    </contour>
    <contour>
      <point x="535" y="-600" type="move" name="L"/>
    </contour>
  </outline>
</glyph>
<glyph name="LtnCapUHookAbv" format="1">
  <advance width="1339"/>
  <unicode hex="1EE6"/>
  <outline>
    <component base="LtnCapU"/>
    <component base="CombHookAbv" xOffset="1195" yOffset="320"/>
    <contour>
      <point x="677" y="0" type="move" name="H"/>
    </contour>
    <contour>
      <point x="1330" y="1100" type="move" name="R"/>
    </contour>
    <contour>
      <point x="677" y="1690" type="move" name="U"/>
    </contour>
    <contour>
      <point x="677" y="-100" type="move" name="L"/>
    </contour>
    <contour>
      <point x="760" y="0" type="move" name="O"/>
    </contour>
  </outline>
</glyph>
<glyph name="LtnCapUHornGrave" format="1">
  <advance width="1400"/>
  <unicode hex="1EEA"/>
  <outline>
    <component base="LtnCapU"/>
    <component base="CombHorn" xOffset="1330" yOffset="350"/>
    <component base="CombGrave.LP" xOffset="1110" yOffset="320"/>
    <contour>
      <point x="677" y="1690" type="move" name="U"/>
    </contour>
    <contour>
      <point x="677" y="-100" type="move" name="L"/>
    </contour>
  </outline>
</glyph>
<glyph name="LtnCapUHornHookAbv" format="1">
  <advance width="1400"/>
  <unicode hex="1EEC"/>
  <outline>
    <component base="LtnCapU"/>
    <component base="CombHorn" xOffset="1330" yOffset="350"/>
    <component base="CombHookAbv" xOffset="1195" yOffset="320"/>
    <contour>
      <point x="677" y="1690" type="move" name="U"/>
    </contour>
    <contour>
      <point x="677" y="-100" type="move" name="L"/>
    </contour>
  </outline>
</glyph>
<glyph name="LtnSmUHornHookAbv" format="1">
  <advance width="1255"/>
  <unicode hex="1EED"/>
  <outline>
    <component base="LtnSmU"/>
    <component base="CombHorn" xOffset="1185"/>
    <component base="CombHookAbv" xOffset="1063"/>
    <contour>
      <point x="545" y="1370" type="move" name="U"/>
    </contour>
    <contour>
      <point x="545" y="-100" type="move" name="L"/>
    </contour>
  </outline>
</glyph>
<glyph name="LtnCapUHornTilde" format="1">
  <advance width="1400"/>
  <unicode hex="1EEE"/>
  <outline>
    <component base="LtnCapU"/>
    <component base="CombHorn" xOffset="1330" yOffset="350"/>
    <component base="CombTilde.LP" xOffset="1192" yOffset="320"/>
    <contour>
      <point x="677" y="1690" type="move" name="U"/>
    </contour>
    <contour>
      <point x="677" y="-100" type="move" name="L"/>
    </contour>
  </outline>
</glyph>
<glyph name="LtnSmUHornTilde" format="1">
  <advance width="1255"/>
  <unicode hex="1EEF"/>
  <outline>
    <component base="LtnSmU"/>
    <component base="CombHorn" xOffset="1185"/>
    <component base="CombTilde" xOffset="1060"/>
    <contour>
      <point x="545" y="1410" type="move" name="U"/>
    </contour>
    <contour>
      <point x="545" y="-100" type="move" name="L"/>
    </contour>
  </outline>
</glyph>
<glyph name="LtnCapUHornDotBlw" format="1">
  <advance width="1400"/>
  <unicode hex="1EF0"/>
  <outline>
    <component base="LtnCapU"/>
    <component base="CombHorn" xOffset="1330" yOffset="350"/>
    <component base="CombDotBlw" xOffset="1192"/>
    <contour>
      <point x="677" y="1370" type="move" name="U"/>
    </contour>
    <contour>
      <point x="677" y="-600" type="move" name="L"/>
    </contour>
  </outline>
</glyph>
<glyph name="LtnSmUHornDotBlw" format="1">
  <advance width="1255"/>
  <unicode hex="1EF1"/>
  <outline>
    <component base="LtnSmU"/>
    <component base="CombHorn" xOffset="1185"/>
    <component base="CombDotBlw" xOffset="1060"/>
    <contour>
      <point x="545" y="1050" type="move" name="U"/>
    </contour>
    <contour>
      <point x="545" y="-600" type="move" name="L"/>
    </contour>
  </outline>
</glyph>
<glyph name="LtnSmYDotBlw" format="1">
  <advance width="1010"/>
  <unicode hex="1EF5"/>
  <outline>
    <component base="LtnSmY"/>
    <component base="CombDotBlw" xOffset="1285"/>
    <contour>
      <point x="1044" y="900" type="move" name="R"/>
    </contour>
    <contour>
      <point x="530" y="1050" type="move" name="U"/>
    </contour>
    <contour>
      <point x="770" y="-600" type="move" name="L"/>
    </contour>
  </outline>
</glyph>
<glyph name="LtnCapYHookAbv" format="1">
  <advance width="1217"/>
  <unicode hex="1EF6"/>
  <outline>
    <component base="LtnCapY"/>
    <component base="CombHookAbv" xOffset="1122" yOffset="320"/>
    <contour>
      <point x="604" y="1690" type="move" name="U"/>
    </contour>
    <contour>
      <point x="604" y="-100" type="move" name="L"/>
    </contour>
  </outline>
</glyph>
<glyph name="LtnSmYTilde" format="1">
  <advance width="1010"/>
  <unicode hex="1EF9"/>
  <outline>
    <component base="LtnSmY"/>
    <component base="CombTilde" xOffset="1045"/>
    <contour>
      <point x="1044" y="900" type="move" name="R"/>
    </contour>
    <contour>
      <point x="530" y="1410" type="move" name="U"/>
    </contour>
    <contour>
      <point x="770" y="-100" type="move" name="L"/>
    </contour>
  </outline>
</glyph>
<glyph name="Caret" format="1">
  <advance width="529"/>
  <unicode hex="2038"/>
  <outline>
    <contour>
      <point x="529" y="-264" type="line"/>
      <point x="325" y="29" type="line"/>
      <point x="204" y="29" type="line"/>
      <point x="0" y="-264" type="line"/>
      <point x="122" y="-264" type="line"/>
      <point x="264" y="-57" type="line"/>
      <point x="407" y="-264" type="line"/>
    </contour>
  </outline>
</glyph>
<glyph name="CaretInsPt" format="1">
  <advance width="800"/>
  <unicode hex="2041"/>
  <outline>
    <contour>
      <point x="307" y="-3" type="line"/>
      <point x="511" y="-408" type="line"/>
      <point x="534" y="-425" type="line"/>
      <point x="563" y="-414"/>
      <point x="620" y="-374"/>
      <point x="640" y="-358" type="curve"/>
      <point x="386" y="166" type="line"/>
    </contour>
    <contour>
      <point x="744" y="931" type="line"/>
      <point x="731" y="955" type="line"/>
      <point x="707" y="944"/>
      <point x="636" y="929"/>
      <point x="614" y="909" type="curve"/>
      <point x="5" y="-399" type="line"/>
      <point x="19" y="-425" type="line"/>
      <point x="36" y="-418"/>
      <point x="117" y="-384"/>
      <point x="135" y="-367" type="curve"/>
    </contour>
  </outline>
</glyph>
<glyph name="CombLftHarpoonBarbDwnBlw" format="1">
  <advance width="0"/>
  <unicode hex="20ED"/>
  <outline>
    <contour>
      <point x="-241" y="-282" type="curve"/>
      <point x="-266" y="-255" type="line"/>
      <point x="-820" y="-255" type="line"/>
      <point x="-695" y="-345" type="line"/>
      <point x="-268" y="-345" type="line"/>
      <point x="-256" y="-323"/>
      <point x="-248" y="-308"/>
    </contour>
    <contour>
      <point x="-820" y="-255" type="line"/>
      <point x="-631" y="-500" type="line"/>
      <point x="-575" y="-475" type="line"/>
      <point x="-682" y="-300" type="line"/>
    </contour>
    <contour>
      <point x="-532" y="-600" type="move" name="L"/>
    </contour>
    <contour>
      <point x="-532" y="-100" type="move" name="_L"/>
    </contour>
  </outline>
</glyph>
<glyph name="CombLftArrwBlw" format="1">
  <advance width="0"/>
  <unicode hex="20EE"/>
  <outline>
    <contour>
      <point x="-248" y="-282" type="curve"/>
      <point x="-273" y="-255" type="line"/>
      <point x="-694" y="-255" type="line"/>
      <point x="-615" y="-125" type="line"/>
      <point x="-671" y="-100" type="line"/>
      <point x="-824" y="-300" type="line"/>
      <point x="-671" y="-500" type="line"/>
      <point x="-615" y="-475" type="line"/>
      <point x="-694" y="-345" type="line"/>
      <point x="-275" y="-345" type="line"/>
      <point x="-263" y="-323"/>
      <point x="-255" y="-308"/>
    </contour>
    <contour>
      <point x="-532" y="-600" type="move" name="L"/>
    </contour>
    <contour>
      <point x="-532" y="-100" type="move" name="_L"/>
    </contour>
  </outline>
</glyph>
<glyph name="RomNumThree" format="1">
  <advance width="1830"/>
  <unicode hex="2162"/>
  <outline>
    <component base="LtnCapI"/>
    <component base="LtnCapI" xOffset="610"/>
    <component base="LtnCapI" xOffset="1220"/>
    <contour>
      <point x="902" y="1370" type="move" name="U"/>
    </contour>
  </outline>
</glyph>
<glyph name="RomNumFive" format="1">
  <advance width="1331"/>
  <unicode hex="2164"/>
  <outline>
    <component base="LtnCapV"/>
    <contour>
      <point x="665" y="1370" type="move" name="U"/>
    </contour>
  </outline>
</glyph>
<glyph name="RomNumTen" format="1">
  <advance width="1260"/>
  <unicode hex="2169"/>
  <outline>
    <component base="LtnCapX"/>
    <contour>
      <point x="630" y="1370" type="move" name="U"/>
    </contour>
  </outline>
</glyph>
<glyph name="RomNumOneHundred" format="1">
  <advance width="1098"/>
  <unicode hex="216D"/>
  <outline>
    <component base="LtnCapC"/>
    <contour>
      <point x="614" y="1370" type="move" name="U"/>
    </contour>
  </outline>
</glyph>
<glyph name="SmRomNumTwo" format="1">
  <advance width="1110"/>
  <unicode hex="2171"/>
  <outline>
    <component base="LtnSmI"/>
    <component base="LtnSmI" xOffset="555"/>
    <contour>
      <point x="550" y="1370" type="move" name="U"/>
    </contour>
  </outline>
</glyph>
<glyph name="SmRomNumFour" format="1">
  <advance width="1565"/>
  <unicode hex="2173"/>
  <outline>
    <component base="LtnSmI"/>
    <component base="LtnSmV" xOffset="555"/>
    <contour>
      <point x="781" y="1370" type="move" name="U"/>
    </contour>
  </outline>
</glyph>
<glyph name="SmRomNumSeven" format="1">
  <advance width="2120"/>
  <unicode hex="2176"/>
  <outline>
    <component base="LtnSmV"/>
    <component base="LtnSmI" xOffset="1010"/>
    <component base="LtnSmI" xOffset="1565"/>
    <contour>
      <point x="1052" y="1370" type="move" name="U"/>
    </contour>
  </outline>
</glyph>
<glyph name="SmRomNumEight" format="1">
  <advance width="2675"/>
  <unicode hex="2177"/>
  <outline>
    <component base="LtnSmV"/>
    <component base="LtnSmI" xOffset="1010"/>
    <component base="LtnSmI" xOffset="1565"/>
    <component base="LtnSmI" xOffset="2120"/>
    <contour>
      <point x="1372" y="1370" type="move" name="U"/>
    </contour>
  </outline>
</glyph>
<glyph name="SmRomNumNine" format="1">
  <advance width="1585"/>
  <unicode hex="2178"/>
  <outline>
    <component base="LtnSmI"/>
    <component base="LtnSmX" xOffset="555"/>
    <contour>
      <point x="781" y="1370" type="move" name="U"/>
    </contour>
  </outline>
</glyph>
<glyph name="RomNumFiftyEarly" format="1">
  <advance width="1241"/>
  <unicode hex="2186"/>
  <outline>
    <contour>
      <point x="690" y="1260" type="line"/>
      <point x="530" y="1260" type="line"/>
      <point x="530" y="295" type="line"/>
      <point x="200" y="824" type="line"/>
      <point x="20" y="824" type="line"/>
      <point x="590" y="-30" type="line"/>
      <point x="630" y="-30" type="line"/>
      <point x="1200" y="824" type="line"/>
      <point x="1020" y="824" type="line"/>
      <point x="690" y="295" type="line"/>
    </contour>
    <contour>
      <point x="612" y="1370" type="move" name="U"/>
    </contour>
  </outline>
</glyph>
<glyph name="NotSubsetOf" format="1">
  <advance width="899"/>
  <unicode hex="2284"/>
  <outline>
    <contour>
      <point x="830" y="918" type="curve"/>
      <point x="805" y="943" type="line"/>
      <point x="483" y="943" type="line" smooth="yes"/>
      <point x="202" y="943"/>
      <point x="68" y="772"/>
      <point x="68" y="568" type="curve" smooth="yes"/>
      <point x="68" y="364"/>
      <point x="202" y="193"/>
      <point x="483" y="193" type="curve" smooth="yes"/>
      <point x="801" y="193" type="line"/>
      <point x="809" y="218"/>
      <point x="823" y="250"/>
      <point x="830" y="278" type="curve"/>
      <point x="805" y="303" type="line"/>
      <point x="494" y="303" type="line" smooth="yes"/>
      <point x="297" y="303"/>
      <point x="194" y="390"/>
      <point x="194" y="568" type="curve" smooth="yes"/>
      <point x="194" y="738"/>
      <point x="297" y="834"/>
      <point x="494" y="834" type="curve" smooth="yes"/>
      <point x="801" y="834" type="line"/>
      <point x="809" y="859"/>
      <point x="823" y="890"/>
    </contour>
    <contour>
      <point x="778" y="1045" type="line"/>
      <point x="749" y="1078" type="line"/>
      <point x="708" y="1068"/>
      <point x="663" y="1051"/>
      <point x="626" y="1029" type="curve"/>
      <point x="130" y="116" type="line"/>
      <point x="154" y="81" type="line"/>
      <point x="187" y="91"/>
      <point x="255" y="114"/>
      <point x="279" y="132" type="curve"/>
    </contour>
  </outline>
</glyph>
<glyph name="SqrTxtBracHighLft" format="1">
  <advance width="800"/>
  <unicode hex="2308"/>
  <outline>
    <contour>
      <point x="200" y="1400" type="line"/>
      <point x="200" y="300" type="line"/>
      <point x="287" y="300" type="line"/>
      <point x="287" y="1313" type="line"/>
      <point x="600" y="1313" type="line"/>
      <point x="600" y="1400" type="line"/>
    </contour>
  </outline>
</glyph>
<glyph name="SupplRtRaisedOmBrac" format="1">
  <advance width="670"/>
  <unicode hex="2E0D"/>
  <outline>
    <contour>
      <point x="44" y="721" type="line"/>
      <point x="69" y="707"/>
      <point x="108" y="689"/>
      <point x="129" y="683" type="curve"/>
      <point x="600" y="1190" type="line"/>
      <point x="596" y="1224" type="line"/>
      <point x="571" y="1239"/>
      <point x="537" y="1254"/>
      <point x="511" y="1262" type="curve"/>
      <point x="40" y="755" type="line"/>
    </contour>
  </outline>
</glyph>
<glyph name="LtnSmCuatrillo" format="1">
  <advance width="904"/>
  <unicode hex="A72D"/>
  <outline>
    <contour>
      <point x="811" y="0" type="line"/>
      <point x="841" y="22"/>
      <point x="853" y="31"/>
      <point x="874" y="60" type="curve"/>
      <point x="848" y="90" type="line"/>
      <point x="725" y="90" type="line"/>
      <point x="725" y="925" type="line"/>
      <point x="688" y="960" type="line"/>
      <point x="649" y="940"/>
      <point x="603" y="913"/>
      <point x="548" y="889" type="curve"/>
      <point x="22" y="33" type="line"/>
      <point x="55" y="0" type="line"/>
      <point x="585" y="0" type="line"/>
      <point x="585" y="-30" type="line" smooth="yes"/>
      <point x="585" y="-282"/>
      <point x="463" y="-380"/>
      <point x="388" y="-380" type="curve" smooth="yes"/>
      <point x="337" y="-380"/>
      <point x="275" y="-361"/>
      <point x="198" y="-290" type="curve"/>
      <point x="160" y="-309"/>
      <point x="69" y="-378"/>
      <point x="69" y="-401" type="curve" smooth="yes"/>
      <point x="69" y="-440"/>
      <point x="177" y="-500"/>
      <point x="277" y="-500" type="curve" smooth="yes"/>
      <point x="328" y="-500"/>
      <point x="448" y="-466"/>
      <point x="520" y="-407" type="curve" smooth="yes"/>
      <point x="614" y="-330"/>
      <point x="725" y="-242"/>
      <point x="725" y="0" type="curve"/>
    </contour>
    <contour>
      <point x="585" y="90" type="line"/>
      <point x="171" y="90" type="line"/>
      <point x="585" y="754" type="line"/>
    </contour>
    <contour>
      <point x="516" y="1050" type="move" name="U"/>
    </contour>
    <contour>
      <point x="444" y="-600" type="move" name="L"/>
    </contour>
  </outline>
</glyph>
<glyph name="LtnCapOCurl" format="1">
  <advance width="1578"/>
  <unicode hex="A74C"/>
  <outline>
    <contour>
      <point x="1138" y="647" type="curve" smooth="yes"/>
      <point x="1138" y="973"/>
      <point x="963" y="1290"/>
      <point x="633" y="1290" type="curve" smooth="yes"/>
      <point x="319" y="1290"/>
      <point x="70" y="975"/>
      <point x="70" y="612" type="curve" smooth="yes"/>
      <point x="70" y="276"/>
      <point x="254" y="-30"/>
      <point x="575" y="-30" type="curve" smooth="yes"/>
      <point x="879" y="-30"/>
      <point x="1138" y="285"/>
    </contour>
    <contour>
      <point x="983" y="629" type="curve" smooth="yes"/>
      <point x="983" y="276"/>
      <point x="825" y="90"/>
      <point x="604" y="90" type="curve" smooth="yes"/>
      <point x="399" y="90"/>
      <point x="225" y="342"/>
      <point x="225" y="641" type="curve" smooth="yes"/>
      <point x="225" y="967"/>
      <point x="367" y="1175"/>
      <point x="604" y="1175" type="curve" smooth="yes"/>
      <point x="831" y="1175"/>
      <point x="983" y="905"/>
    </contour>
    <contour>
      <point x="1527" y="1011" type="curve"/>
      <point x="1527" y="1196"/>
      <point x="1398" y="1287"/>
      <point x="1215" y="1287" type="curve" smooth="yes"/>
      <point x="1086" y="1287"/>
      <point x="979" y="1209"/>
      <point x="892" y="1124" type="curve"/>
      <point x="942" y="1068" type="line"/>
      <point x="1009" y="1131"/>
      <point x="1078" y="1186"/>
      <point x="1171" y="1186" type="curve" smooth="yes"/>
      <point x="1285" y="1186"/>
      <point x="1365" y="1099"/>
      <point x="1365" y="985" type="curve" smooth="yes"/>
      <point x="1365" y="830"/>
      <point x="1286" y="712"/>
      <point x="1097" y="712" type="curve"/>
      <point x="1041" y="647" type="line"/>
      <point x="1351" y="624"/>
      <point x="1531" y="787"/>
    </contour>
    <contour>
      <point x="615" y="1370" type="move" name="U"/>
    </contour>
    <contour>
      <point x="603" y="-100" type="move" name="L"/>
    </contour>
  </outline>
</glyph>
<glyph name="LtnSmRRotunda" format="1">
  <advance width="658"/>
  <unicode hex="A75B"/>
  <outline>
    <contour>
      <point x="625" y="695" type="curve" smooth="yes"/>
      <point x="625" y="866"/>
      <point x="513" y="959"/>
      <point x="325" y="959" type="curve" smooth="yes"/>
      <point x="178" y="959"/>
      <point x="44" y="845"/>
      <point x="-41" y="755" type="curve"/>
      <point x="-19" y="693" type="line"/>
      <point x="86" y="786"/>
      <point x="180" y="829"/>
      <point x="262" y="829" type="curve" smooth="yes"/>
      <point x="419" y="829"/>
      <point x="453" y="717"/>
      <point x="453" y="635" type="curve" smooth="yes"/>
      <point x="453" y="490"/>
      <point x="304" y="395"/>
      <point x="187" y="398" type="curve"/>
      <point x="187" y="398"/>
      <point x="110" y="367"/>
      <point x="68" y="337" type="curve"/>
      <point x="72" y="318"/>
      <point x="82" y="298"/>
      <point x="82" y="298" type="curve"/>
      <point x="316" y="322"/>
      <point x="625" y="426"/>
    </contour>
    <contour>
      <point x="82" y="298" type="line"/>
      <point x="339" y="43" type="line" smooth="yes"/>
      <point x="374" y="9"/>
      <point x="418" y="-10"/>
      <point x="474" y="-10" type="curve" smooth="yes"/>
      <point x="502" y="-10"/>
      <point x="580" y="0"/>
      <point x="658" y="18" type="curve"/>
      <point x="652" y="61" type="line"/>
      <point x="574" y="54"/>
      <point x="530" y="83"/>
      <point x="498" y="111" type="curve" smooth="yes"/>
      <point x="232" y="343" type="line"/>
    </contour>
    <contour>
      <point x="304" y="1050" type="move" name="U"/>
    </contour>
    <contour>
      <point x="272" y="-100" type="move" name="L"/>
    </contour>
  </outline>
</glyph>
<glyph name="LtnCapInsularG" format="1">
  <advance width="986"/>
  <unicode hex="A77D"/>
  <outline>
    <contour>
      <point x="868" y="1236" type="curve"/>
      <point x="845" y="1260" type="line"/>
      <point x="100" y="1260" type="line"/>
      <point x="88" y="1234"/>
      <point x="76" y="1198"/>
      <point x="69" y="1169" type="curve"/>
      <point x="94" y="1145" type="line"/>
      <point x="839" y="1145" type="line"/>
      <point x="850" y="1167"/>
      <point x="862" y="1207"/>
    </contour>
    <contour>
      <point x="839" y="1145" type="curve"/>
      <point x="838" y="1160"/>
      <point x="768" y="1175"/>
      <point x="676" y="1175" type="curve" smooth="yes"/>
      <point x="539" y="1175"/>
      <point x="261" y="1094"/>
      <point x="261" y="926" type="curve" smooth="yes"/>
      <point x="261" y="660"/>
      <point x="811" y="610"/>
      <point x="811" y="380" type="curve" smooth="yes"/>
      <point x="811" y="210"/>
      <point x="700" y="73"/>
      <point x="512" y="73" type="curve" smooth="yes"/>
      <point x="313" y="73"/>
      <point x="187" y="193"/>
      <point x="187" y="352" type="curve" smooth="yes"/>
      <point x="187" y="429"/>
      <point x="279" y="557"/>
      <point x="577" y="654" type="curve"/>
      <point x="525" y="717" type="line"/>
      <point x="191" y="602"/>
      <point x="30" y="475"/>
      <point x="30" y="304" type="curve" smooth="yes"/>
      <point x="30" y="83"/>
      <point x="253" y="-30"/>
      <point x="467" y="-30" type="curve" smooth="yes"/>
      <point x="741" y="-30"/>
      <point x="956" y="188"/>
      <point x="956" y="410" type="curve" smooth="yes"/>
      <point x="956" y="705"/>
      <point x="420" y="755"/>
      <point x="426" y="957" type="curve" smooth="yes"/>
      <point x="430" y="1092"/>
      <point x="678" y="1145"/>
    </contour>
    <contour>
      <point x="470" y="-100" type="move" name="L"/>
    </contour>
    <contour>
      <point x="470" y="1370" type="move" name="U"/>
    </contour>
  </outline>
</glyph>
<glyph name="LtnCapSaltillo" format="1">
  <advance width="512"/>
  <unicode hex="A78B"/>
  <outline>
    <contour>
      <point x="357" y="1554" type="line"/>
      <point x="304" y="1580" type="line"/>
      <point x="276" y="1574"/>
      <point x="165" y="1538"/>
      <point x="135" y="1521" type="curve"/>
      <point x="203" y="683" type="line"/>
      <point x="234" y="683"/>
      <point x="279" y="693"/>
      <point x="299" y="704" type="curve"/>
    </contour>
    <contour>
      <point x="256" y="1620" type="move" name="U"/>
    </contour>
    <contour>
      <point x="256" y="100" type="move" name="L"/>
    </contour>
  </outline>
</glyph>
<glyph name="KayahLiSignCwi" format="1">
  <advance width="1130"/>
  <unicode hex="A92E"/>
  <outline>
    <contour>
      <point x="49" y="400" type="curve"/>
      <point x="57" y="381"/>
      <point x="77" y="355"/>
      <point x="93" y="338" type="curve"/>
      <point x="275" y="458"/>
      <point x="520" y="459"/>
      <point x="574" y="459" type="curve" smooth="yes"/>
      <point x="621" y="459"/>
      <point x="878" y="459"/>
      <point x="1053" y="344" type="curve"/>
      <point x="1074" y="361"/>
      <point x="1089" y="376"/>
      <point x="1100" y="400" type="curve"/>
      <point x="967" y="540"/>
      <point x="770" y="590"/>
      <point x="572" y="590" type="curve" smooth="yes"/>
      <point x="390" y="590"/>
      <point x="212" y="536"/>
    </contour>
  </outline>
</glyph>
<glyph name="KayahLiSignCwi" format="1">
  <advance width="1130"/>
  <unicode hex="A92E"/>
  <outline>
    <contour>
      <point x="49" y="400" type="curve"/>
      <point x="57" y="381"/>
      <point x="77" y="355"/>
      <point x="93" y="338" type="curve"/>
      <point x="275" y="458"/>
      <point x="520" y="459"/>
      <point x="574" y="459" type="curve" smooth="yes"/>
      <point x="621" y="459"/>
      <point x="878" y="459"/>
      <point x="1053" y="344" type="curve"/>
      <point x="1074" y="361"/>
      <point x="1089" y="376"/>
      <point x="1100" y="400" type="curve"/>
      <point x="967" y="540"/>
      <point x="770" y="590"/>
      <point x="572" y="590" type="curve" smooth="yes"/>
      <point x="390" y="590"/>
      <point x="212" y="536"/>
    </contour>
  </outline>
</glyph>
<glyph name="CombAcute_Grave_AcuteDep" format="1">
  <advance width="0"/>
  <unicode hex="F179"/>
  <outline>
    <contour>
      <point x="-852" y="1037" type="line"/>
      <point x="-79" y="1037" type="line"/>
      <point x="-79" y="1415" type="line"/>
      <point x="-852" y="1415" type="line"/>
    </contour>
    <contour>
      <point x="-563" y="1245" type="line"/>
      <point x="-785" y="1067" type="line"/>
      <point x="-803" y="1078"/>
      <point x="-807" y="1085"/>
      <point x="-822" y="1109" type="curve"/>
      <point x="-613" y="1385" type="line"/>
      <point x="-517" y="1385" type="line"/>
      <point x="-368" y="1205" type="line"/>
      <point x="-146" y="1385" type="line"/>
      <point x="-128" y="1375"/>
      <point x="-124" y="1367"/>
      <point x="-109" y="1343" type="curve"/>
      <point x="-318" y="1067" type="line"/>
      <point x="-414" y="1067" type="line"/>
    </contour>
    <contour>
      <point x="-514" y="1050" type="move" name="_U"/>
    </contour>
  </outline>
</glyph>
<glyph name="TnLtrNineSeg11" format="1">
  <advance width="900"/>
  <unicode hex="F1F1"/>
  <outline>
    <contour>
      <point x="1" y="-335" type="curve" smooth="yes"/>
      <point x="899" y="-335" type="line" smooth="yes"/>
      <point x="928" y="-335"/>
      <point x="951" y="-312"/>
      <point x="951" y="-283" type="curve" smooth="yes"/>
      <point x="951" y="-254"/>
      <point x="928" y="-231"/>
      <point x="899" y="-231" type="curve" smooth="yes"/>
      <point x="1" y="-231" type="line" smooth="yes"/>
      <point x="-28" y="-231"/>
      <point x="-51" y="-254"/>
      <point x="-51" y="-283" type="curve" smooth="yes"/>
      <point x="-51" y="-312"/>
      <point x="-28" y="-335"/>
    </contour>
  </outline>
</glyph>
<glyph name="TnLtrNineSeg44" format="1">
  <advance width="900"/>
  <unicode hex="F1F4"/>
  <outline>
    <contour>
      <point x="1" y="352" type="curve" smooth="yes"/>
      <point x="899" y="352" type="line" smooth="yes"/>
      <point x="928" y="352"/>
      <point x="951" y="375"/>
      <point x="951" y="404" type="curve" smooth="yes"/>
      <point x="951" y="433"/>
      <point x="928" y="456"/>
      <point x="899" y="456" type="curve" smooth="yes"/>
      <point x="1" y="456" type="line" smooth="yes"/>
      <point x="-28" y="456"/>
      <point x="-51" y="433"/>
      <point x="-51" y="404" type="curve" smooth="yes"/>
      <point x="-51" y="375"/>
      <point x="-28" y="352"/>
    </contour>
  </outline>
</glyph>
<glyph name="TnLtrNineSeg66" format="1">
  <advance width="900"/>
  <unicode hex="F1F6"/>
  <outline>
    <contour>
      <point x="1" y="810" type="curve" smooth="yes"/>
      <point x="899" y="810" type="line" smooth="yes"/>
      <point x="928" y="810"/>
      <point x="951" y="833"/>
      <point x="951" y="862" type="curve" smooth="yes"/>
      <point x="951" y="891"/>
      <point x="928" y="914"/>
      <point x="899" y="914" type="curve" smooth="yes"/>
      <point x="1" y="914" type="line" smooth="yes"/>
      <point x="-28" y="914"/>
      <point x="-51" y="891"/>
      <point x="-51" y="862" type="curve" smooth="yes"/>
      <point x="-51" y="833"/>
      <point x="-28" y="810"/>
    </contour>
  </outline>
</glyph>
<glyph name="TnLtrNineSeg77" format="1">
  <advance width="900"/>
  <unicode hex="F1F7"/>
  <outline>
    <contour>
      <point x="1" y="1039" type="curve" smooth="yes"/>
      <point x="899" y="1039" type="line" smooth="yes"/>
      <point x="928" y="1039"/>
      <point x="951" y="1062"/>
      <point x="951" y="1091" type="curve" smooth="yes"/>
      <point x="951" y="1120"/>
      <point x="928" y="1143"/>
      <point x="899" y="1143" type="curve" smooth="yes"/>
      <point x="1" y="1143" type="line" smooth="yes"/>
      <point x="-28" y="1143"/>
      <point x="-51" y="1120"/>
      <point x="-51" y="1091" type="curve" smooth="yes"/>
      <point x="-51" y="1062"/>
      <point x="-28" y="1039"/>
    </contour>
  </outline>
</glyph>
<glyph name="TnLtrNineSeg88" format="1">
  <advance width="900"/>
  <unicode hex="F1F8"/>
  <outline>
    <contour>
      <point x="1" y="1268" type="curve" smooth="yes"/>
      <point x="899" y="1268" type="line" smooth="yes"/>
      <point x="928" y="1268"/>
      <point x="951" y="1291"/>
      <point x="951" y="1320" type="curve" smooth="yes"/>
      <point x="951" y="1349"/>
      <point x="928" y="1372"/>
      <point x="899" y="1372" type="curve" smooth="yes"/>
      <point x="1" y="1372" type="line" smooth="yes"/>
      <point x="-28" y="1372"/>
      <point x="-51" y="1349"/>
      <point x="-51" y="1320" type="curve" smooth="yes"/>
      <point x="-51" y="1291"/>
      <point x="-28" y="1268"/>
    </contour>
  </outline>
</glyph>
<glyph name="CombCircumAcute.VNLP" format="1">
  <advance width="0"/>
  <outline>
    <contour>
      <point x="-198" y="1092" type="curve"/>
      <point x="-460" y="1401" type="line"/>
      <point x="-567" y="1401" type="line"/>
      <point x="-831" y="1092" type="line"/>
      <point x="-812" y="1067"/>
      <point x="-808" y="1057"/>
      <point x="-786" y="1047" type="curve"/>
      <point x="-515" y="1255" type="line"/>
      <point x="-241" y="1047" type="line"/>
      <point x="-218" y="1057"/>
      <point x="-214" y="1067"/>
    </contour>
    <contour>
      <point x="-312" y="1355" type="line"/>
      <point x="-300" y="1339"/>
      <point x="-293" y="1326"/>
      <point x="-277" y="1320" type="curve"/>
      <point x="-13" y="1465" type="line"/>
      <point x="-22" y="1512" type="line"/>
      <point x="-51" y="1529"/>
      <point x="-82" y="1547"/>
      <point x="-110" y="1556" type="curve"/>
    </contour>
    <contour>
      <point x="-514" y="1450" type="move" name="U"/>
    </contour>
    <contour>
      <point x="-514" y="1050" type="move" name="_U"/>
    </contour>
  </outline>
</glyph>
<glyph name="CombCircumGrave.VN" format="1">
  <advance width="0"/>
  <outline>
    <contour>
      <point x="-198" y="1092" type="curve"/>
      <point x="-460" y="1471" type="line"/>
      <point x="-567" y="1471" type="line"/>
      <point x="-831" y="1092" type="line"/>
      <point x="-812" y="1067"/>
      <point x="-808" y="1057"/>
      <point x="-786" y="1047" type="curve"/>
      <point x="-515" y="1315" type="line"/>
      <point x="-241" y="1047" type="line"/>
      <point x="-218" y="1057"/>
      <point x="-214" y="1067"/>
    </contour>
    <contour>
      <point x="-717" y="1370" type="curve"/>
      <point x="-843" y="1634" type="line"/>
      <point x="-877" y="1634"/>
      <point x="-907" y="1631"/>
      <point x="-941" y="1625" type="curve"/>
      <point x="-966" y="1584" type="line"/>
      <point x="-762" y="1350" type="line"/>
      <point x="-744" y="1354"/>
      <point x="-733" y="1360"/>
    </contour>
    <contour>
      <point x="-514" y="1050" type="move" name="_U"/>
    </contour>
  </outline>
</glyph>
<glyph name="CombCircumTilde.VN" format="1">
  <advance width="0"/>
  <outline>
    <contour>
      <point x="-198" y="1092" type="curve"/>
      <point x="-460" y="1471" type="line"/>
      <point x="-567" y="1471" type="line"/>
      <point x="-831" y="1092" type="line"/>
      <point x="-812" y="1067"/>
      <point x="-808" y="1057"/>
      <point x="-786" y="1047" type="curve"/>
      <point x="-515" y="1315" type="line"/>
      <point x="-241" y="1047" type="line"/>
      <point x="-218" y="1057"/>
      <point x="-214" y="1067"/>
    </contour>
    <contour>
      <point x="-173" y="1736" type="curve"/>
      <point x="-227" y="1759" type="line"/>
      <point x="-272" y="1681"/>
      <point x="-321" y="1636"/>
      <point x="-372" y="1636" type="curve" smooth="yes"/>
      <point x="-436" y="1636"/>
      <point x="-515" y="1749"/>
      <point x="-616" y="1749" type="curve" smooth="yes"/>
      <point x="-720" y="1749"/>
      <point x="-808" y="1632"/>
      <point x="-855" y="1523" type="curve"/>
      <point x="-802" y="1503" type="line"/>
      <point x="-753" y="1577"/>
      <point x="-712" y="1624"/>
      <point x="-659" y="1624" type="curve" smooth="yes"/>
      <point x="-581" y="1624"/>
      <point x="-505" y="1511"/>
      <point x="-413" y="1511" type="curve" smooth="yes"/>
      <point x="-309" y="1511"/>
      <point x="-220" y="1628"/>
    </contour>
    <contour>
      <point x="-514" y="1050" type="move" name="_U"/>
    </contour>
    <contour>
      <point x="-514" y="1750" type="move" name="U"/>
    </contour>
  </outline>
</glyph>
<glyph name="CombDblInvBreve.UL" format="1">
  <advance width="650"/>
  <outline>
    <component base="CombInvBreve.UL"/>
    <contour>
      <point x="-154" y="1050" type="move" name="_U"/>
    </contour>
    <contour>
      <point x="325" y="1370" type="move" name="U"/>
    </contour>
  </outline>
</glyph>
<glyph name="CombDblInvBreve.UU" format="1">
  <advance width="650"/>
  <outline>
    <component base="CombInvBreve.UU"/>
    <contour>
      <point x="-234" y="1050" type="move" name="_U"/>
    </contour>
    <contour>
      <point x="325" y="1370" type="move" name="U"/>
    </contour>
  </outline>
</glyph>
<glyph name="CombDiaer.LP" format="1">
  <advance width="0"/>
  <outline>
    <contour>
      <point x="-615" y="1221" type="curve"/>
      <point x="-615" y="1283"/>
      <point x="-643" y="1316"/>
      <point x="-700" y="1316" type="curve" smooth="yes"/>
      <point x="-763" y="1316"/>
      <point x="-815" y="1256"/>
      <point x="-815" y="1180" type="curve" smooth="yes"/>
      <point x="-815" y="1119"/>
      <point x="-790" y="1084"/>
      <point x="-731" y="1084" type="curve" smooth="yes"/>
      <point x="-665" y="1084"/>
      <point x="-615" y="1146"/>
    </contour>
    <contour>
      <point x="-215" y="1221" type="curve"/>
      <point x="-215" y="1283"/>
      <point x="-243" y="1316"/>
      <point x="-300" y="1316" type="curve" smooth="yes"/>
      <point x="-363" y="1316"/>
      <point x="-415" y="1256"/>
      <point x="-415" y="1180" type="curve" smooth="yes"/>
      <point x="-415" y="1119"/>
      <point x="-390" y="1084"/>
      <point x="-331" y="1084" type="curve" smooth="yes"/>
      <point x="-265" y="1084"/>
      <point x="-215" y="1146"/>
    </contour>
    <contour>
      <point x="-515" y="1370" type="move" name="U"/>
    </contour>
    <contour>
      <point x="-515" y="1050" type="move" name="_U"/>
    </contour>
  </outline>
</glyph>
<glyph name="CombDiaer.UL" format="1">
  <advance width="600"/>
  <outline>
    <component base="CombDiaer" xOffset="815"/>
    <contour>
      <point x="17" y="1050" type="move" name="_U"/>
    </contour>
    <contour>
      <point x="300" y="1410" type="move" name="U"/>
    </contour>
  </outline>
</glyph>
<glyph name="CySmAbkhasDze.RevSigmaStyle.sc" format="1">
  <advance width="1020"/>
  <outline>
    <component base="LtnSmEzh.RevSigmaStyle.sc"/>
    <contour>
      <point x="520" y="1145" type="move" name="U"/>
    </contour>
    <contour>
      <point x="520" y="-76" type="move" name="L"/>
    </contour>
  </outline>
</glyph>
<glyph name="CySmAbkhasDze.sc" format="1">
  <advance width="1002"/>
  <outline>
    <component base="LtnSmEzh.sc"/>
    <contour>
      <point x="503" y="1145" type="move" name="U"/>
    </contour>
    <contour>
      <point x="504" y="-100" type="move" name="L"/>
    </contour>
  </outline>
</glyph>
<glyph name="CySmBarredO.sc" format="1">
  <advance width="1155"/>
  <outline>
    <component base="LtnSmOMiddleTilde.sc"/>
    <contour>
      <point x="568" y="1145" type="move" name="U"/>
    </contour>
    <contour>
      <point x="568" y="-76" type="move" name="L"/>
    </contour>
  </outline>
</glyph>
<glyph name="CySmEs.sc" format="1">
  <advance width="1032"/>
  <outline>
    <contour>
      <point x="948" y="184" type="line"/>
      <point x="940" y="194" type="line"/>
      <point x="932" y="205"/>
      <point x="921" y="219"/>
      <point x="909" y="224" type="curve"/>
      <point x="772" y="123"/>
      <point x="663" y="88"/>
      <point x="598" y="88" type="curve" smooth="yes"/>
      <point x="425" y="88"/>
      <point x="219" y="231"/>
      <point x="219" y="515" type="curve" smooth="yes"/>
      <point x="219" y="847"/>
      <point x="427" y="961"/>
      <point x="551" y="961" type="curve" smooth="yes"/>
      <point x="661" y="961"/>
      <point x="746" y="924"/>
      <point x="808" y="874" type="curve"/>
      <point x="845" y="869" type="line"/>
      <point x="876" y="896"/>
      <point x="949" y="968"/>
      <point x="930" y="982" type="curve" smooth="yes"/>
      <point x="864" y="1028"/>
      <point x="761" y="1065"/>
      <point x="628" y="1065" type="curve" smooth="yes"/>
      <point x="322" y="1065"/>
      <point x="63" y="836"/>
      <point x="63" y="485" type="curve" smooth="yes"/>
      <point x="63" y="164"/>
      <point x="301" y="-24"/>
      <point x="531" y="-24" type="curve" smooth="yes"/>
      <point x="660" y="-24"/>
      <point x="790" y="24"/>
      <point x="948" y="174" type="curve"/>
    </contour>
    <contour>
      <point x="577" y="1145" type="move" name="U"/>
    </contour>
    <contour>
      <point x="577" y="-76" type="move" name="L"/>
    </contour>
    <contour>
      <point x="604" y="0" type="move" name="O"/>
    </contour>
  </outline>
</glyph>
<glyph name="CySmGje.sc" format="1">
  <advance width="915"/>
  <outline>
    <component base="CySmGhe.sc"/>
    <component base="CombAcute" xOffset="1002" yOffset="95"/>
    <contour>
      <point x="459" y="1505" type="move" name="U"/>
    </contour>
    <contour>
      <point x="459" y="-76" type="move" name="L"/>
    </contour>
  </outline>
</glyph>
<glyph name="CySmSchwa.sc" format="1">
  <advance width="1055"/>
  <outline>
    <component base="LtnSmSchwa.sc"/>
    <contour>
      <point x="527" y="1145" type="move" name="U"/>
    </contour>
    <contour>
      <point x="527" y="-76" type="move" name="L"/>
    </contour>
  </outline>
</glyph>
<glyph name="CySmShortU.sc" format="1">
  <advance width="1166"/>
  <outline>
    <component base="CySmU.sc"/>
    <component base="CombBreve.CyShortMrkAlt.UCHt" xOffset="1208" yOffset="-225"/>
    <contour>
      <point x="611" y="1580" type="move" name="U"/>
    </contour>
    <contour>
      <point x="611" y="-76" type="move" name="L"/>
    </contour>
  </outline>
</glyph>
<glyph name="CySmUMacron.sc" format="1">
  <advance width="1166"/>
  <outline>
    <component base="CySmU.sc"/>
    <component base="CombMacron" xOffset="1136" yOffset="95"/>
    <contour>
      <point x="611" y="1505" type="move" name="U"/>
    </contour>
    <contour>
      <point x="611" y="-76" type="move" name="L"/>
    </contour>
  </outline>
</glyph>
<glyph name="CySmYeruDiaer.sc" format="1">
  <advance width="1438"/>
  <outline>
    <component base="CySmYeru.sc"/>
    <component base="CombDiaer" xOffset="1239" yOffset="95"/>
    <contour>
      <point x="724" y="1505" type="move" name="U"/>
    </contour>
    <contour>
      <point x="724" y="-76" type="move" name="L"/>
    </contour>
  </outline>
</glyph>
<glyph name="CySmZheBreve.sc" format="1">
  <advance width="1654"/>
  <outline>
    <component base="CySmZhe.sc"/>
    <component base="CombBreve.CyShortMrkAlt.UCHt" xOffset="1413" yOffset="-225"/>
    <contour>
      <point x="816" y="1580" type="move" name="U"/>
    </contour>
    <contour>
      <point x="816" y="-76" type="move" name="L"/>
    </contour>
  </outline>
</glyph>
<glyph name="CombMacron.Short.LP" format="1">
  <advance width="0"/>
  <outline>
    <contour>
      <point x="-257" y="1241" type="curve"/>
      <point x="-279" y="1265" type="line"/>
      <point x="-732" y="1265" type="line"/>
      <point x="-745" y="1239"/>
      <point x="-767" y="1189"/>
      <point x="-773" y="1160" type="curve"/>
      <point x="-751" y="1135" type="line"/>
      <point x="-296" y="1135" type="line"/>
      <point x="-286" y="1160"/>
      <point x="-263" y="1212"/>
    </contour>
    <contour>
      <point x="-525" y="1370" type="move" name="U"/>
    </contour>
    <contour>
      <point x="-525" y="1050" type="move" name="_U"/>
    </contour>
  </outline>
</glyph>
<glyph name="CySmEnLftHook.sc" format="1">
  <advance width="1259"/>
  <outline>
    <contour>
      <point x="473" y="998" type="line"/>
      <point x="473" y="1041" type="line"/>
      <point x="44" y="1041" type="line"/>
      <point x="44" y="992" type="line"/>
      <point x="133" y="976"/>
      <point x="179" y="958"/>
      <point x="179" y="948" type="curve"/>
      <point x="179" y="334" type="line"/>
      <point x="338" y="334" type="line"/>
      <point x="338" y="948" type="line"/>
      <point x="338" y="960"/>
      <point x="387" y="976"/>
      <point x="467" y="991" type="curve"/>
    </contour>
    <contour>
      <point x="919" y="500" type="line"/>
      <point x="919" y="588" type="line"/>
      <point x="300" y="588" type="line"/>
      <point x="300" y="500" type="line"/>
    </contour>
    <contour>
      <point x="1183" y="0" type="line"/>
      <point x="1183" y="49" type="line"/>
      <point x="1093" y="64"/>
      <point x="1049" y="82"/>
      <point x="1049" y="92" type="curve"/>
      <point x="1049" y="948" type="line"/>
      <point x="1049" y="959"/>
      <point x="1100" y="976"/>
      <point x="1183" y="992" type="curve"/>
      <point x="1183" y="1041" type="line"/>
      <point x="755" y="1041" type="line"/>
      <point x="755" y="992" type="line"/>
      <point x="843" y="976"/>
      <point x="888" y="958"/>
      <point x="888" y="948" type="curve"/>
      <point x="888" y="92" type="line"/>
      <point x="888" y="81"/>
      <point x="838" y="64"/>
      <point x="755" y="49" type="curve"/>
      <point x="755" y="0" type="line"/>
    </contour>
    <contour>
      <point x="338" y="403" type="line"/>
      <point x="179" y="403" type="line"/>
      <point x="179" y="223" type="line"/>
      <point x="179" y="-11"/>
      <point x="161" y="-173"/>
      <point x="-154" y="-250" type="curve"/>
      <point x="-145" y="-269" type="line"/>
      <point x="-137" y="-283"/>
      <point x="-133" y="-294"/>
      <point x="-120" y="-310" type="curve"/>
      <point x="332" y="-232"/>
      <point x="338" y="-11"/>
      <point x="338" y="266" type="curve"/>
    </contour>
    <contour>
      <point x="620" y="1145" type="move" name="U"/>
    </contour>
    <contour>
      <point x="620" y="-491" type="move" name="L"/>
    </contour>
  </outline>
</glyph>
<glyph name="LtnCapABreveAcute.VN" format="1">
  <advance width="1219"/>
  <outline>
    <component base="LtnCapA"/>
    <component base="CombBreveAcute.VNLP" xOffset="1114" yOffset="320"/>
    <contour>
      <point x="599" y="0" type="move" name="H"/>
    </contour>
    <contour>
      <point x="599" y="1690" type="move" name="U"/>
    </contour>
    <contour>
      <point x="599" y="-100" type="move" name="L"/>
    </contour>
    <contour>
      <point x="960" y="0" type="move" name="O"/>
    </contour>
  </outline>
</glyph>
<glyph name="LtnCapABreveGrave.VN" format="1">
  <advance width="1219"/>
  <outline>
    <component base="LtnCapA"/>
    <component base="CombBreveGrave.VNLP" xOffset="1114" yOffset="320"/>
    <contour>
      <point x="599" y="0" type="move" name="H"/>
    </contour>
    <contour>
      <point x="599" y="1690" type="move" name="U"/>
    </contour>
    <contour>
      <point x="599" y="-100" type="move" name="L"/>
    </contour>
    <contour>
      <point x="960" y="0" type="move" name="O"/>
    </contour>
  </outline>
</glyph>
<glyph name="LtnCapACircumHookAbv.VN" format="1">
  <advance width="1219"/>
  <outline>
    <component base="LtnCapA"/>
    <component base="CombCircumHook.VNLP" xOffset="1113" yOffset="320"/>
    <contour>
      <point x="599" y="0" type="move" name="H"/>
    </contour>
    <contour>
      <point x="599" y="1770" type="move" name="U"/>
    </contour>
    <contour>
      <point x="599" y="-100" type="move" name="L"/>
    </contour>
    <contour>
      <point x="960" y="0" type="move" name="O"/>
    </contour>
  </outline>
</glyph>
<glyph name="LtnCapAOgonek.RetroHook" format="1">
  <advance width="1219"/>
  <outline>
    <component base="LtnCapA"/>
    <component base="Ogonek.RetroHook" xOffset="679"/>
    <contour>
      <point x="1000" y="0" type="move" name="H"/>
    </contour>
    <contour>
      <point x="599" y="1370" type="move" name="U"/>
    </contour>
    <contour>
      <point x="636" y="-600" type="move" name="L"/>
    </contour>
    <contour>
      <point x="960" y="0" type="move" name="O"/>
    </contour>
  </outline>
</glyph>
<glyph name="LtnCapDSmZCaron.LP" format="1">
  <advance width="2119"/>
  <outline>
    <component base="LtnCapD"/>
    <component base="LtnSmZ" xOffset="1214"/>
    <component base="CombCaron.LP" xOffset="2208"/>
    <contour>
      <point x="1666" y="-100" type="move" name="L"/>
    </contour>
    <contour>
      <point x="1694" y="1370" type="move" name="U"/>
    </contour>
  </outline>
</glyph>
<glyph name="LtnCapDSmZCaron.sc" format="1">
  <advance width="2148"/>
  <outline>
    <component base="LtnSmD.sc"/>
    <component base="LtnSmZ.sc" xOffset="1141"/>
    <component base="CombCaron" xOffset="2177" yOffset="95"/>
    <contour>
      <point x="1663" y="1545" type="move" name="U"/>
    </contour>
    <contour>
      <point x="1644" y="-76" type="move" name="L"/>
    </contour>
  </outline>
</glyph>
<glyph name="LtnCapECircumAcute.VN" format="1">
  <advance width="1016"/>
  <outline>
    <component base="LtnCapE"/>
    <component base="CombCircumAcute.VNLP" xOffset="1016" yOffset="320"/>
    <contour>
      <point x="502" y="0" type="move" name="H"/>
    </contour>
    <contour>
      <point x="1016" y="1100" type="move" name="R"/>
    </contour>
    <contour>
      <point x="502" y="1770" type="move" name="U"/>
    </contour>
    <contour>
      <point x="502" y="-100" type="move" name="L"/>
    </contour>
    <contour>
      <point x="750" y="0" type="move" name="O"/>
    </contour>
  </outline>
</glyph>
<glyph name="LtnCapIOgonek.RetroHook" format="1">
  <advance width="976"/>
  <outline>
    <component base="LtnCapI"/>
    <component base="CombOgonek.RetroHook" xOffset="379"/>
    <contour>
      <point x="295" y="0" type="move" name="H"/>
    </contour>
    <contour>
      <point x="580" y="1100" type="move" name="R"/>
    </contour>
    <contour>
      <point x="295" y="1370" type="move" name="U"/>
    </contour>
    <contour>
      <point x="315" y="-600" type="move" name="L"/>
    </contour>
    <contour>
      <point x="345" y="0" type="move" name="O"/>
    </contour>
  </outline>
</glyph>
<glyph name="LtnCapL.Sophia" format="1">
  <advance width="390"/>
  <outline>
    <contour>
      <point x="369" y="0" type="line"/>
      <point x="369" y="64" type="line"/>
      <point x="134" y="64" type="line"/>
      <point x="134" y="533" type="line"/>
      <point x="59" y="533" type="line"/>
      <point x="59" y="0" type="line"/>
    </contour>
    <contour>
      <point x="214" y="266" type="move" name="_C"/>
    </contour>
  </outline>
</glyph>
<glyph name="LtnCapLSmJ.LP" format="1">
  <advance width="1505"/>
  <outline>
    <component base="LtnCapL"/>
    <component base="LtnSmJ.LP" xOffset="975"/>
    <contour>
      <point x="1235" y="-600" type="move" name="L"/>
    </contour>
    <contour>
      <point x="1235" y="1050" type="move" name="U"/>
    </contour>
    <contour>
      <point x="750" y="900" type="move" name="R"/>
    </contour>
  </outline>
</glyph>
<glyph name="LtnCapLSmJ.sc" format="1">
  <advance width="1503"/>
  <outline>
    <component base="LtnSmL.sc"/>
    <component base="LtnSmJ.sc" xOffset="916"/>
    <contour>
      <point x="467" y="7" type="move" name="H"/>
    </contour>
    <contour>
      <point x="705" y="754" type="move" name="R"/>
    </contour>
    <contour>
      <point x="1226" y="1145" type="move" name="U"/>
    </contour>
    <contour>
      <point x="1226" y="-491" type="move" name="L"/>
    </contour>
  </outline>
</glyph>
<glyph name="LtnCapOCircumHookAbv.VN" format="1">
  <advance width="1229"/>
  <outline>
    <component base="LtnCapO"/>
    <component base="CombCircumHook.VNLP" xOffset="1131" yOffset="320"/>
    <contour>
      <point x="587" y="0" type="move" name="H"/>
    </contour>
    <contour>
      <point x="1258" y="1100" type="move" name="R"/>
    </contour>
    <contour>
      <point x="617" y="1770" type="move" name="U"/>
    </contour>
    <contour>
      <point x="617" y="-100" type="move" name="L"/>
    </contour>
    <contour>
      <point x="678" y="0" type="move" name="O"/>
    </contour>
  </outline>
</glyph>
<glyph name="LtnLigSmFSmI.SItal.sc" format="1">
  <advance width="1493"/>
  <outline>
    <component base="LtnSmF.sc"/>
    <component base="LtnSmI.sc" xOffset="920"/>
    <contour>
      <point x="1197" y="7" type="move" name="H"/>
    </contour>
    <contour>
      <point x="1465" y="920" type="move" name="R"/>
    </contour>
    <contour>
      <point x="1197" y="1145" type="move" name="U"/>
    </contour>
    <contour>
      <point x="1197" y="-76" type="move" name="L"/>
    </contour>
    <contour>
      <point x="1244" y="7" type="move" name="O"/>
    </contour>
  </outline>
</glyph>
<glyph name="LtnLigSmFSmI" format="1">
  <advance width="1192"/>
  <outline>
    <component base="LtnSmF"/>
    <component base="LtnSmI" xOffset="637"/>
    <contour>
      <point x="1180" y="900" type="move" name="R"/>
    </contour>
    <contour>
      <point x="922" y="1620" type="move" name="U"/>
    </contour>
    <contour>
      <point x="922" y="-100" type="move" name="L"/>
    </contour>
  </outline>
</glyph>
<glyph name="LtnLigSmFSmL.SItal" format="1">
  <advance width="1191"/>
  <outline>
    <component base="LtnSmF.SItal"/>
    <component base="LtnSmL.SItal" xOffset="636"/>
    <contour>
      <point x="922" y="-100" type="move" name="L"/>
    </contour>
    <contour>
      <point x="922" y="1620" type="move" name="U"/>
    </contour>
    <contour>
      <point x="1192" y="900" type="move" name="R"/>
    </contour>
  </outline>
</glyph>
<glyph name="LtnLigSmFSmL.SItal.sc" format="1">
  <advance width="1836"/>
  <outline>
    <component base="LtnSmF.sc"/>
    <component base="LtnSmL.sc" xOffset="920"/>
    <contour>
      <point x="1387" y="7" type="move" name="H"/>
    </contour>
    <contour>
      <point x="1625" y="754" type="move" name="R"/>
    </contour>
    <contour>
      <point x="1359" y="1145" type="move" name="U"/>
    </contour>
    <contour>
      <point x="1387" y="-76" type="move" name="L"/>
    </contour>
  </outline>
</glyph>
<glyph name="LtnSmAAcute.sc" format="1">
  <advance width="1146"/>
  <outline>
    <component base="LtnSmA.sc"/>
    <component base="CombAcute" xOffset="1106" yOffset="95"/>
    <contour>
      <point x="563" y="0" type="move" name="H"/>
    </contour>
    <contour>
      <point x="563" y="1505" type="move" name="U"/>
    </contour>
    <contour>
      <point x="563" y="-76" type="move" name="L"/>
    </contour>
    <contour>
      <point x="902" y="7" type="move" name="O"/>
    </contour>
  </outline>
</glyph>
<glyph name="LtnSmABreveDotBlw.SngStory" format="1">
  <advance width="1023"/>
  <outline>
    <component base="LtnSmAlpha"/>
    <component base="CombDotBlw" xOffset="1059"/>
    <component base="CombBreve" xOffset="1059"/>
    <contour>
      <point x="532" y="0" type="move" name="H"/>
    </contour>
    <contour>
      <point x="1023" y="900" type="move" name="R"/>
    </contour>
    <contour>
      <point x="544" y="1370" type="move" name="U"/>
    </contour>
    <contour>
      <point x="544" y="-600" type="move" name="L"/>
    </contour>
    <contour>
      <point x="790" y="0" type="move" name="O"/>
    </contour>
  </outline>
</glyph>
<glyph name="LtnSmABreveGrave.2StorySItal" format="1">
  <advance width="940"/>
  <outline>
    <component base="LtnSmA.2StorySItal"/>
    <component base="CombBreve" xOffset="995"/>
    <component base="CombGrave" xOffset="913" yOffset="320"/>
    <contour>
      <point x="426" y="0" type="move" name="H"/>
    </contour>
    <contour>
      <point x="940" y="900" type="move" name="R"/>
    </contour>
    <contour>
      <point x="480" y="1730" type="move" name="U"/>
    </contour>
    <contour>
      <point x="460" y="-100" type="move" name="L"/>
    </contour>
    <contour>
      <point x="715" y="0" type="move" name="O"/>
    </contour>
  </outline>
</glyph>
<glyph name="LtnSmABreveGrave.LP" format="1">
  <advance width="940"/>
  <outline>
    <component base="LtnSmA"/>
    <component base="CombBreve" xOffset="995"/>
    <component base="CombGrave.LP" xOffset="913" yOffset="320"/>
    <contour>
      <point x="446" y="0" type="move" name="H"/>
    </contour>
    <contour>
      <point x="940" y="900" type="move" name="R"/>
    </contour>
    <contour>
      <point x="480" y="1690" type="move" name="U"/>
    </contour>
    <contour>
      <point x="460" y="-100" type="move" name="L"/>
    </contour>
    <contour>
      <point x="715" y="0" type="move" name="O"/>
    </contour>
  </outline>
</glyph>
<glyph name="LtnSmABreveGrave.SngStory.VN.LP" format="1">
  <advance width="1023"/>
  <outline>
    <component base="LtnSmAlpha"/>
    <component base="CombBreveGrave.VNLP" xOffset="1059"/>
    <contour>
      <point x="532" y="0" type="move" name="H"/>
    </contour>
    <contour>
      <point x="1023" y="900" type="move" name="R"/>
    </contour>
    <contour>
      <point x="544" y="1370" type="move" name="U"/>
    </contour>
    <contour>
      <point x="544" y="-100" type="move" name="L"/>
    </contour>
    <contour>
      <point x="790" y="0" type="move" name="O"/>
    </contour>
  </outline>
</glyph>
<glyph name="LtnSmABreveGrave.SngStory.sc" format="1">
  <advance width="1146"/>
  <outline>
    <component base="LtnSmA.sc"/>
    <component base="CombBreve" xOffset="1078" yOffset="95"/>
    <component base="CombGrave" xOffset="996" yOffset="415"/>
    <contour>
      <point x="563" y="0" type="move" name="H"/>
    </contour>
    <contour>
      <point x="563" y="1825" type="move" name="U"/>
    </contour>
    <contour>
      <point x="563" y="-76" type="move" name="L"/>
    </contour>
    <contour>
      <point x="902" y="7" type="move" name="O"/>
    </contour>
  </outline>
</glyph>
<glyph name="LtnSmABreveHookAbv.VN.LP" format="1">
  <advance width="940"/>
  <outline>
    <component base="LtnSmA"/>
    <component base="CombBreveHook.VNLP" xOffset="995"/>
    <contour>
      <point x="446" y="0" type="move" name="H"/>
    </contour>
    <contour>
      <point x="940" y="900" type="move" name="R"/>
    </contour>
    <contour>
      <point x="480" y="1750" type="move" name="U"/>
    </contour>
    <contour>
      <point x="460" y="-100" type="move" name="L"/>
    </contour>
    <contour>
      <point x="715" y="0" type="move" name="O"/>
    </contour>
  </outline>
</glyph>
<glyph name="LtnSmABreveTilde.SngStory.VN.LP" format="1">
  <advance width="1023"/>
  <outline>
    <component base="LtnSmAlpha"/>
    <component base="CombBreveTilde.VNLP" xOffset="1059"/>
    <contour>
      <point x="532" y="0" type="move" name="H"/>
    </contour>
    <contour>
      <point x="1023" y="900" type="move" name="R"/>
    </contour>
    <contour>
      <point x="544" y="1370" type="move" name="U"/>
    </contour>
    <contour>
      <point x="544" y="-100" type="move" name="L"/>
    </contour>
    <contour>
      <point x="790" y="0" type="move" name="O"/>
    </contour>
  </outline>
</glyph>
<glyph name="LtnSmACircumAcute.SngStory" format="1">
  <advance width="1023"/>
  <outline>
    <component base="LtnSmAlpha"/>
    <component base="CombCircum" xOffset="1058"/>
    <component base="CombAcute" xOffset="1087" yOffset="450"/>
    <contour>
      <point x="532" y="0" type="move" name="H"/>
    </contour>
    <contour>
      <point x="1023" y="900" type="move" name="R"/>
    </contour>
    <contour>
      <point x="544" y="1860" type="move" name="U"/>
    </contour>
    <contour>
      <point x="544" y="-100" type="move" name="L"/>
    </contour>
    <contour>
      <point x="790" y="0" type="move" name="O"/>
    </contour>
  </outline>
</glyph>
<glyph name="LtnSmACircumDotBlw.2StorySItal.LP" format="1">
  <advance width="940"/>
  <outline>
    <component base="LtnSmA.2StorySItal"/>
    <component base="CombDotBlw" xOffset="975"/>
    <component base="CombCircum.LP" xOffset="994"/>
    <contour>
      <point x="426" y="0" type="move" name="H"/>
    </contour>
    <contour>
      <point x="940" y="900" type="move" name="R"/>
    </contour>
    <contour>
      <point x="480" y="1450" type="move" name="U"/>
    </contour>
    <contour>
      <point x="460" y="-600" type="move" name="L"/>
    </contour>
    <contour>
      <point x="715" y="0" type="move" name="O"/>
    </contour>
  </outline>
</glyph>
<glyph name="LtnSmACircumDotBlw.SngStory" format="1">
  <advance width="1023"/>
  <outline>
    <component base="LtnSmAlpha"/>
    <component base="CombDotBlw" xOffset="1059"/>
    <component base="CombCircum" xOffset="1058"/>
    <contour>
      <point x="532" y="0" type="move" name="H"/>
    </contour>
    <contour>
      <point x="1023" y="900" type="move" name="R"/>
    </contour>
    <contour>
      <point x="544" y="1500" type="move" name="U"/>
    </contour>
    <contour>
      <point x="544" y="-600" type="move" name="L"/>
    </contour>
    <contour>
      <point x="790" y="0" type="move" name="O"/>
    </contour>
  </outline>
</glyph>
<glyph name="LtnSmACircumGrave.2StorySItal.VN" format="1">
  <advance width="940"/>
  <outline>
    <component base="LtnSmA.2StorySItal"/>
    <component base="CombCircumGrave.VN" xOffset="994"/>
    <contour>
      <point x="426" y="0" type="move" name="H"/>
    </contour>
    <contour>
      <point x="940" y="900" type="move" name="R"/>
    </contour>
    <contour>
      <point x="460" y="-100" type="move" name="L"/>
    </contour>
    <contour>
      <point x="715" y="0" type="move" name="O"/>
    </contour>
  </outline>
</glyph>
<glyph name="LtnSmACircumGrave.VN" format="1">
  <advance width="940"/>
  <outline>
    <component base="LtnSmA"/>
    <component base="CombCircumGrave.VN" xOffset="994"/>
    <contour>
      <point x="446" y="0" type="move" name="H"/>
    </contour>
    <contour>
      <point x="940" y="900" type="move" name="R"/>
    </contour>
    <contour>
      <point x="460" y="-100" type="move" name="L"/>
    </contour>
    <contour>
      <point x="715" y="0" type="move" name="O"/>
    </contour>
  </outline>
</glyph>
<glyph name="LtnSmACircumHookAbv.2StorySItal.VN.LP" format="1">
  <advance width="940"/>
  <outline>
    <component base="LtnSmA.2StorySItal"/>
    <component base="CombCircumHook.VNLP" xOffset="994"/>
    <contour>
      <point x="426" y="0" type="move" name="H"/>
    </contour>
    <contour>
      <point x="940" y="900" type="move" name="R"/>
    </contour>
    <contour>
      <point x="480" y="1450" type="move" name="U"/>
    </contour>
    <contour>
      <point x="460" y="-100" type="move" name="L"/>
    </contour>
    <contour>
      <point x="715" y="0" type="move" name="O"/>
    </contour>
  </outline>
</glyph>
<glyph name="LtnSmACircumTilde.2StorySItal.LP" format="1">
  <advance width="940"/>
  <outline>
    <component base="LtnSmA.2StorySItal"/>
    <component base="CombCircum.LP" xOffset="994"/>
    <component base="CombTilde.LP" xOffset="995" yOffset="400"/>
    <contour>
      <point x="426" y="0" type="move" name="H"/>
    </contour>
    <contour>
      <point x="940" y="900" type="move" name="R"/>
    </contour>
    <contour>
      <point x="480" y="1770" type="move" name="U"/>
    </contour>
    <contour>
      <point x="460" y="-100" type="move" name="L"/>
    </contour>
    <contour>
      <point x="715" y="0" type="move" name="O"/>
    </contour>
  </outline>
</glyph>
<glyph name="LtnSmACircumTilde.LP" format="1">
  <advance width="940"/>
  <outline>
    <component base="LtnSmA"/>
    <component base="CombCircum.LP" xOffset="994"/>
    <component base="CombTilde.LP" xOffset="995" yOffset="400"/>
    <contour>
      <point x="446" y="0" type="move" name="H"/>
    </contour>
    <contour>
      <point x="940" y="900" type="move" name="R"/>
    </contour>
    <contour>
      <point x="480" y="1770" type="move" name="U"/>
    </contour>
    <contour>
      <point x="460" y="-100" type="move" name="L"/>
    </contour>
    <contour>
      <point x="715" y="0" type="move" name="O"/>
    </contour>
  </outline>
</glyph>
<glyph name="LtnSmACircumTilde.SngStory.VN.LP" format="1">
  <advance width="1023"/>
  <outline>
    <component base="LtnSmAlpha"/>
    <component base="CombCircumTilde.VNLP" xOffset="1057"/>
    <contour>
      <point x="532" y="0" type="move" name="H"/>
    </contour>
    <contour>
      <point x="1023" y="900" type="move" name="R"/>
    </contour>
    <contour>
      <point x="544" y="1450" type="move" name="U"/>
    </contour>
    <contour>
      <point x="544" y="-100" type="move" name="L"/>
    </contour>
    <contour>
      <point x="790" y="0" type="move" name="O"/>
    </contour>
  </outline>
</glyph>
<glyph name="LtnSmACircumTilde.SngStory.sc" format="1">
  <advance width="1146"/>
  <outline>
    <component base="LtnSmA.sc"/>
    <component base="CombCircum" xOffset="1077" yOffset="95"/>
    <component base="CombTilde" xOffset="1078" yOffset="545"/>
    <contour>
      <point x="563" y="0" type="move" name="H"/>
    </contour>
    <contour>
      <point x="563" y="1955" type="move" name="U"/>
    </contour>
    <contour>
      <point x="563" y="-76" type="move" name="L"/>
    </contour>
    <contour>
      <point x="902" y="7" type="move" name="O"/>
    </contour>
  </outline>
</glyph>
<glyph name="LtnSmACircumTilde.VN" format="1">
  <advance width="940"/>
  <outline>
    <component base="LtnSmA"/>
    <component base="CombCircumTilde.VN" xOffset="994"/>
    <contour>
      <point x="446" y="0" type="move" name="H"/>
    </contour>
    <contour>
      <point x="940" y="900" type="move" name="R"/>
    </contour>
    <contour>
      <point x="480" y="1750" type="move" name="U"/>
    </contour>
    <contour>
      <point x="460" y="-100" type="move" name="L"/>
    </contour>
    <contour>
      <point x="715" y="0" type="move" name="O"/>
    </contour>
  </outline>
</glyph>
<glyph name="LtnSmADotAbv.LP" format="1">
  <advance width="940"/>
  <outline>
    <component base="LtnSmA"/>
    <component base="CombDotAbv.LP" xOffset="995"/>
    <contour>
      <point x="446" y="0" type="move" name="H"/>
    </contour>
    <contour>
      <point x="940" y="900" type="move" name="R"/>
    </contour>
    <contour>
      <point x="480" y="1370" type="move" name="U"/>
    </contour>
    <contour>
      <point x="460" y="-100" type="move" name="L"/>
    </contour>
    <contour>
      <point x="715" y="0" type="move" name="O"/>
    </contour>
  </outline>
</glyph>
<glyph name="LtnSmAInvBreve.SngStory.sc" format="1">
  <advance width="1146"/>
  <outline>
    <component base="LtnSmA.sc"/>
    <component base="CombInvBreve" xOffset="1078" yOffset="95"/>
    <contour>
      <point x="563" y="0" type="move" name="H"/>
    </contour>
    <contour>
      <point x="563" y="1465" type="move" name="U"/>
    </contour>
    <contour>
      <point x="563" y="-76" type="move" name="L"/>
    </contour>
    <contour>
      <point x="902" y="7" type="move" name="O"/>
    </contour>
  </outline>
</glyph>
<glyph name="LtnSmAOgonek.SngStory" format="1">
  <advance width="1023"/>
  <outline>
    <component base="LtnSmAlpha"/>
    <component base="CombOgonek" xOffset="1254"/>
    <contour>
      <point x="532" y="0" type="move" name="H"/>
    </contour>
    <contour>
      <point x="1023" y="900" type="move" name="R"/>
    </contour>
    <contour>
      <point x="544" y="1050" type="move" name="U"/>
    </contour>
    <contour>
      <point x="740" y="-600" type="move" name="L"/>
    </contour>
  </outline>
</glyph>
<glyph name="LtnSmATilde.SngStory.LP" format="1">
  <advance width="1023"/>
  <outline>
    <component base="LtnSmAlpha"/>
    <component base="CombTilde.LP" xOffset="1059"/>
    <contour>
      <point x="532" y="0" type="move" name="H"/>
    </contour>
    <contour>
      <point x="1023" y="900" type="move" name="R"/>
    </contour>
    <contour>
      <point x="544" y="1370" type="move" name="U"/>
    </contour>
    <contour>
      <point x="544" y="-100" type="move" name="L"/>
    </contour>
    <contour>
      <point x="790" y="0" type="move" name="O"/>
    </contour>
  </outline>
</glyph>
